<?xml version="1.0" encoding="UTF-8"?>
<svg id="Capa_2" data-name="Capa 2" xmlns="http://www.w3.org/2000/svg" viewBox="0 0 1051.55 270">
  <defs>
    <style>
      .cls-1 {
        fill: #ed1d23;
      }

      .cls-2 {
        fill: #fff;
      }
    </style>
  </defs>
  <g id="Capa_1-2" data-name="Capa 1">
    <g>
      <polygon class="cls-1" points="977.73 270 0 270 73.82 0 1051.55 0 977.73 270"/>
      <g>
        <path class="cls-2" d="M176.24,206.54c.26-2.18.51-4.3.77-6.35.26-2.05.51-4.11.77-6.16l1.16-10.78c.13-1.8.26-3.47.38-5.01.13-1.54.26-2.95.39-4.24h-16.75l-7.7,27.73c-2.83.39-6.16.8-10.01,1.25-3.85.45-7.45.87-10.78,1.25-2.05.26-4.08.51-6.07.77-1.99.26-4.01.51-6.07.77l15.21-50.45c1.8-6.03,3.85-12.9,6.16-20.6,2.31-7.7,4.65-15.6,7.03-23.69,2.37-8.09,4.62-15.69,6.74-22.82,2.12-7.12,3.82-13.12,5.1-18,8.73-.64,17.62-1.41,26.67-2.31,9.05-.9,17.88-2.12,26.48-3.66-.64,7.19-1.25,15.31-1.83,24.36-.58,9.05-1.09,18.39-1.54,28.02-.45,9.63-.93,19.13-1.44,28.5-.26,8.86-.58,18-.96,27.44s-.77,19.1-1.16,28.98c-1.93.26-3.85.51-5.78.77-1.93.26-3.85.51-5.78.77-3.21.51-6.74,1.09-10.59,1.73-3.85.64-7.32,1.22-10.4,1.73ZM167.58,155.03c.77,0,2.21-.06,4.33-.19,2.12-.13,4.14-.26,6.07-.39,1.93-.13,3.08-.19,3.47-.19,0-1.67.26-5.07.77-10.21.51-5.13,1.03-10.52,1.54-16.18.26-3.34.54-6.77.87-10.3.32-3.53.67-7.16,1.06-10.88l1.16-16.75-2.89.19-4.43,16.56-11.94,48.33Z"/>
        <path class="cls-2" d="M221.3,208.17c-1.8,0-3.6-.1-5.39-.29-1.8-.19-3.6-.42-5.39-.67l10.21-51.8c1.28-7.06,2.66-14.54,4.14-22.43,1.47-7.9,2.92-15.72,4.33-23.49,1.41-7.77,2.66-14.99,3.75-21.66,1.09-6.67,1.96-12.32,2.6-16.95,5.52-1.03,11.1-1.99,16.75-2.89,5.65-.9,11.42-1.35,17.33-1.35,9.5,0,17.01,1.96,22.53,5.87,5.52,3.92,9.5,9.05,11.94,15.41,2.44,6.35,3.66,13.32,3.66,20.89,0,6.81-.96,13.96-2.89,21.47s-4.65,14.96-8.18,22.34c-3.53,7.38-7.74,14.35-12.61,20.89-7.58,10.14-16.79,18.46-27.63,24.94-10.85,6.48-22.56,9.72-35.14,9.72ZM244.22,183.91c4.49-2.95,8.76-7.44,12.81-13.48,4.04-6.03,7.86-13.29,11.46-21.76,3.21-7.83,5.71-15.24,7.51-22.24,1.8-7,2.7-12.81,2.7-17.43s-1.32-8.47-3.95-11.17c-2.63-2.7-6.77-4.04-12.42-4.04-2.06,11.04-4.14,21.25-6.26,30.62-2.12,9.37-4.17,18.81-6.16,28.31-1.99,9.5-3.88,19.9-5.68,31.19Z"/>
        <path class="cls-2" d="M342.81,206.54c.26-2.18.51-4.3.77-6.35.26-2.05.51-4.11.77-6.16l1.16-10.78c.13-1.8.26-3.47.38-5.01.13-1.54.26-2.95.39-4.24h-16.75l-7.7,27.73c-2.83.39-6.16.8-10.01,1.25-3.85.45-7.45.87-10.78,1.25-2.05.26-4.08.51-6.07.77-1.99.26-4.01.51-6.07.77l15.21-50.45c1.8-6.03,3.85-12.9,6.16-20.6,2.31-7.7,4.65-15.6,7.03-23.69,2.37-8.09,4.62-15.69,6.74-22.82,2.12-7.12,3.82-13.12,5.1-18,8.73-.64,17.62-1.41,26.67-2.31,9.05-.9,17.88-2.12,26.48-3.66-.64,7.19-1.25,15.31-1.83,24.36-.58,9.05-1.09,18.39-1.54,28.02-.45,9.63-.93,19.13-1.44,28.5-.26,8.86-.58,18-.96,27.44s-.77,19.1-1.16,28.98c-1.93.26-3.85.51-5.78.77-1.93.26-3.85.51-5.78.77-3.21.51-6.74,1.09-10.59,1.73-3.85.64-7.32,1.22-10.4,1.73ZM334.15,155.03c.77,0,2.21-.06,4.33-.19,2.12-.13,4.14-.26,6.07-.39,1.93-.13,3.08-.19,3.47-.19,0-1.67.26-5.07.77-10.21.51-5.13,1.03-10.52,1.54-16.18.26-3.34.54-6.77.87-10.3.32-3.53.67-7.16,1.06-10.88l1.16-16.75-2.89.19-4.43,16.56-11.94,48.33Z"/>
        <path class="cls-2" d="M448.42,207.6c-8.09,0-14.7-3.79-19.83-11.36-5.14-7.57-7.7-17.97-7.7-31.2,0-12.06,1.67-23.97,5.01-35.72,3.34-11.75,8.02-22.3,14.06-31.68,6.03-9.37,13.19-16.91,21.47-22.63,8.28-5.71,17.43-8.57,27.44-8.57,6.29,0,11.68,2.44,16.18,7.32,4.49,4.88,6.74,11.43,6.74,19.64v3.66c0,.39-.07.84-.19,1.35l-25.23,6.74c-1.54-3.21-3.34-4.81-5.39-4.81-3.08,0-6.32,2.5-9.72,7.51-3.4,5.01-6.64,10.98-9.72,17.91-2.06,4.62-3.88,9.37-5.49,14.25-1.61,4.88-2.86,9.44-3.76,13.67-.9,4.24-1.35,7.7-1.35,10.4,0,3.98.58,6.87,1.73,8.67.9,1.67,2.31,2.5,4.24,2.5s4.04-.93,6.35-2.79c2.31-1.86,4.46-4.2,6.45-7.03,1.99-2.82,3.3-5.65,3.95-8.47l21.95,8.86c-6.29,14.38-13.77,24.94-22.43,31.68-8.67,6.74-16.92,10.11-24.74,10.11Z"/>
        <path class="cls-2" d="M526.51,207.98c-8.47,0-15.41-3.27-20.8-9.82-5.39-6.55-8.09-16.43-8.09-29.65,0-7.32.9-15.02,2.7-23.11,1.8-8.09,4.3-16.05,7.51-23.88,3.21-7.83,6.93-15.08,11.17-21.76,6.8-10.78,14.63-19.58,23.49-26.38,8.86-6.8,18.16-10.21,27.92-10.21,7.7,0,13.64,1.96,17.81,5.87,4.17,3.92,7.09,8.92,8.76,15.02,1.67,6.1,2.5,12.42,2.5,18.97,0,15.28-2.34,29.5-7.03,42.65-4.69,13.16-10.75,24.3-18.2,33.41-7.45,9.37-15.38,16.53-23.78,21.47-8.41,4.94-16.4,7.41-23.97,7.41ZM536.91,176.21c5.78,0,10.88-1.93,15.31-5.78,4.43-3.85,8.18-8.76,11.26-14.73,3.08-5.97,5.39-12.23,6.93-18.77,1.54-6.55,2.31-12.45,2.31-17.72,0-2.05-.19-4.27-.58-6.64-.39-2.37-1.22-4.46-2.5-6.26-1.28-1.8-3.27-2.7-5.97-2.7-5.91,0-11.23,2.15-15.98,6.45-4.75,4.3-8.73,9.72-11.94,16.27-3.21,6.68-5.58,13.22-7.12,19.64-1.54,6.42-2.31,12.26-2.31,17.52,0,2.7.96,5.49,2.89,8.38,1.93,2.89,4.49,4.33,7.7,4.33Z"/>
        <path class="cls-2" d="M579.47,206.06c5.65-17.2,11.04-33.95,16.18-50.26,2.18-6.67,4.43-13.8,6.74-21.37,2.31-7.57,4.62-15.18,6.93-22.82,2.31-7.64,4.49-14.99,6.55-22.05,2.05-7.06,3.78-13.35,5.2-18.87,7.06,0,13.74-.39,20.03-1.16,3.21-.39,6.51-.77,9.92-1.16,3.4-.38,6.9-.7,10.49-.96l-1.16,9.44c-.26,1.8-.51,3.63-.77,5.49-.26,1.86-.51,3.75-.77,5.68-.26,1.93-.58,3.88-.96,5.87-.39,1.99-.71,4.01-.96,6.07-.51,3.98-1.28,9.53-2.31,16.66-1.03,7.12-2.25,14.86-3.66,23.39h2.5c3.72-9.94,6.8-18.06,9.24-24.54,2.44-6.48,4.43-11.78,5.97-15.89,2.18-6.03,4.56-12.13,7.12-18.29,2.57-6.16,4.68-10.91,6.35-14.25,3.08-.26,6.77-.67,11.07-1.25,4.3-.58,8.67-1.25,13.09-2.02,4.43-.77,8.25-1.41,11.46-1.93-1.8,10.78-3.44,21.66-4.91,32.64-1.48,10.98-2.76,21.44-3.85,31.39-1.09,9.95-2.02,18.9-2.79,26.86-.77,7.96-1.48,15.82-2.12,23.59-.64,7.77-1.28,15.44-1.93,23.01l-33.51,5.97c0-.26.19-3.14.58-8.67.38-5.52,1.03-12.39,1.93-20.6.9-8.21,1.8-16.01,2.7-23.4.9-7.38,1.8-13.45,2.7-17.62h-1.73c-3.21,9.18-7.09,19.83-11.65,31.39-4.56,11.55-9.02,24.33-13.38,38.32-4.5.13-8.35.29-11.55.48-3.21.19-6.93.42-11.17.67l6.16-70.86h-2.89c-.13.84-.71,3.56-1.73,7.61-1.03,4.04-2.25,8.67-3.66,13.86-1.41,5.2-2.89,10.37-4.43,15.5-5.78,20.16-8.86,30.81-9.24,31.97l-31.77,2.12Z"/>
        <path class="cls-2" d="M703.28,207.02c2.18-7.57,4.33-16.18,6.45-25.8,2.12-9.63,4.17-19.48,6.16-29.56,1.99-10.08,3.88-19.61,5.68-28.6,1.67-8.21,3.27-16.56,4.81-25.03s3.08-17.01,4.62-25.61l30.04-4.81c-1.67,8.6-3.34,17.11-5.01,25.51-1.67,8.41-3.34,16.79-5.01,25.13-1.8,8.99-3.66,18.49-5.58,28.5-1.93,10.01-3.79,19.87-5.58,29.56-1.8,9.69-3.47,18.71-5.01,27.06-2.31,0-5.2.16-8.67.48-3.47.32-6.93.71-10.4,1.16-3.47.45-6.39.87-8.76,1.25-2.38.39-3.63.64-3.75.77Z"/>
        <path class="cls-2" d="M778.42,207.6c-8.09,0-14.7-3.79-19.83-11.36-5.14-7.57-7.7-17.97-7.7-31.2,0-12.06,1.67-23.97,5.01-35.72,3.34-11.75,8.02-22.3,14.06-31.68,6.03-9.37,13.19-16.91,21.47-22.63,8.28-5.71,17.43-8.57,27.44-8.57,6.29,0,11.68,2.44,16.18,7.32,4.49,4.88,6.74,11.43,6.74,19.64v3.66c0,.39-.07.84-.19,1.35l-25.23,6.74c-1.54-3.21-3.34-4.81-5.39-4.81-3.08,0-6.32,2.5-9.72,7.51-3.4,5.01-6.64,10.98-9.72,17.91-2.06,4.62-3.88,9.37-5.49,14.25-1.61,4.88-2.86,9.44-3.76,13.67-.9,4.24-1.35,7.7-1.35,10.4,0,3.98.58,6.87,1.73,8.67.9,1.67,2.31,2.5,4.24,2.5s4.04-.93,6.35-2.79c2.31-1.86,4.46-4.2,6.45-7.03,1.99-2.82,3.3-5.65,3.95-8.47l21.95,8.86c-6.29,14.38-13.77,24.94-22.43,31.68-8.67,6.74-16.92,10.11-24.74,10.11Z"/>
        <path class="cls-2" d="M855.6,207.6c-5.14,0-10.27-1.38-15.4-4.14-5.14-2.76-10.08-7.15-14.83-13.19l14.25-27.92c1.41,2.44,3.5,4.75,6.26,6.93,2.76,2.18,5.68,3.92,8.76,5.2,3.08,1.29,5.71,1.93,7.9,1.93,3.34,0,6.51-1.03,9.53-3.08,3.02-2.05,4.53-4.81,4.53-8.28,0-4.49-2.06-8.6-6.16-12.32-4.11-3.72-8.73-7.38-13.86-10.98-5.01-3.59-9.6-7.67-13.77-12.23-4.17-4.56-6.26-9.79-6.26-15.69,0-6.67,1.93-12.87,5.78-18.58,3.85-5.71,8.86-10.72,15.02-15.02,6.16-4.3,12.74-7.64,19.74-10.01,7-2.37,13.64-3.56,19.93-3.56,4.49,0,8.67.74,12.52,2.21,3.85,1.48,6.93,3.88,9.24,7.22,2.31,3.34,3.47,7.83,3.47,13.48,0,.9-.03,1.8-.1,2.7-.07.9-.16,1.8-.29,2.7-.13.9-.29,1.83-.48,2.79-.19.96-.35,1.96-.48,2.98l-27.92,8.09c.26-1.03.48-2.05.67-3.08.19-1.03.29-2.05.29-3.08,0-3.85-.67-6.64-2.02-8.38-1.35-1.73-3.11-2.6-5.3-2.6-1.16,0-2.83.61-5.01,1.83-2.18,1.22-4.14,2.89-5.87,5.01-1.73,2.12-2.6,4.46-2.6,7.03,0,4.24,1.76,7.74,5.3,10.49,3.53,2.76,7.61,5.55,12.23,8.38,2.18,1.28,4.62,3.31,7.32,6.07,2.7,2.76,5.04,6.48,7.03,11.17,1.99,4.69,2.98,10.69,2.98,18,0,9.5-2.34,17.85-7.03,25.03-4.69,7.19-11.01,12.81-18.97,16.85-7.96,4.04-16.75,6.07-26.38,6.07Z"/>
      </g>
    </g>
  </g>
</svg>