<?xml version="1.0" encoding="UTF-8"?>
<svg id="Capa_1" data-name="Capa 1" xmlns="http://www.w3.org/2000/svg" viewBox="0 0 1080 1080">
  <defs>
    <style>
      .cls-1 {
        fill: #bedd42;
      }

      .cls-1, .cls-2, .cls-3 {
        stroke-width: 0px;
      }

      .cls-2 {
        fill: #193840;
      }

      .cls-3 {
        fill: #42b3c9;
      }
    </style>
  </defs>
  <g>
    <path class="cls-1" d="m945.72,62.86c4.7,0,8.76,2.99,11.41,8.75,3.88,8.42,3.05,16.83-.41,25.21-8.99,21.78-17.91,43.65-27.06,65.39-6.89,16.38-10.19,33.46-11.26,51.08-.33,5.2-.62,10.4-1.16,15.55-1.98,19.72,1.2,38.7,6.81,57.6,7.55,25.46,11.1,51.57,10.4,78.22-.45,17,1.03,33.5,8.54,49.34,6.31,13.33,7.8,27.85,6.06,42.58-.12,1.07-.54,2.35-.12,3.22,5.2,10.19,2.31,20.75,1.9,31.23-.21,5.12.5,10.6,4.41,13.86,10.31,8.5,9.86,19.47,8.38,30.9-.41,3.22-1.03,6.44-1.9,9.53-3.09,11.51-2.85,22.61-.12,34.45,4.25,18.44,1.36,37.3-7.8,53.59-11.26,20.09-9.41,38.37,1.9,56.89,6.52,10.69,6.27,22.28,5.28,34-.37,4.54-.74,9.08-1.28,13.57-.87,7.55.95,14.4,6.19,19.8,14.15,14.61,16.92,31.48,11.22,50.46-1.24,4.13-1.82,8.46-2.43,12.75-1.32,9.65-1.16,19.39,4.83,27.52,12.91,17.53,19.27,36.93,19.68,58.63.12,5.73,1.98,11.47,3.3,17.16,1.86,7.92-.16,13.41-6.19,15.72-1.76.68-3.39,1.03-4.91,1.03-4.26,0-7.64-2.74-10.69-8.5-.91-1.73-1.73-3.47-2.6-5.16-.2-.06-.39-.08-.56-.08-1.07,0-1.42,1.04-1.92,1.61-2.19,2.49-4.77,3.54-7.51,3.54-1.44,0-2.92-.29-4.42-.82-4.33-1.49-6.06-5.24-6.56-9.65-.91-8.09.62-16.05,1.73-23.93,1.2-8.46-1.28-14.28-9.04-17.95-19.47-9.2-26.73-24.88-24.09-45.67.91-6.89-.45-11.59-7.84-14.65-7.8-3.22-11.3-10.48-11.68-18.9-.62-14.65,2.23-28.88,6.23-42.83,2.27-7.92,1.32-14.15-3.88-20.46-20.26-24.47-30.57-52.48-29.46-84.41.16-4.74-.08-9.53.21-14.32.91-15.51-.83-30.32-6.31-45.18-6.19-16.83-6.11-34.82-4.46-52.64.12-1.28.21-2.68.74-3.8,7.26-15.84,9.04-33.46,15.84-49.34,6.11-14.32,3.71-26.07-8.21-35.98-1.32-1.11-2.35-2.6-3.71-3.63-9.37-7.14-12.01-17.04-11.92-28.14.04-7.14,0-14.28-.54-21.5-3.84,7.1-4.37,15.02-5.94,22.61-1.94,9.32-3.14,18.77-4.7,28.14-1.32,7.8-1.57,15.6.54,23.23,6.81,24.84-1.4,46.46-14.15,67.08-3.51,5.69-7.76,11.02-12.17,16.05-7.84,8.91-11.18,19.27-11.47,30.94-.25,11.47-.99,22.94-1.11,34.41-.08,9.78-2.35,18.98-7.18,27.35-12.25,21.29-17.45,44.06-15.72,68.57.41,6.02-.21,12.13-.62,18.15-.5,7.01-3.59,12.71-10.4,15.18-2.18.79-4.31,1.18-6.37,1.18-4.69,0-9.04-1.98-12.86-5.59-8.42-8-11.8-18.52-13.53-29.54-1.28-8.13-2.31-16.34-2.48-24.55-.12-7.22-3.71-11.55-10.07-12.13-18.52-1.69-26.57-16.71-25.04-34.08,1.36-15.55-.08-30.2-3.14-45.71-3.71-19.1-8.21-37.3-16.38-54.87-5.98-12.91-5.82-27.44-8-41.3-.58-3.63-1.24-7.26-1.73-10.89-1.2-8.46-5.12-14.94-12.75-19.23-6.11-3.47-10.19-8.54-11.51-15.72-.95-5.28-3.88-9.32-8.09-12.87-9.78-8.21-15.51-18.4-14.44-31.77.87-11.02,1.28-22.07,1.65-33.09.12-3.34.66-6.93-1.65-10.06.07-.03.14-.06.2-.09l-.21.08s0,0,0,0c-3.31,1.44-4.64,4.39-5.69,7.34-6.64,19.23-12.5,38.7-15.76,58.83-1.65,10.19.04,20.38,2.85,30.2,4.91,17.25,5.36,34.37.95,51.9-5.82,23.15-8,46.87-10.64,70.55-1.2,10.69-3.92,21.25-6.35,31.81-3.96,17.2-3.26,34.45-.83,51.65,1.98,14.11-1.98,25.62-13.24,34.53-14.07,11.18-19.72,27.02-23.72,43.61-2.68,11.06,2.6,21.33,4.46,31.89,3.8,21.62,3.63,42.29-6.77,62.59-6.48,12.71-8.25,27.27-10.6,41.34-1.65,9.74-6.11,18.07-11.76,25.7-2.1,2.82-4.97,4.15-7.96,4.15-4.35,0-8.94-2.8-11.8-7.86-4-7.01-4.41-14.94-4.83-22.65-.99-17.78.33-35.52,1.77-53.22.33-4.17.87-8.5-.99-12.17-7.34-14.28-5.78-28.63-2.19-43.53,4.62-19.18,3.75-38.2-4.13-56.65-8.95-21.04-9.94-42.83-5.28-64.94,2.43-11.59,9.04-21.33,16.63-29.79,25.04-27.89,26.73-60.9,21.7-95.26-3.75-25.83-7.18-51.53-1.73-77.44,1.4-6.77,3.14-13.53,5.61-19.97,12.29-32.26,19.31-65.97,27.56-99.35,2.68-10.89.95-22.44,3.22-33.54,2.72-13.33,7.8-25.62,14.94-37.13,1.61-2.6,3.8-4.58,6.72-5.86,1.59-.68,3.12-1,4.54-1,4.53,0,7.87,3.29,7.87,8.88,0,4.66-.87,9.28-1.53,15.55,3.83-4.89,6.83-10.27,11.85-10.27,1.47,0,3.1.46,4.99,1.52,6.68,3.8,4.33,11.76,7.22,17.74,3.09-1.61,3.22-4.5,3.51-7.1,1.61-15.27,8.09-28.1,18.85-38.95,7.8-7.88,9.94-18.28,10.69-28.63.91-11.92,5.16-22.32,11.59-31.97,5.9-8.83,12.25-17.37,18.65-25.83,3.65-4.79,7.29-6.98,11.45-6.98,1.54,0,3.14.3,4.85.88,6.72,2.27,11.35,8.42,11.39,15.8.04,11.72-4.21,22.49-7.76,33.34-5.73,17.45-13.16,34.37-15.39,52.85-.58,4.74-1.16,9.45-1.65,14.19-.99,9.78.83,17.91,9.65,24.42,10.81,7.96,10.15,20.3,9.2,32.14-.54,6.89-1.24,13.82-1.9,20.71-.87,8.91.25,17.08,6.68,24.18,4.54,4.99,5.69,11.63,5.78,18.24.04,5.4-.25,10.81-.7,16.21-.5,6.06-.16,11.14,6.15,14.85,5.98,3.51,8.25,9.86,8.17,16.75-.12,9.12.25,18.28-.7,27.27-2.35,22.24,1.82,44.06,3.51,66.05.5,6.48,1.24,12.91,2.06,19.39.41,3.22.41,6.81,1.98,9.45,5.4,9.12,7.47,18.73,6.15,29.33,5.57-10.52,7.01-21.95,8.87-33.34,4.46-27.11.16-54.63,3.84-81.69,2.93-21.45,8.25-42.41,16.71-62.46,3.84-9.16,10.85-16.13,17.49-23.27,7.59-8.17,12.58-17.49,14.03-28.67.49-3.84,1.28-7.76,2.68-11.35,11.51-29.58,12.46-61.89,24.09-91.43,3.67-9.37,7.55-18.4,13.82-26.28,2.31-2.89,4.21-6.06,6.64-8.83,16.05-18.44,23.27-40.27,24.38-64.32.62-12.87,5.2-23.72,14.11-33.25,10.52-11.22,19.93-23.35,25.66-38.04,2.68-6.89,7.63-12.58,13.86-16.87,3.06-2.11,6.04-3.14,8.81-3.14m0-9c-4.68,0-9.37,1.59-13.92,4.73-8,5.51-13.93,12.78-17.14,21.02-4.5,11.52-11.85,22.36-23.84,35.15-10.4,11.12-15.81,23.87-16.53,38.98-1.1,23.71-8.35,42.95-22.18,58.84-1.69,1.93-3.07,3.86-4.39,5.74-.86,1.21-1.67,2.36-2.49,3.38-7.19,9.03-11.44,19.09-15.17,28.62-6.14,15.58-9.42,31.79-12.59,47.47-3.12,15.42-6.07,29.99-11.51,43.98-1.49,3.81-2.54,8.22-3.22,13.46-1.12,8.69-4.95,16.44-11.69,23.7-.6.64-1.2,1.28-1.8,1.93-6.53,6.97-13.29,14.17-17.4,23.99-8.33,19.74-14.16,41.52-17.33,64.72-1.84,13.53-1.77,27.07-1.72,40.17.06,12.39.11,24.19-1.31,35.86-.66-5.16-1.46-11.88-1.98-18.64-.48-6.2-1.15-12.41-1.8-18.42-1.72-15.86-3.34-30.84-1.73-46,.74-7.02.73-14,.72-20.76,0-2.42,0-4.91.03-7.34.13-11.05-4.35-19.79-12.62-24.64-1.64-.97-2.14-1.26-1.73-6.36.53-6.32.77-11.89.73-17.02-.08-6.68-1.02-16.41-8.12-24.22-3.89-4.29-5.16-9.29-4.39-17.25l.37-3.88c.54-5.57,1.1-11.32,1.54-17.01.92-11.5,2.32-28.92-12.84-40.08-5.28-3.9-6.86-8.16-6.04-16.27.46-4.39.98-8.7,1.54-13.26l.09-.75c1.56-12.95,5.9-25.16,10.49-38.09,1.51-4.25,3.07-8.64,4.51-13.04.48-1.47.97-2.93,1.46-4.39,3.34-9.92,6.79-20.19,6.75-31.79-.06-11.2-6.94-20.73-17.51-24.3-2.63-.89-5.24-1.35-7.72-1.35-7.03,0-13.29,3.54-18.61,10.53-5.88,7.77-12.66,16.83-18.97,26.28-7.84,11.76-12.12,23.63-13.08,36.29-.8,11.19-3.23,18.05-8.11,22.99-8.12,8.18-14.01,17.38-17.61,27.5-.36-.24-.74-.47-1.13-.69-3.18-1.79-6.34-2.69-9.43-2.69-.56,0-1.1.03-1.62.08-1.45-8.44-7.98-14.25-16.57-14.25-2.69,0-5.41.58-8.09,1.73-.02,0-.04.02-.06.02-4.52,1.98-8.15,5.13-10.78,9.37-7.83,12.63-13.25,26.11-16.1,40.07-1.23,6.02-1.42,11.87-1.6,17.52-.18,5.59-.35,10.87-1.53,15.67-1.57,6.35-3.12,12.81-4.62,19.06-6.32,26.36-12.86,53.63-22.61,79.23-2.35,6.1-4.26,12.89-6.01,21.35-5.95,28.33-1.92,56.08,1.64,80.56,5.85,39.93.02,66.23-19.49,87.96-10.34,11.52-16.29,22.31-18.74,33.95-5.3,25.14-3.35,48.8,5.81,70.31,6.77,15.84,8,33,3.66,51.02-3.57,14.82-6.02,32.32,2.91,49.71.56,1.13.33,3.93.12,6.4l-.08.99c-1.57,19.2-2.78,36.56-1.79,54.43v.05c.45,8.3.95,17.72,6,26.56,4.32,7.64,11.84,12.4,19.62,12.4,5.97,0,11.5-2.83,15.18-7.78,7.33-9.9,11.72-19.57,13.41-29.57.28-1.67.55-3.33.82-4.99,1.98-12.24,3.85-23.8,8.93-33.77,10.09-19.7,12.44-40.74,7.61-68.23-.63-3.59-1.57-6.99-2.47-10.29-1.84-6.68-3.43-12.45-2.1-17.93,3.46-14.36,8.35-28.97,20.58-38.68,13.47-10.66,19.05-25.07,16.56-42.83-2.72-19.2-2.5-34.57.68-48.38.38-1.64.76-3.29,1.15-4.93,2.12-9.02,4.31-18.35,5.38-27.9.29-2.62.58-5.25.87-7.87,2.23-20.4,4.54-41.5,9.56-61.49,4.76-18.92,4.43-37.42-1.02-56.56-3-10.48-3.83-18.84-2.62-26.3.98-6.02,2.2-11.98,3.57-17.78.94,12.18,6.86,22.92,17.65,31.98,2.98,2.51,4.53,4.85,5.02,7.57,1.74,9.45,7.24,17.03,15.93,21.95,4.89,2.75,7.43,6.65,8.28,12.66.34,2.51.76,5.04,1.17,7.49.2,1.19.4,2.37.58,3.56.57,3.62.97,7.3,1.4,11.19,1.17,10.72,2.38,21.8,7.33,32.48,8.23,17.7,12.41,35.84,15.71,52.81,3.25,16.51,4.18,29.83,3,43.21-2.13,24.21,11.21,41.82,33.19,43.83,1.14.1,1.83.17,1.89,3.32.19,9.53,1.48,18.79,2.58,25.79,1.53,9.71,4.87,23.87,16.22,34.66,5.58,5.28,12.16,8.07,19.06,8.07,3.14,0,6.32-.58,9.45-1.72,9.71-3.53,15.5-11.7,16.3-23.01.07-.98.14-1.95.21-2.92.39-5.31.8-10.8.41-16.48-1.62-22.9,3.14-43.65,14.54-63.47,5.46-9.47,8.28-20.16,8.38-31.77.07-6.22.33-12.63.58-18.83.21-5.05.42-10.28.53-15.47.26-10.31,3.19-18.33,9.23-25.19,5.59-6.37,9.74-11.86,13.08-17.27,11.45-18.52,23.52-43.7,15.17-74.18-1.53-5.55-1.64-11.69-.34-19.35.22-1.29.42-2.57.63-3.86,2.21,3.14,4.92,5.94,8.15,8.4.16.13.57.58.87.9.65.7,1.46,1.58,2.49,2.45.02.02.04.03.05.05,8.69,7.22,10.34,14.61,5.68,25.52-3.52,8.22-5.75,16.7-7.91,24.91-2.25,8.56-4.37,16.64-7.81,24.16-1.14,2.43-1.36,4.8-1.51,6.38l-.03.35c-1.58,17.05-2.22,37.07,4.97,56.62,4.77,12.91,6.66,26.49,5.78,41.55-.18,2.97-.17,5.87-.16,8.66,0,2.04.01,3.97-.05,5.87-1.16,33.36,9.44,63.8,31.52,90.47,3.14,3.81,3.69,6.91,2.16,12.25-5.12,17.85-7.15,31.94-6.57,45.68.56,12.77,6.84,22.55,17.23,26.84,1.69.7,2.26,1.27,2.33,1.43.04.09.38.91.01,3.72-3.23,25.44,6.86,44.44,29.17,54.98,3.42,1.62,4.73,3.17,3.97,8.55-.15,1.09-.31,2.17-.48,3.26-1.08,7.28-2.2,14.81-1.29,22.93,1.3,11.61,8.42,15.73,12.56,17.16,2.49.87,4.96,1.31,7.36,1.31s4.61-.41,6.7-1.22c4.4,6.52,9.96,9.81,16.57,9.81,2.6,0,5.35-.55,8.15-1.63,10.24-3.93,14.63-13.71,11.71-26.17-.32-1.39-.68-2.79-1.02-4.14-1.01-4.01-1.97-7.79-2.05-11.16-.46-23.94-7.47-44.81-21.43-63.77-3.56-4.83-4.5-11.1-3.16-20.95l.11-.78c.55-3.8,1.06-7.4,2.03-10.61,6.92-23.05,2.41-43.01-13.38-59.31-3.1-3.19-4.31-7.29-3.71-12.51.55-4.62.93-9.31,1.31-13.84,1.03-12.18,1.46-26.29-6.57-39.44-10.28-16.85-10.82-31.6-1.73-47.81,10.31-18.34,13.41-39.66,8.72-60.02-2.53-10.99-2.52-20.54.03-30.05.94-3.36,1.66-6.98,2.15-10.77,1.29-9.94,3.46-26.6-11.58-38.99-.64-.54-1.31-2.56-1.15-6.55.09-2.22.3-4.49.53-6.9.77-8.12,1.63-17.25-2.39-26.62.01-.08.02-.17.03-.26,2.06-17.51-.25-33.49-6.87-47.46-5.82-12.27-8.18-26.23-7.68-45.25.72-27.26-2.9-54.52-10.77-81.02-6.08-20.46-8.14-37.66-6.48-54.14.48-4.58.77-9.21,1.04-13.68l.14-2.2c1.1-18.11,4.56-33.86,10.58-48.16,6.6-15.67,13.18-31.65,19.53-47.11,2.52-6.12,5.03-12.23,7.55-18.34,4.77-11.53,4.86-22.44.27-32.41-4.08-8.89-11.22-13.99-19.58-13.99h0Z"/>
    <path class="cls-2" d="m631.64,369.95c-3.47,1.4-4.83,4.41-5.9,7.43-6.64,19.23-12.5,38.7-15.76,58.83-1.65,10.19.04,20.38,2.85,30.2,4.91,17.25,5.36,34.37.95,51.9-5.82,23.15-8,46.87-10.64,70.55-1.2,10.69-3.92,21.25-6.35,31.81-3.96,17.2-3.26,34.45-.83,51.65,1.98,14.11-1.98,25.62-13.24,34.53-14.07,11.18-19.72,27.02-23.72,43.61-2.68,11.06,2.6,21.33,4.46,31.89,3.8,21.62,3.63,42.29-6.77,62.59-6.48,12.71-8.25,27.27-10.6,41.34-1.65,9.74-6.11,18.07-11.76,25.7-5.16,6.93-14.94,4.83-19.76-3.71-4-7.01-4.41-14.94-4.83-22.65-.99-17.78.33-35.52,1.77-53.22.33-4.17.87-8.5-.99-12.17-7.34-14.28-5.78-28.63-2.19-43.53,4.62-19.18,3.75-38.2-4.13-56.65-8.95-21.04-9.94-42.83-5.28-64.94,2.43-11.59,9.04-21.33,16.63-29.79,25.04-27.89,26.73-60.9,21.7-95.26-3.75-25.83-7.18-51.53-1.73-77.44,1.4-6.77,3.14-13.53,5.61-19.97,12.29-32.26,19.31-65.97,27.56-99.35,2.68-10.89.95-22.44,3.22-33.54,2.72-13.33,7.8-25.62,14.94-37.13,1.61-2.6,3.8-4.58,6.73-5.86,6.64-2.85,12.42.54,12.42,7.88,0,4.66-.87,9.28-1.53,15.55,4.95-6.31,8.5-13.45,16.83-8.75,6.68,3.8,4.33,11.76,7.22,17.74,3.09-1.61,3.22-4.5,3.51-7.1,1.61-15.27,8.09-28.1,18.85-38.95,7.8-7.88,9.94-18.28,10.69-28.63.91-11.92,5.16-22.32,11.59-31.97,5.9-8.83,12.25-17.37,18.65-25.83,4.99-6.56,9.98-8.25,16.3-6.11,6.73,2.27,11.35,8.42,11.39,15.8.04,11.72-4.21,22.49-7.76,33.34-5.73,17.45-13.16,34.37-15.39,52.85-.58,4.74-1.16,9.45-1.65,14.19-.99,9.78.83,17.91,9.65,24.42,10.81,7.96,10.15,20.3,9.2,32.14-.54,6.89-1.24,13.82-1.9,20.71-.87,8.91.25,17.08,6.68,24.18,4.54,4.99,5.69,11.63,5.78,18.24.04,5.4-.25,10.81-.7,16.21-.5,6.06-.16,11.14,6.15,14.85,5.98,3.51,8.25,9.86,8.17,16.75-.12,9.12.25,18.28-.7,27.27-2.35,22.24,1.82,44.06,3.51,66.05.5,6.48,1.24,12.91,2.06,19.39.41,3.22.41,6.81,1.98,9.45,5.4,9.12,7.47,18.73,6.15,29.33,5.57-10.52,7.01-21.95,8.87-33.34,4.46-27.11.16-54.63,3.84-81.69,2.93-21.45,8.25-42.41,16.71-62.46,3.84-9.16,10.85-16.13,17.49-23.27,7.59-8.17,12.58-17.49,14.03-28.67.5-3.84,1.28-7.76,2.68-11.35,11.51-29.58,12.46-61.89,24.09-91.43,3.67-9.37,7.55-18.4,13.82-26.28,2.31-2.89,4.21-6.06,6.64-8.83,16.05-18.44,23.27-40.27,24.38-64.32.62-12.87,5.2-23.72,14.11-33.25,10.52-11.22,19.93-23.35,25.66-38.04,2.68-6.89,7.63-12.58,13.86-16.87,8.25-5.69,16.01-3.55,20.22,5.61,3.88,8.42,3.05,16.83-.41,25.21-8.99,21.78-17.91,43.65-27.06,65.39-6.89,16.38-10.19,33.46-11.26,51.08-.33,5.2-.62,10.4-1.16,15.55-1.98,19.72,1.2,38.7,6.81,57.6,7.55,25.46,11.1,51.57,10.4,78.22-.45,17,1.03,33.5,8.54,49.34,6.31,13.33,7.8,27.85,6.06,42.58-.12,1.07-.54,2.35-.12,3.22,5.2,10.19,2.31,20.75,1.9,31.23-.21,5.12.5,10.6,4.41,13.86,10.31,8.5,9.86,19.47,8.38,30.9-.41,3.22-1.03,6.44-1.9,9.53-3.09,11.51-2.85,22.61-.12,34.45,4.25,18.44,1.36,37.3-7.8,53.59-11.26,20.09-9.41,38.37,1.9,56.89,6.52,10.69,6.27,22.28,5.28,34-.37,4.54-.74,9.08-1.28,13.57-.87,7.55.95,14.4,6.19,19.8,14.15,14.61,16.92,31.48,11.22,50.46-1.24,4.13-1.82,8.46-2.43,12.75-1.32,9.65-1.16,19.39,4.83,27.52,12.91,17.53,19.27,36.93,19.68,58.63.12,5.73,1.98,11.47,3.3,17.16,1.86,7.92-.16,13.41-6.19,15.72-6.73,2.6-11.47.33-15.6-7.47-.91-1.73-1.73-3.47-2.6-5.16-1.53-.41-1.9.87-2.48,1.53-3.34,3.8-7.59,4.25-11.92,2.72-4.33-1.49-6.06-5.24-6.56-9.65-.91-8.09.62-16.05,1.73-23.93,1.2-8.46-1.28-14.28-9.04-17.95-19.47-9.2-26.73-24.88-24.09-45.67.91-6.89-.45-11.59-7.84-14.65-7.8-3.22-11.3-10.48-11.68-18.9-.62-14.65,2.23-28.88,6.23-42.83,2.27-7.92,1.32-14.15-3.88-20.46-20.26-24.47-30.57-52.48-29.46-84.41.16-4.74-.08-9.53.21-14.32.91-15.51-.83-30.32-6.31-45.18-6.19-16.83-6.11-34.82-4.46-52.64.12-1.28.21-2.68.74-3.8,7.26-15.84,9.04-33.46,15.84-49.34,6.11-14.32,3.71-26.07-8.21-35.98-1.32-1.11-2.35-2.6-3.71-3.63-9.37-7.14-12.01-17.04-11.92-28.14.04-7.14,0-14.28-.54-21.5-3.84,7.1-4.37,15.02-5.94,22.61-1.94,9.32-3.14,18.77-4.7,28.14-1.32,7.8-1.57,15.6.54,23.23,6.81,24.84-1.4,46.46-14.15,67.08-3.51,5.69-7.76,11.02-12.17,16.05-7.84,8.91-11.18,19.27-11.47,30.94-.25,11.47-.99,22.94-1.11,34.41-.08,9.78-2.35,18.98-7.18,27.35-12.25,21.29-17.45,44.06-15.72,68.57.41,6.02-.21,12.13-.62,18.15-.5,7.01-3.59,12.71-10.4,15.18-7.14,2.6-13.74.78-19.23-4.41-8.42-8-11.8-18.52-13.53-29.54-1.28-8.13-2.31-16.34-2.48-24.55-.12-7.22-3.71-11.55-10.07-12.13-18.52-1.69-26.57-16.71-25.04-34.08,1.36-15.55-.08-30.2-3.14-45.71-3.71-19.1-8.21-37.3-16.38-54.87-5.98-12.91-5.82-27.44-8-41.3-.58-3.63-1.24-7.26-1.73-10.89-1.2-8.46-5.12-14.94-12.75-19.23-6.11-3.47-10.19-8.54-11.51-15.72-.95-5.28-3.88-9.32-8.09-12.87-9.78-8.21-15.51-18.4-14.44-31.77.87-11.02,1.28-22.07,1.65-33.09.12-3.34.66-6.93-1.65-10.07l.21-.08Z"/>
    <path class="cls-3" d="m967.18,923.41c-1.4-10.81.62-19.35,1.61-27.85,1.03-8.91-1.44-15.72-8.95-20.67-4.7-3.09-9.37-6.31-14.07-9.41-7.1-4.7-10.44-11.3-10.31-19.76.08-6.73-.25-13.45.08-20.13.25-5.32-1.98-9.32-6.56-10.85-14.44-4.83-14.48-14.07-12.46-27.52,1.61-10.6,3.09-21.33,6.48-31.73,2.93-8.95-.58-17.12-6.64-23.97-15.1-17.12-23.06-37.5-26.86-59.58-1.98-11.35-.95-22.94-.21-34.37.87-13.95.58-27.64-4.99-40.84-7.34-17.49-6.68-35.98-6.11-54.42.04-1.69.62-3.42,1.28-4.99,7.76-17.49,10.27-36.64,17.16-54.38,4.83-12.38,1.07-22.86-7.3-32.26-1.73-1.94-3.34-4.08-5.45-5.57-10.93-7.76-13.45-18.94-13.33-31.36.08-8.87,0-17.78-.12-26.65-.04-3.47-.16-7.3-4.58-8.25-4.08-.91-6.52,1.9-8.42,4.87-5.07,8-7.26,17.08-9.2,26.2-2.27,10.56-4.29,21.21-6.02,31.85-1.9,11.8-2.6,23.56.5,35.4,5.28,20.17-2.27,37.96-12.01,54.91-3.42,5.98-7.8,11.51-12.42,16.67-10.27,11.47-14.07,25-14.36,39.98-.21,11.26-.08,22.53-1.03,33.79-.62,7.26-1.98,14.15-5.61,20.42-13.61,23.6-19.14,48.97-17.16,76.12.37,4.95-.04,9.94-.54,14.89-.33,3.26-1.32,6.6-5.07,7.59-3.67.99-6.89-.41-9.45-3.05-6.93-7.01-9.24-16.01-10.64-25.29-1.16-7.72-1.69-15.47-2.48-23.23-1.2-11.72-5.57-17.99-17.04-19.64-14.11-2.02-17.58-9.78-18.07-23.93-.08-2.35.33-4.74.74-7.1,2.27-12.79,2.68-25.33-3.51-37.38-1.24-2.39-1.57-5.45-1.53-8.21.12-12.17-2.15-23.97-7.84-34.49-10.11-18.61-13.12-38.74-15.55-59.2-.62-5.12-1.86-10.19-2.89-15.27-1.77-8.75-7.63-14.4-14.85-18.81-4.54-2.76-7.22-6.44-8.33-11.72-1.24-5.82-3.88-11.14-8.83-14.77-12.13-8.91-14.77-20.96-12.83-35.11,1.53-11.14,2.19-22.4.95-33.67-.25-2.35-.66-4.74-1.49-6.93-3.09-8.09-10.31-9.45-16.3-3.14-3.8,4.04-5.98,9.04-7.67,14.19-6.31,19.56-12.42,39.15-15.76,59.49-1.65,10.19-.83,20.42,2.19,30.2,6.06,19.89,5.32,39.48.12,59.45-5.57,21.41-6.52,43.57-9.45,65.43-1.57,11.76-4.17,23.43-6.81,34.99-3.59,15.51-2.68,31.07-.29,46.5,1.9,12.34-1.36,21.5-10.85,29.91-17.91,15.93-26.65,36.6-26.16,60.57.21,9.86,4.29,19.31,5.82,29.17,2.56,16.5,1.61,32.1-5.9,47.4-7.43,15.1-9.57,31.81-12.91,48.11-1.36,6.73-4.79,12.46-8.05,18.32-1.73,3.09-3.75,2.35-5.49-.04-2.39-3.26-2.97-7.18-3.42-11.02-2.15-18.19-.62-36.35.66-54.46.66-9.16,1.07-18.11-3.01-26.73-4.13-8.62-3.63-17.53-1.32-26.61,6.48-25.54,4.08-50.05-5.07-75.05-9.86-26.94-9.04-53.92,10.4-77.85,9.94-12.25,19.84-24.51,23.15-40.8,4.91-24.05,5.32-47.9.7-72.12-5.53-29.09-5.53-58.05,5.4-86.31,12.34-31.97,18.81-65.64,27.4-98.73,2.72-10.56.62-21.58,2.72-32.3,2.52-12.91,7.72-24.59,15.1-36.93.91,3.26.5,5.16-.04,7.14-.5,1.86-.74,3.84-1.24,5.69-1.24,4.91-1.32,9.94-.58,14.85.87,5.57,5.45,7.14,9.28,3.01,4.54-4.87,8.38-10.36,13.12-16.38,1.24,5.45,2.1,9.94,3.34,14.4,1.07,3.88,3.01,7.47,7.63,7.8,4.54.29,7.06-2.89,8.91-6.48,2.93-5.61,4.33-11.8,5.49-17.95,1.86-9.65,5.9-18.36,12.83-25.08,10.36-10.03,14.56-22.53,15.76-36.06.87-9.82,3.63-18.73,8.95-26.73,6.11-9.2,12.75-18.03,19.23-26.98,1.49-2.06,2.81-4.5,6.23-2.85,2.97,1.4,5.16,3.05,5.2,6.68.12,6.64-2.02,12.79-3.75,19.02-4.87,17.49-12.91,34.04-16.67,51.86-2.97,14.19-5.78,28.39-3.75,43.07.74,5.28,2.85,9.94,7.06,12.71,11.88,7.88,12.34,19.06,11.06,31.6-1.2,11.55-3.47,23.19-.87,34.9.66,3.05,1.49,6.02,3.59,8.21,8.95,9.28,8.87,20.67,7.76,32.3-.25,2.6-.33,5.2-.66,7.76-.95,6.97.87,12.17,7.88,15.27,4.7,2.1,6.89,6.31,6.64,11.68-.54,12.75-1.03,25.54-1.36,38.33-.58,23.27,4.04,46.08,5.57,69.19.62,9.57,2.35,18.85,7.84,27.11,1.69,2.56.78,5.94.74,8.95-.04,3.67-.37,7.39-.33,11.06.08,4.21,1.69,7.88,6.06,8.99,4.41,1.11,8.09-.66,10.52-4.62,5.49-9.08,7.88-19.23,9.53-29.46,3.01-18.81,4.99-37.79,3.96-56.89-1.57-29.87,4.74-58.5,13.7-86.68,3.05-9.7,8.62-17.91,15.72-25.13,10.89-11.1,18.9-23.56,20.55-39.52.45-4.46,1.9-8.95,3.55-13.12,10.48-26.28,10.97-55.08,20.92-81.52,4.29-11.43,8.46-22.77,16.75-31.97,20.79-23.15,29.83-50.79,31.23-81.36.37-8.21,4.83-14.19,9.9-19.93,11.22-12.71,22.07-25.62,28.14-41.79,1.77-4.74,5.36-8.38,9.16-11.68,4.13-3.59,6.64-2.97,8.75,2.06,2.35,5.65.95,11.1-1.2,16.38-9.7,23.6-19.56,47.16-29.17,70.84-5.82,14.36-8.25,29.54-9.61,44.89-.66,7.1-.7,14.28-1.44,21.37-2.15,21.08,2.19,41.26,7.96,61.35,6.81,23.64,10.07,47.82,9.24,72.49-.62,18.57,1.44,36.51,9.65,53.68,5.78,12.09,6.81,25.41,5.2,38.82-.25,1.9-.62,4.21.16,5.73,4.04,7.63,2.64,15.43,1.77,23.43-1.2,11.3,1.69,21.21,10.36,29.46,5.73,5.49,2.6,13.16,2.15,19.8-.37,5.32-1.98,10.6-3.18,15.88-1.98,8.58-1.73,16.92.62,25.58,4.62,16.92,1.57,33.46-4.41,49.59-.62,1.61-1.2,3.3-2.1,4.74-13.12,20.51-10.52,40.93,1.07,60.73,6.48,11.1,7.14,22.57,5.16,34.49-2.64,16.05-.58,30.57,11.39,42.66,8.29,8.38,9.04,18.81,7.01,29.71-1.61,8.71-3.92,17.25-4.7,26.16-1.03,11.76,2.31,22.16,8.5,32.02,6.06,9.65,13.66,18.9,14.32,30.86.78,13.45,2.68,26.65,5.86,39.73.33,1.36.91,3.3-.99,3.92-1.86.58-2.48-1.28-3.22-2.56-1.9-3.18-3.05-6.64-3.96-10.23-.74-2.89-1.65-6.15-5.2-6.85-3.71-.7-6.02,1.9-8.09,4.46-1.61,1.94-2.89,4.13-5.36,7.67l.04-.25Z"/>
  </g>
  <g>
    <path class="cls-1" d="m293.34,119.84c11.34,0,22.78,3.14,33.96,8.85,22.07,11.35,45.47,20.55,65.6,35.56,3.1,2.33,6.44,2.94,9.88,2.94,3.2,0,6.47-.53,9.68-.71,3.22-.21,6.48-.83,9.7-.83,8.37,0,13.61,3.71,15.68,11.84,1.4,5.61,2.15,11.47,2.56,17.29.34,4.47,2.51,6.13,5.69,6.13.7,0,1.45-.08,2.23-.23,3.59-.66,7.01-2.15,10.48-3.34,3.42-1.2,6.89-1.76,10.32-1.75,16.44,0,31.68,12.89,32.84,30.31.33,4.74.04,9.53.04,14.27h.5c-.62,8.42-1.11,16.83-1.9,25.25-.45,4.79,1.07,8.62,4.79,11.43,14.61,11.02,18.03,25.99,13.04,42.33-4.37,14.32-3.59,28.22-1.73,42.41,2.31,17.74-1.82,33.62-13.9,46.99-5.82,6.44-8.83,12.95-7.84,22.16,1.49,13.61-.78,26.53-14.44,34.24-1.94,1.07-1.94,3.18-2.27,5.12-1.9,11.76-4.04,23.52-9.24,34.37-6.48,13.61-14.65,25.79-30.53,29.79-5.4,1.4-11.1,1.82-16.63,2.81-6.02,1.03-10.36,4.29-12.58,10.07-4.54,11.72-12.58,20.01-24.05,25.13-2.23.99-5.4,1.82-4.25,5.4.83,2.77,2.74,4.24,5.64,4.24.26,0,.52-.01.8-.04.54-.04,1.07-.06,1.59-.06,7.15,0,12.42,3.88,16.77,9.3,7.01,8.71,11.51,18.81,16.34,28.76,1.24,2.53,2.09,4.86,4.22,4.86.99,0,2.25-.5,3.95-1.72,1.65-1.18,3.51-1.72,5.43-1.72,4,0,8.24,2.34,11.19,6.13,4.13,5.32,6.89,11.47,9.65,17.62.95,2.11,1.94,4.19,4.22,4.19.58,0,1.24-.13,2.01-.43,4.32-1.69,8.31-2.45,12.05-2.45,11.58,0,20.64,7.29,28.88,16.68,6.93,7.88,11.63,17.29,15.14,27.07,3.71,10.4,9.53,18.44,19.31,24.14,12.17,7.1,19.47,18.19,23.1,31.77,1.4,5.2,3.22,10.31,4.37,15.6,2.19,9.82,8.09,16.05,17.58,19.02,5.2,1.61,9.2,4.83,12.01,9.41,2.64,4.25,5.24,8.54,7.22,13.08,4.74,10.77,12.95,17.7,23.68,21.87,17.95,7.01,28.34,19.97,28.96,39.19.33,10.77,4.7,18.57,12.17,25.41,15.27,14.03,26.86,30.57,34.12,50,5.69,15.39,11.51,30.74,11.51,47.61,0,5.57,2.02,11.06,2.6,16.63v.21c.58,5.69-1.53,10.23-7.26,12.38-1.38.51-2.69.75-3.92.75-3.74,0-6.8-2.16-9.16-5.33-3.84-5.2-7.22-10.77-10.44-16.42-3.26-5.73-7.63-9.94-13.9-12.05-11.63-3.88-19.97-10.85-25.62-22.24-4.66-9.37-12.21-17.33-18.07-26.16-8.21-12.38-15.6-25.04-12.46-41.05.82-4.33-2.6-7.72-6.02-10.15-6.52-4.66-13.08-9.32-20.01-13.37-11.06-6.44-19.14-15.47-24.96-26.69-3.3-6.35-6.64-12.67-9.78-19.1-2.39-4.87-5.78-7.84-11.43-8.25-15.51-1.2-25.17-10.48-31.52-23.81-4.5-9.37-8.58-18.9-13.66-28.01-1.89-3.42-3.99-5.36-6.84-5.36-1.37,0-2.92.45-4.71,1.4-2.85,1.53-5.98,2.52-9.04,3.59-3.58,1.24-6.79,1.88-9.65,1.88-7.71,0-12.91-4.6-16.01-14.38-2.89-9.08-6.35-17.82-10.69-26.36-3.92-7.7-8.35-13.73-17.3-13.73-.93,0-1.92.07-2.95.2-.31.04-.62.06-.93.06-3.34,0-6.32-2.18-8.85-4.59-2.64-2.56-5.36-5.03-8.09-7.51-1.63-1.46-3.21-2.22-4.86-2.22-1.55,0-3.16.67-4.92,2.05-6.3,4.93-11.35,7.46-15.77,7.46-5.95,0-10.77-4.59-15.95-14.1-5.28-9.7-10.89-19.14-17.74-27.89-3.39-4.32-7.21-6.78-11.96-6.78-1.38,0-2.83.21-4.38.63-3.17.88-6.2,1.3-9.09,1.3-9.1,0-16.93-4.14-23.91-11.24-4.87-4.95-9.65-9.98-14.65-14.81-2.25-2.19-4.09-3.27-5.9-3.27-1.94,0-3.84,1.25-6.15,3.73-4,4.29-5.4,9.12-4.04,14.94,1.73,7.47,4.7,14.44,8.29,21.08,4.79,8.87,5.53,17.74.7,26.65-3.22,5.94-2.56,11.18.58,17,8.58,15.88,8.71,32.39-.5,47.74-8.7,14.52-8.79,27.6,2.27,40.47,13.53,15.76,15.68,32.51,7.34,51.82-4.91,11.43-2.35,23.64,4.99,33.91,7.14,9.98,6.93,19.56.54,29.54-3.55,5.53-8,10.31-12.5,14.98-3.88,4-5.69,8.42-4.62,14.11,1.61,8.79,1.61,17.7,1.61,26.57.04,7.22-2.39,13.37-9.32,16.5-1.26.58-2.6.86-3.98.86-4.42,0-9.27-2.87-13.52-7.87-5.32-6.31-8.33-13.66-8.58-21.95-.21-6.31-.5-12.62.12-18.85.7-7.22-2.27-12.01-7.92-15.8-2.68-1.82-5.36-3.67-7.88-5.73-4.5-3.67-6.89-8.62-5.82-14.36,2.31-12.75.95-25.41.37-38.16-.16-4.46-2.02-7.92-4.95-10.93-4.83-4.95-7.84-10.85-9.45-17.49-1.9-7.84-5.69-14.81-9.61-21.87-10.48-18.85-11.06-38.41-1.07-57.6,3.8-7.26,4.99-13.95,2.52-21.7-3.42-10.64-7.96-20.59-15.35-29.09-6.97-8.09-8-16.75-3.59-26.53,9.86-21.78,6.23-43.65-.45-65.31-3.09-9.9-6.64-19.68-10.23-29.42-2.89-7.8-3.55-15.68-1.28-23.6,2.23-7.67.25-13.99-4.83-19.76-3.01-3.42-5.69-7.1-8.58-10.6-7.8-9.53-10.23-20.22-7.55-32.26,1.77-7.88.87-15.47-3.38-22.57-2.93-4.99-4.7-10.23-2.93-16.13.74-2.6.29-5.12-1.24-7.47-4.13-6.52-4.13-13.45-2.02-20.63,2.1-7.3,3.88-14.61,5.16-22.11,1.98-11.43-1.28-21-8.54-29.5-4.66-5.45-9.49-10.73-14.48-15.84-15.68-16.05-19.8-34.95-14.48-56.36,1.9-7.59,3.59-15.18,5.08-22.82,2.48-12.79.21-23.93-11.02-32.35-13.04-9.78-17.16-23.35-15.55-39.11.41-4.21,1.61-8.09,3.71-11.68,2.89-4.9,6.72-7.6,11.14-7.6,2.2,0,4.56.67,7.01,2.07,2.24,1.27,4.2,1.87,5.97,1.87,3.05,0,5.55-1.77,7.98-4.88,9.45-12.13,21.78-20.3,35.69-26.4,4.08-1.8,8.27-2.92,12.45-2.92,2.83,0,5.65.51,8.43,1.68,6.33,2.67,12.34,3.89,18.09,3.89,12.35,0,23.54-5.59,34.26-14.28,10.44-8.46,21.29-16.38,31.93-24.63,12.66-9.79,26-14.21,39.48-14.21m-15.18,160.51s-.02-.02-.03-.02c-.01,0-.01.02-.01.02v.04c-.49.29-.99.62-1.53.99h-.04v.04c-.5.37-.99.78-1.49,1.2h-.04v.04c-.74.62-1.44,1.24-2.19,1.86-.41.37-.78.7-1.2,1.03-.66.62-1.36,1.2-2.02,1.77-1.11.95-2.27,1.9-3.42,2.85h-.04v.04c-.95.78-1.94,1.57-2.93,2.31-1.28.99-2.6,1.94-3.92,2.89,0,0-.02-.02-.03-.02,0,0-.01,0-.01.02v.04c-.78.5-1.57,1.03-2.35,1.53-1.61,1.03-3.26,1.98-4.95,2.89-.02-.02-.03-.03-.04-.03s0,.01,0,.03v.04c-.87.41-1.69.82-2.56,1.2h-.04v.04c-.87.37-1.73.74-2.64,1.07h-.04v.04c-.91.33-1.82.62-2.72.91-.7.21-1.4.41-2.15.58-.45.16-.91.25-1.36.33-1.77.37-3.59.7-5.49.87-1.11.12-2.1.33-2.97.7-.45.17-.87.37-1.2.58h-.04v.04c-.37.25-.66.5-.95.74t-.04.04c-.29.25-.54.54-.7.87-.04,0-.04.04-.04.04-1.32,2.02-1.28,4.99.12,8.62,2.97,7.63,2.64,14.94.99,22.82-1.53,7.34-1.11,14.36,4.62,21.17,11.14,13.12,19.23,27.85,15.55,46.29-.99,5.03.87,9.37,4.46,12.95,10.73,10.69,13.78,24.09,13.9,39.69.29,2.85-1.57,7.1,2.19,10.52.59.54,1.05,1.16,1.6,1.72.19.2.42.38.59.59.1.11.17.23.27.34,1.04,1.15,2.01,2.34,2.88,3.59.2.28.37.57.56.85.83,1.25,1.61,2.53,2.27,3.87.13.25.22.52.35.78,1.41,3,2.52,6.15,3.16,9.51.54,2.72,1.65,4.7,3.18,6.15.52.52,1.1.96,1.73,1.34.03.02.06.04.09.06.63.38,1.31.71,2.02.99,1.16.45,2.43.83,3.71,1.16.94.23,1.85.33,2.73.33,1.36,0,2.66-.25,3.91-.7,2.06-.7,3.96-1.94,5.86-3.38,2.23-1.73,4.5-3.38,6.81-4.91.78-.54,1.57-1.07,2.35-1.57v-.04s.08-.04.08-.04c1.57-1.03,3.14-1.98,4.74-2.89,2.17-1.25,4.38-2.35,6.62-3.39.26-.12.5-.24.77-.36.82-.37,1.65-.74,2.52-1.11,0,0,.04,0,.04-.04,1.69-.7,3.42-1.36,5.16-1.94.62-.21,1.24-.41,1.86-.62,1.29-.38,2.66-.69,4-1.03.12-.03.24-.06.37-.09.85-.21,1.66-.47,2.52-.65.74-.16,1.49-.33,2.27-.45,2.72-.5,4.87-.95,6.56-1.57,1.65-.58,2.81-1.32,3.67-2.31.66-.78,1.16-1.69,1.48-2.89t.04-.08c.04-.16.08-.37.12-.58.21-.7.33-1.53.45-2.43.21-1.44.33-3.09.41-5.07.08-1.73.12-3.47.25-5.2.29-3.42.7-6.77,1.28-10.07.33-1.61.66-3.18,1.07-4.79.04,0,.04-.04.04-.08.16-.74.37-1.53.62-2.27.04-.04.04-.08.04-.08.7-2.35,1.57-4.66,2.56-6.85.33-.78.7-1.53,1.07-2.27,1.9-3.67,4.25-7.18,7.22-10.44,4.21-4.66,8.46-9.24,12.54-14.03v-.04l.04-.04c.45-.54.87-1.03,1.28-1.53l.04-.04c.37-.5.74-.95,1.07-1.4,0,0,.04,0,.04-.04.33-.45.62-.87.91-1.28t.04-.04c.25-.45.5-.83.7-1.24l.04-.04c.21-.41.41-.78.58-1.16,0-.04.04-.04.04-.04.12-.41.25-.78.37-1.16,1.11-3.63-.37-6.97-4.21-12.67-5.82-8.54-7.67-18.03-4.46-27.77,2.06-6.15,1.36-10.4-2.85-14.77-.37-.37-.78-.78-1.24-1.2-1.57-1.44-3.05-2.89-4.54-4.37-5.86-6.06-10.69-12.83-12.05-21.7-.08-.74-.17-1.49-.25-2.27-.12-1.4-.66-2.39-1.4-3.05-1.28-1.16-3.22-1.49-5.32-1.65-10.56-.78-21.08-3.3-28.22-10.4-1.65-1.61-3.09-3.51-4.33-5.65-1.36-2.31-2.81-4.25-4.37-5.86-.5-.5-.99-.99-1.53-1.49h-.04c-6.4-5.78-14.36-7.01-23.35-8.13-1.54-.18-2.99-.29-4.37-.29-2.38,0-4.56.31-6.65,1.07v.04c-.54.21-1.03.41-1.57.62h-.04v.04c-.5.25-.99.54-1.49.82m15.18-169.51h0c-16.04,0-31.18,5.41-44.99,16.1-3.85,2.98-7.79,5.98-11.61,8.87-6.75,5.12-13.73,10.42-20.48,15.88-10.33,8.38-19.41,12.28-28.6,12.28-4.76,0-9.53-1.04-14.59-3.18-3.79-1.59-7.8-2.39-11.93-2.39-5.11,0-10.52,1.24-16.07,3.68-16.86,7.41-29.67,16.93-39.17,29.11-.54.69-.93,1.08-1.18,1.3-.26-.09-.67-.27-1.22-.59-3.77-2.15-7.63-3.24-11.45-3.24-7.61,0-14.32,4.27-18.89,12.03-2.72,4.64-4.37,9.81-4.92,15.37-2.07,20.24,4.36,36.13,19.11,47.19,7.42,5.56,9.68,12.57,7.58,23.44-1.43,7.37-3.11,14.89-4.97,22.34-6.27,25.21-.62,47.02,16.77,64.83,4.83,4.95,9.57,10.14,14.08,15.41,5.86,6.86,7.93,13.89,6.51,22.11-1.13,6.63-2.74,13.54-4.94,21.16-3.07,10.46-2.04,19.87,3.06,27.93.02.03.04.06.06.09.05.08.08.14.11.18-3.22,11.03,2.09,20.08,3.85,23.07.01.02.03.05.04.07,2.89,4.83,3.65,10.06,2.32,15.97-3.31,14.87-.16,28.3,9.36,39.94,1.08,1.31,2.12,2.63,3.21,4.02,1.76,2.24,3.58,4.55,5.58,6.83,3.37,3.83,4.19,7,2.94,11.31-2.71,9.45-2.21,19.28,1.48,29.23,3.41,9.24,7,19.11,10.08,28.98,5.79,18.76,9.9,38.9.85,58.92-5.88,13.03-4.16,25.52,4.97,36.12,5.69,6.55,10,14.79,13.6,25.97,1.58,4.95,1.04,9.1-1.93,14.78-11.26,21.63-10.85,44.5,1.18,66.14,4.13,7.44,7.18,13.21,8.73,19.61,2.05,8.48,6.01,15.77,11.75,21.66,2.02,2.08,2.35,3.63,2.4,4.98,0,.02,0,.05,0,.08.1,2.3.23,4.61.36,6.84.57,10.2,1.12,19.84-.59,29.29-1.6,8.62,1.67,16.99,8.98,22.95,2.87,2.36,5.91,4.44,8.53,6.22,3.76,2.53,4.3,4.5,4.01,7.48-.62,6.29-.42,12.47-.21,18.45l.05,1.56c.3,10.15,3.9,19.4,10.7,27.46,6.07,7.15,13.3,11.07,20.4,11.07,2.7,0,5.29-.56,7.72-1.67,9.45-4.28,14.64-13.06,14.58-24.71,0-9.14,0-18.58-1.76-28.17-.4-2.15-.16-3.75,2.23-6.22,4.69-4.87,9.6-10.13,13.61-16.38,8.52-13.3,8.24-27-.79-39.64-3.46-4.84-8.59-14.55-4.04-25.13,4.82-11.18,6.57-21.96,5.17-32.03-1.42-10.25-6.11-20.07-13.96-29.21-8.1-9.42-8.49-18.11-1.38-29.98,5.38-8.98,8.14-18.48,8.2-28.24.06-9.53-2.47-19.08-7.5-28.4-2.18-4.05-1.93-5.95-.58-8.43,6-11.08,5.76-23.25-.69-35.21-3.63-6.71-6.06-12.87-7.45-18.84-.62-2.67-.22-4.39,1.55-6.42,3.32,3.23,6.62,6.62,9.82,9.9,1.39,1.43,2.78,2.86,4.18,4.28,9.08,9.24,19.28,13.93,30.33,13.93,3.74,0,7.6-.55,11.5-1.62.73-.2,1.4-.31,1.98-.31.73,0,2.26,0,4.88,3.34,6.97,8.9,12.46,18.46,16.92,26.64,4.77,8.75,11.79,18.8,23.86,18.8,6.24,0,12.59-2.7,20.49-8.73,2.39,2.18,4.66,4.25,6.88,6.41.02.01.03.03.05.04,1.83,1.75,7.42,7.09,15.07,7.09.67,0,1.35-.04,2.02-.12.03,0,.06,0,.08-.01.63-.08,1.23-.13,1.78-.13,2.8,0,5.11.63,9.29,8.82,3.92,7.72,7.23,15.91,10.13,25.01,5.41,17.06,16.36,20.65,24.59,20.65,3.88,0,8-.78,12.6-2.37.47-.17.92-.32,1.36-.47,2.59-.9,5.51-1.9,8.37-3.37.01.02.02.04.04.06,3.44,6.18,6.38,12.5,9.49,19.2,1.27,2.74,2.59,5.57,3.93,8.36,8.5,17.82,21.6,27.55,38.94,28.88,1.59.12,2.61.33,4.04,3.25,2.58,5.3,5.33,10.57,7.99,15.68.63,1.2,1.25,2.4,1.88,3.6,6.79,13.09,16.35,23.3,28.42,30.32,6.79,3.96,13.44,8.71,19.3,12.91,1.3.92,1.95,1.58,2.27,1.95-3.37,18.78,5.04,33.47,13.95,46.91,2.35,3.54,4.9,6.88,7.37,10.12,3.91,5.13,7.61,9.97,10.15,15.08,6.6,13.29,16.68,22.05,30.83,26.77,3.76,1.26,6.51,3.72,8.92,7.96,2.77,4.86,6.52,11.21,11.02,17.32,4.32,5.8,10.14,8.98,16.4,8.98,2.34,0,4.71-.44,7.05-1.31,9.1-3.4,13.97-11.33,13.13-21.27,0-.23-.02-.46-.04-.68-.29-2.8-.84-5.39-1.38-7.9-.6-2.83-1.17-5.51-1.17-7.8,0-18.13-5.95-34.2-11.71-49.75l-.36-.98c-7.55-20.21-19.82-38.21-36.47-53.51-6.26-5.74-9.03-11.44-9.26-19.06-.72-22.36-12.71-38.72-34.68-47.3-9.08-3.53-15.2-9.12-18.72-17.11-2.2-5.04-4.94-9.58-7.79-14.17-3.97-6.48-9.85-11.07-17.01-13.29-6.46-2.02-10-5.84-11.45-12.38-.78-3.58-1.82-7-2.82-10.32-.59-1.96-1.15-3.81-1.65-5.67-4.48-16.74-13.65-29.26-27.26-37.2-7.37-4.29-12.11-10.27-15.37-19.39-4.41-12.29-9.92-22.09-16.86-29.98-8.06-9.18-19.4-19.74-35.64-19.74-3.63,0-7.36.55-11.13,1.64-2.62-5.77-5.47-11.65-9.68-17.08-4.7-6.03-11.54-9.62-18.31-9.62-2.32,0-4.57.42-6.67,1.24-.15-.32-.3-.63-.46-.95-4.39-9.14-8.93-18.58-15.8-27.11-4.12-5.14-8.73-8.74-13.76-10.75,8.47-6.04,14.72-14.19,18.65-24.33.86-2.23,2.16-3.84,5.71-4.45.02,0,.05,0,.07-.01,1.86-.33,3.78-.6,5.81-.88,3.72-.52,7.56-1.05,11.47-2.06,19.98-5.05,29.62-20.34,36.42-34.64,5.65-11.79,7.95-24.13,10-36.77,0-.02,0-.04.01-.07,7.09-4.57,12.04-10.75,14.76-18.41,2.34-6.61,3-14.23,2.01-23.32-.63-5.85.88-9.96,5.57-15.14,13.46-14.89,18.9-33.12,16.15-54.19-1.87-14.29-2.34-26.32,1.42-38.62,6.39-20.91.63-39.43-16.23-52.15-.85-.65-1.45-1.27-1.25-3.39.56-6.01.98-12.05,1.38-17.9.17-2.51.35-5.03.53-7.54.09-1.2-.07-2.4-.44-3.52,0-.49.02-.99.03-1.5.07-3.39.13-6.9-.12-10.54-.71-10.61-5.56-20.48-13.65-27.75-7.84-7.05-17.84-10.93-28.16-10.93-4.53,0-9.01.76-13.29,2.26-.91.31-1.84.66-2.78,1-1.35.5-2.66.98-3.9,1.36-.53-5.91-1.38-11.14-2.57-15.9-3.06-12.04-11.72-18.66-24.41-18.66-2.45,0-4.79.27-6.85.51-1.2.14-2.34.27-3.39.34-1.45.08-2.85.22-4.2.35-1.78.18-3.46.34-4.94.34-2.46,0-3.56-.45-4.47-1.14-15.35-11.45-32.36-19.61-48.8-27.49-5.98-2.87-12.17-5.83-18.09-8.88-12.79-6.54-25.59-9.85-38.07-9.85h0Zm-8.49,176.28c.87-.24,1.86-.36,3.05-.36.95,0,2.03.07,3.3.22,8.33,1.03,14.11,2,18.39,5.87.13.11.26.23.39.33.26.25.52.52.8.79,1.04,1.07,2.03,2.41,3.01,4.08,1.65,2.85,3.6,5.39,5.79,7.53,7.46,7.4,18.17,11.61,32.7,12.86,2.02,12.08,9.16,20.64,14.38,26.05.04.04.07.08.11.11,1.77,1.77,3.3,3.24,4.81,4.63.01.01.03.03.04.04.28.25.56.54.87.84,1.37,1.43,1.92,2.07.74,5.6-4.02,12.15-2.09,24.48,5.55,35.7,2.2,3.27,2.81,4.64,2.97,5.18-.01.04-.03.08-.04.12-.02.03-.03.06-.05.1-.1.17-.2.34-.28.52-.04.06-.07.13-.11.19-.04.06-.08.13-.11.19,0,.01-.02.02-.02.04-.15.22-.3.43-.46.66-.08.1-.16.2-.23.31-.13.18-.27.36-.41.54-.12.15-.23.3-.35.45-.36.43-.7.84-1.07,1.28-.21.23-.41.47-.59.72-2.86,3.33-5.88,6.65-8.8,9.87-1.05,1.16-2.1,2.31-3.15,3.48-3.3,3.62-6.18,7.78-8.53,12.34-.02.04-.04.07-.06.11-.4.8-.84,1.69-1.27,2.69-1.08,2.4-2.02,4.9-2.8,7.43-.03.09-.06.18-.09.27-.27.8-.51,1.66-.73,2.56-.04.13-.08.26-.11.39-.47,1.83-.84,3.58-1.17,5.22-.02.08-.03.17-.05.26-.6,3.45-1.06,7.01-1.38,10.86,0,.04,0,.08,0,.12-.09,1.3-.14,2.54-.19,3.75-.02.55-.04,1.11-.07,1.66,0,.02,0,.04,0,.06-.07,1.79-.18,3.12-.33,4.18,0,.02,0,.03,0,.05-.03.22-.12.89-.18,1.14-1.17.39-3.04.76-4.76,1.07-1,.16-1.89.36-2.67.53-.76.16-1.42.34-2,.5-.25.07-.51.14-.76.2l-.32.08-.08.02c-.37.09-.74.18-1.1.27-1.05.26-2.13.52-3.26.86-.1.03-.19.06-.29.09l-1.86.62c-1.82.61-3.76,1.33-5.76,2.16-.24.1-.47.2-.69.32-.72.31-1.42.63-2.12.94-.06.03-.11.05-.17.08l-.26.12-.46.22c-2.76,1.28-5.08,2.47-7.26,3.72-1.72.97-3.33,1.95-4.9,2.97-.34.2-.67.42-.98.67-.64.42-1.26.84-1.86,1.25-2.38,1.57-4.76,3.29-7.27,5.25-.92.7-2.23,1.64-3.26,1.99-.05.02-.1.03-.15.05-.43.15-.7.17-.87.17s-.36-.02-.56-.07c-1.1-.29-1.94-.54-2.56-.79-.23-.09-.43-.19-.6-.28-.02-.01-.04-.02-.06-.04-.02-.01-.04-.02-.05-.03-.06-.04-.1-.07-.12-.08-.05-.05-.09-.09-.14-.14-.29-.27-.46-.99-.53-1.32-.73-3.85-1.99-7.64-3.83-11.58l-.03-.07c-.09-.22-.24-.56-.44-.96-.74-1.49-1.64-3.02-2.81-4.8l-.14-.22c-.19-.29-.37-.58-.57-.86-.98-1.4-2.08-2.78-3.35-4.2-.12-.15-.25-.31-.41-.49-.38-.43-.71-.75-.91-.93-.1-.1-.19-.21-.28-.32-.29-.34-.67-.76-1.13-1.23.02-.34.05-.75.08-1.06.09-1.05.21-2.32.11-3.73-.14-13.8-2.2-31.38-16.55-45.67-2.45-2.45-2.14-4-1.98-4.84,4.8-24.11-7.7-42.28-17.52-53.85-3.2-3.79-3.93-7.46-2.67-13.51,1.52-7.25,2.74-16.93-1.27-27.53,1.7-.23,3.24-.52,4.5-.79.5-.09,1.23-.23,2.06-.49.84-.2,1.59-.42,2.26-.62.06-.02.13-.04.19-.06.98-.31,1.99-.63,3.07-1.03.24-.09.47-.18.69-.29.89-.34,1.71-.69,2.45-1.01.22-.09.43-.2.64-.3.61-.27,1.18-.55,1.69-.8l.6-.29c.31-.15.6-.31.89-.48,1.86-1.01,3.53-1.99,5.08-2.99.43-.27.85-.55,1.28-.83.35-.23.69-.46,1.04-.67.27-.17.53-.35.78-.55,1.26-.9,2.55-1.84,3.83-2.83,1.05-.79,2.13-1.64,3.2-2.53.08-.06.15-.13.23-.19,1.11-.91,2.24-1.84,3.34-2.78.03-.02.06-.05.09-.08.19-.16.38-.32.57-.49.44-.38.93-.79,1.43-1.26.44-.36.83-.71,1.19-1.03.36-.3.71-.6,1.07-.91.33-.28.65-.56.99-.84.08-.06.15-.13.22-.19.36-.3.68-.56.94-.76.02-.01.03-.03.05-.04.22-.15.46-.31.66-.42.14-.08.29-.17.42-.26.18-.1.35-.2.48-.27.08-.03.17-.07.25-.1.22-.09.44-.18.67-.27.12-.05.24-.1.36-.15h0Z"/>
    <path class="cls-2" d="m715.45,1004.01v-.21c-.58-5.57-2.6-11.06-2.6-16.63,0-16.87-5.82-32.22-11.51-47.61-7.26-19.43-18.85-35.98-34.12-50-7.47-6.85-11.84-14.65-12.17-25.41-.62-19.23-11.02-32.18-28.96-39.19-10.73-4.17-18.94-11.1-23.68-21.87-1.98-4.54-4.58-8.83-7.22-13.08-2.81-4.58-6.81-7.8-12.01-9.41-9.49-2.97-15.39-9.2-17.58-19.02-1.15-5.28-2.97-10.4-4.37-15.6-3.63-13.57-10.93-24.67-23.1-31.77-9.78-5.69-15.59-13.74-19.31-24.14-3.51-9.78-8.21-19.18-15.14-27.06-10.89-12.42-23.23-21.17-40.93-14.23-3.8,1.49-5.03-1.11-6.23-3.75-2.76-6.15-5.53-12.29-9.65-17.62-4.37-5.61-11.55-8.05-16.63-4.41-5.36,3.84-6.35.58-8.17-3.14-4.83-9.94-9.32-20.05-16.34-28.76-4.66-5.82-10.4-9.86-18.36-9.24-3.34.29-5.53-1.2-6.44-4.21-1.16-3.59,2.02-4.41,4.25-5.4,11.47-5.12,19.51-13.41,24.05-25.13,2.23-5.78,6.56-9.04,12.58-10.07,5.53-.99,11.22-1.4,16.63-2.81,15.88-4,24.05-16.17,30.53-29.79,5.2-10.85,7.34-22.61,9.24-34.37.33-1.94.33-4.04,2.27-5.12,13.66-7.72,15.93-20.63,14.44-34.24-.99-9.2,2.02-15.72,7.84-22.16,12.09-13.37,16.21-29.25,13.9-46.99-1.86-14.19-2.64-28.1,1.73-42.41,4.99-16.34,1.57-31.31-13.04-42.33-3.71-2.81-5.24-6.64-4.79-11.43.78-8.42,1.28-16.83,1.9-25.25h-.5c0-4.74.29-9.53-.04-14.27-1.4-21.04-23.35-35.48-43.16-28.55-3.47,1.2-6.89,2.68-10.48,3.34-4.37.83-7.51-.45-7.92-5.9-.41-5.82-1.16-11.68-2.56-17.29-2.06-8.13-7.3-11.84-15.68-11.84-3.22,0-6.48.62-9.7.83-6.64.37-13.57,2.27-19.56-2.23-20.13-15.02-43.53-24.22-65.6-35.56-24.47-12.5-50.13-12.67-73.44,5.36-10.64,8.25-21.5,16.17-31.93,24.63-15.72,12.75-32.43,18.81-52.36,10.4-6.89-2.89-14.03-1.77-20.88,1.24-13.9,6.11-26.24,14.28-35.69,26.4-3.84,4.91-7.84,6.48-13.95,3.01-7.39-4.21-13.82-1.82-18.15,5.53-2.1,3.59-3.3,7.47-3.71,11.68-1.61,15.76,2.52,29.33,15.55,39.11,11.22,8.42,13.49,19.56,11.02,32.35-1.49,7.63-3.18,15.22-5.08,22.82-5.32,21.41-1.2,40.31,14.48,56.36,4.99,5.12,9.82,10.4,14.48,15.84,7.26,8.5,10.52,18.07,8.54,29.5-1.28,7.51-3.05,14.81-5.16,22.11-2.1,7.18-2.1,14.11,2.02,20.63,1.53,2.35,1.98,4.87,1.24,7.47-1.77,5.9,0,11.14,2.93,16.13,4.25,7.1,5.16,14.69,3.38,22.57-2.68,12.05-.25,22.73,7.55,32.26,2.89,3.51,5.57,7.18,8.58,10.6,5.07,5.78,7.05,12.09,4.83,19.76-2.27,7.92-1.61,15.8,1.28,23.6,3.59,9.74,7.14,19.51,10.23,29.42,6.68,21.66,10.31,43.53.45,65.31-4.41,9.78-3.38,18.44,3.59,26.53,7.39,8.5,11.92,18.44,15.35,29.09,2.48,7.76,1.28,14.44-2.52,21.7-9.98,19.18-9.41,38.74,1.07,57.6,3.92,7.05,7.71,14.03,9.61,21.87,1.61,6.64,4.62,12.54,9.45,17.49,2.93,3.01,4.79,6.48,4.95,10.93.58,12.75,1.94,25.41-.37,38.16-1.07,5.73,1.32,10.69,5.82,14.36,2.52,2.06,5.2,3.92,7.88,5.73,5.65,3.8,8.62,8.58,7.92,15.8-.62,6.23-.33,12.54-.12,18.85.25,8.29,3.26,15.64,8.58,21.95,5.57,6.56,12.17,9.45,17.49,7.01,6.93-3.14,9.37-9.28,9.32-16.5,0-8.87,0-17.78-1.61-26.57-1.07-5.69.74-10.11,4.62-14.11,4.5-4.66,8.95-9.45,12.5-14.98,6.39-9.98,6.6-19.56-.54-29.54-7.34-10.27-9.9-22.49-4.99-33.91,8.33-19.31,6.19-36.06-7.34-51.82-11.06-12.87-10.97-25.95-2.27-40.47,9.2-15.35,9.08-31.85.5-47.74-3.14-5.82-3.8-11.06-.58-17,4.83-8.91,4.08-17.78-.7-26.65-3.59-6.64-6.56-13.61-8.29-21.08-1.36-5.82.04-10.64,4.04-14.94,4.46-4.79,7.39-4.99,12.05-.45,4.99,4.83,9.78,9.86,14.65,14.81,9.2,9.37,19.89,13.57,33.01,9.94,6.89-1.9,11.97.58,16.34,6.15,6.85,8.75,12.46,18.19,17.74,27.89,9.04,16.59,16.96,18.19,31.73,6.64,3.63-2.85,6.6-2.68,9.78.16,2.72,2.48,5.45,4.95,8.09,7.51,2.76,2.64,6.06,4.99,9.78,4.54,10.97-1.44,15.92,5.03,20.26,13.53,4.33,8.54,7.8,17.29,10.69,26.36,4.25,13.41,12.46,17.08,25.66,12.5,3.05-1.07,6.19-2.06,9.04-3.59,5.49-2.93,8.75-1.11,11.55,3.96,5.07,9.12,9.16,18.65,13.66,28.01,6.35,13.33,16.01,22.61,31.52,23.81,5.65.41,9.04,3.38,11.43,8.25,3.14,6.44,6.48,12.75,9.78,19.1,5.82,11.22,13.9,20.26,24.96,26.69,6.93,4.04,13.49,8.71,20.01,13.37,3.42,2.43,6.85,5.82,6.02,10.15-3.14,16.01,4.25,28.67,12.46,41.05,5.86,8.83,13.41,16.79,18.07,26.16,5.65,11.39,13.99,18.36,25.62,22.24,6.27,2.1,10.64,6.31,13.9,12.05,3.22,5.65,6.6,11.22,10.44,16.42,3.14,4.21,7.51,6.64,13.08,4.58,5.73-2.15,7.84-6.68,7.26-12.38ZM352.39,476.5c-1.69.62-3.84,1.07-6.56,1.57-.78.12-1.53.29-2.27.45-.86.18-1.67.44-2.52.65-.12.03-.25.06-.37.09-1.34.34-2.71.65-4,1.03-.62.21-1.24.41-1.86.62-1.73.58-3.47,1.24-5.16,1.94,0,.04-.04.04-.04.04-.87.37-1.69.74-2.52,1.11-.26.13-.51.24-.77.36-2.24,1.04-4.45,2.14-6.62,3.39-1.61.91-3.18,1.86-4.74,2.89,0,0-.04,0-.08.04v.04c-.78.5-1.57,1.03-2.35,1.57-2.31,1.53-4.58,3.18-6.81,4.91-1.9,1.44-3.8,2.68-5.86,3.38-2.06.74-4.25.95-6.64.37-1.28-.33-2.56-.7-3.71-1.16-.71-.28-1.38-.61-2.02-.99-.03-.02-.06-.04-.09-.06-.62-.38-1.21-.82-1.73-1.34-1.53-1.44-2.64-3.42-3.18-6.15-.64-3.36-1.76-6.51-3.16-9.51-.12-.26-.22-.53-.35-.78-.67-1.34-1.45-2.62-2.27-3.87-.19-.28-.36-.57-.56-.85-.87-1.25-1.84-2.44-2.88-3.59-.1-.11-.17-.23-.27-.34-.17-.21-.4-.39-.59-.59-.55-.57-1.01-1.18-1.6-1.72-3.75-3.42-1.9-7.67-2.19-10.52-.12-15.6-3.18-29-13.9-39.69-3.59-3.59-5.45-7.92-4.46-12.95,3.67-18.44-4.41-33.17-15.55-46.29-5.73-6.81-6.15-13.82-4.62-21.17,1.65-7.88,1.98-15.18-.99-22.82-1.4-3.63-1.44-6.6-.12-8.62,0,0,0-.04.04-.04.17-.33.41-.62.7-.87t.04-.04c.29-.25.58-.5.95-.74v-.04h.04c.33-.21.74-.41,1.2-.58.87-.37,1.86-.58,2.97-.7,1.9-.16,3.71-.5,5.49-.87.45-.08.91-.16,1.36-.33.74-.17,1.44-.37,2.15-.58.91-.29,1.82-.58,2.72-.91v-.04h.04c.91-.33,1.77-.7,2.64-1.07v-.04h.04c.87-.37,1.69-.78,2.56-1.2v-.04s0-.04.04,0c1.69-.91,3.34-1.86,4.95-2.89.78-.5,1.57-1.03,2.35-1.53v-.04s.04,0,.04,0c1.32-.95,2.64-1.9,3.92-2.89.99-.74,1.98-1.53,2.93-2.31v-.04h.04c1.16-.95,2.31-1.9,3.42-2.85.66-.58,1.36-1.16,2.02-1.77.41-.33.78-.66,1.2-1.03.74-.62,1.44-1.24,2.19-1.86v-.04h.04c.5-.41.99-.83,1.49-1.2v-.04h.04c.54-.37,1.03-.7,1.53-.99v-.04s0-.04.04,0c.5-.29.99-.58,1.49-.82v-.04h.04c.54-.21,1.03-.41,1.57-.62v-.04c3.3-1.2,6.81-1.28,11.02-.78,8.99,1.11,16.96,2.35,23.35,8.13h.04c.54.5,1.03.99,1.53,1.49,1.57,1.61,3.01,3.55,4.37,5.86,1.24,2.15,2.68,4.04,4.33,5.65,7.14,7.1,17.66,9.61,28.22,10.4,2.1.16,4.04.5,5.32,1.65.74.66,1.28,1.65,1.4,3.05.08.78.17,1.53.25,2.27,1.36,8.87,6.19,15.64,12.05,21.7,1.49,1.49,2.97,2.93,4.54,4.37.45.41.87.83,1.24,1.2,4.21,4.37,4.91,8.62,2.85,14.77-3.22,9.74-1.36,19.23,4.46,27.77,3.84,5.69,5.32,9.04,4.21,12.67-.12.37-.25.74-.37,1.16,0,0-.04,0-.04.04-.17.37-.37.74-.58,1.16l-.04.04c-.21.41-.45.78-.7,1.24t-.04.04c-.29.41-.58.83-.91,1.28,0,.04-.04.04-.04.04-.33.45-.7.91-1.07,1.4l-.04.04c-.41.5-.82.99-1.28,1.53l-.04.04v.04c-4.08,4.79-8.33,9.37-12.54,14.03-2.97,3.26-5.32,6.77-7.22,10.44-.37.74-.74,1.49-1.07,2.27-.99,2.19-1.86,4.5-2.56,6.85,0,0,0,.04-.04.08-.25.74-.45,1.53-.62,2.27,0,.04,0,.08-.04.08-.41,1.61-.74,3.18-1.07,4.79-.58,3.3-.99,6.64-1.28,10.07-.12,1.73-.17,3.47-.25,5.2-.08,1.98-.21,3.63-.41,5.07-.12.91-.25,1.73-.45,2.43-.04.21-.08.41-.12.58t-.04.08c-.33,1.2-.82,2.1-1.48,2.89-.87.99-2.02,1.73-3.67,2.31Z"/>
    <path class="cls-3" d="m706.48,1003.06c-2.76-8.99-1.69-18.52-3.59-27.56-6.56-30.94-19.14-58.75-43.28-80.41-8.58-7.72-13.37-17.08-13.29-29.13.08-13.49-6.39-24.38-18.69-29.54-16.71-7.01-29.21-17.25-35.94-34.33-2.68-6.85-7.72-11.43-15.18-14.03-9.45-3.3-15.84-10.31-18.44-20.34-1.32-5.03-2.81-9.98-4.21-14.98-3.34-11.96-8.09-23.31-19.47-29.58-12.79-7.05-19.93-17.82-24.71-31.15-3.59-10.03-8.79-19.39-16.71-26.82-8.05-7.55-16.71-11.96-28.26-6.85-7.8,3.47-11.1,1.57-15.02-6.23-2.93-5.82-5.24-11.92-9.28-17.12-2.68-3.47-4.79-5.12-8.62-.83-5.53,6.19-8.75,5.65-12.83-1.44-3.34-5.82-6.4-11.8-9.53-17.74-3.22-6.15-6.39-12.29-10.77-17.74-2.23-2.76-5.2-6.31-8.38-5.4-9.57,2.68-13.74-3.55-18.69-9.32-3.55-4.17-3.18-7.72.33-11.47,3.47-3.71,7.88-6.06,12.38-8.29,7.1-3.51,12.42-8.66,15.22-16.13,4.74-12.67,14.23-18.61,27.39-19.23,14.11-.7,23.85-7.84,30.57-19.93,5.57-9.98,8.66-20.67,10.64-31.81,1.07-6.06.5-13.04,6.77-16.87,10.15-6.23,12.46-15.8,11.14-26.4-1.53-12.21,2.31-21.7,10.73-30.49,9.53-9.94,13.12-22.65,11.22-36.06-2.48-17.58-2.68-34.7,2.35-51.98,3.01-10.36.58-20.46-8.62-27.48-9.49-7.22-11.3-16.5-9.74-27.68,1.36-9.61,1.94-19.35,1.11-29.13-1.57-18.94-16.5-28.55-34.33-21.95-1.86.66-3.63,1.49-5.49,2.06-12.09,3.67-20.63-1.98-21.95-14.48-.21-2.15-.66-4.29-.87-6.44-1.36-12.95-3.84-14.77-16.59-12.87-9.78,1.44-19.39,1.69-28.06-4.7-19.97-14.85-43.16-24.09-65.15-34.99-19.84-9.82-41.59-9.61-60.73,5.24-11.96,9.32-24.09,18.44-36.14,27.73-16.13,12.42-33.54,17.78-53.47,9.94-8.09-3.18-15.68-1.4-23.1,2.43-10.93,5.65-20.51,12.95-28.47,22.32-5.4,6.39-11.3,10.23-20.34,6.02-7.72-3.63-10.85-1.4-12.01,7.14-1.86,13.45,1.49,24.88,12.91,33.25,12.91,9.45,15.84,22.73,13.7,37.54-1.2,8.13-3.09,16.17-5.2,24.09-5.08,19.35-1.94,36.47,12.83,50.75,3.75,3.59,7.06,7.67,10.64,11.43,12.83,13.2,17.33,28.59,12.75,46.54-1.53,6.06-2.76,12.25-4.54,18.24-1.36,4.7-1.03,8.95,1.49,13.08,2.23,3.63,3.55,7.59,2.27,11.76-1.32,4.37-.21,8,1.98,11.72,4.74,7.96,6.64,16.75,4.5,25.66-2.93,12.13-.08,22.2,8.09,31.19,2.06,2.27,3.84,4.7,5.86,6.97,7.1,7.88,9.16,16.92,6.6,27.15-1.65,6.68-1.16,13.24,1.24,19.8,3.67,9.94,7.3,19.93,10.4,30.08,7.1,23.23,10.15,46.66,0,69.85-3.09,7.1-2.39,12.79,2.68,18.48,8.58,9.57,13.45,21.12,16.79,33.38,2.52,9.12,1.65,17.66-3.3,26.2-9.28,16.13-8.46,32.76.37,48.81,4.29,7.84,8.58,15.47,10.56,24.26,1.32,5.82,4.08,10.89,8.58,15.02,2.89,2.68,5.32,5.69,5.61,9.94.91,13.12,3.63,26.32.74,39.4-1.61,7.18.82,11.8,6.52,15.22,12.17,7.39,17.37,17.82,14.69,29.54-.41,12.83-1.2,23.43,7.38,31.56,1.77,1.69,3.26,4.66,6.4,3.26,2.68-1.2,3.3-3.92,3.26-6.6-.12-8,.37-16.05-1.11-23.97-1.82-9.78-.25-18.24,7.84-25.21,4.91-4.21,8.95-9.45,11.96-15.31,2.35-4.58,2.85-9.12-.29-13.49-11.92-16.59-13.04-34.29-5.45-52.89,4.08-9.98,3.59-19.35-3.55-28.06-2.48-3.01-4.13-6.64-6.52-9.7-11.14-14.52-12.13-29.46-2.56-45.22,8.66-14.27,9.28-29.05.87-43.73-4.37-7.63-4.58-15.02-.17-22.69,3.63-6.31,3.3-12.67-.25-19.14-3.34-6.06-6.02-12.46-8.09-19.1-3.63-11.63-1.94-21.78,7.8-29.91,7.51-6.27,12.83-6.35,20.18.17,5.82,5.2,11.39,10.69,16.83,16.26,7.1,7.26,15.18,10.15,25.33,7.55,9.41-2.39,17.16.29,23.64,8.09,8.09,9.78,14.23,20.63,20.46,31.56,5.78,10.15,8.42,10.36,17.33,3.05,7.3-6.02,13.57-6.11,21.08-.08,2.68,2.15,5.32,4.46,7.76,6.93,2.43,2.52,5.24,3.67,8.71,3.42,9.86-.7,16.21,4.08,20.88,12.5,5.69,10.27,10.85,20.67,14.07,32.02,2.76,9.78,6.06,11.22,15.72,7.67,2.43-.91,4.83-1.94,7.26-2.85,12.13-4.58,17.12-2.97,23.35,8.62,4.91,9.16,9.08,18.69,13.66,28.01,4.95,10.11,12.09,17.62,24.01,18.4,9.65.62,15.43,5.94,19.31,14.19,1.86,3.92,4.04,7.67,5.82,11.63,6.44,14.32,16.21,25.33,30.24,32.8,7.43,3.96,14.56,8.66,20.26,15.1,3.26,3.71,6.23,8,5.07,12.87-3.05,13,2.6,23.35,9.16,33.42,6.52,9.98,14.73,18.98,20.17,29.46,4.95,9.49,11.8,14.98,21.45,18.28,7.88,2.68,13.66,8.09,17.66,15.47,2.68,4.95,5.82,9.65,8.95,14.32.87,1.32,2.19,3.22,4.21,2.19,1.61-.83,1.2-2.85.82-4.13l.37-.04ZM364.66,434.33s0,0,0,.01c-.68,1.49-1.31,3.01-1.85,4.57-.29.74-.54,1.49-.74,2.27v.08c-.25.74-.49,1.53-.66,2.27v.08c-.21.83-.41,1.61-.62,2.43-.17.78-.33,1.57-.5,2.35-.58,3.3-.99,6.73-1.28,10.15-.12,1.73-.17,3.47-.25,5.2-.08,1.94-.21,3.59-.37,4.99-.12.91-.25,1.73-.45,2.43-.04.21-.08.41-.17.62v.04c-.33,1.2-.82,2.1-1.48,2.89-.87.99-2.02,1.73-3.67,2.31-1.69.62-3.84,1.11-6.6,1.61-.74.12-1.49.29-2.23.41-.86.18-1.67.44-2.52.65-.12.03-.25.06-.37.09-1.34.34-2.71.65-4,1.03-.62.21-1.24.41-1.86.62-1.73.58-3.47,1.24-5.16,1.94,0,.04-.04.04-.04.04-.87.37-1.69.74-2.52,1.11-.87.41-1.69.78-2.52,1.2-1.65.83-3.26,1.65-4.87,2.56-1.61.91-3.18,1.86-4.74,2.89,0,0-.04,0-.08.04-.78.5-1.57,1.03-2.35,1.61-2.31,1.53-4.58,3.18-6.81,4.91-1.9,1.44-3.8,2.68-5.86,3.38-2.06.78-4.25,1.03-6.68.41-1.32-.29-2.56-.7-3.67-1.2-.71-.28-1.38-.61-2.02-.99-.03-.02-.06-.04-.09-.06-.62-.38-1.21-.82-1.73-1.34-.45-.37-.87-.83-1.28-1.32-.91-1.24-1.57-2.81-1.94-4.74-1.36-7.22-4.5-13.7-9.45-19.02-.66-.78-1.44-1.53-2.23-2.23-3.75-3.42-1.9-7.67-2.19-10.52-.12-15.6-3.18-29.05-13.9-39.73-3.59-3.59-5.45-7.92-4.46-12.95,1.94-9.82.58-18.57-2.81-26.61-.66-1.57-1.36-3.09-2.19-4.58-2.85-5.32-6.52-10.31-10.56-15.1-5.73-6.81-6.15-13.82-4.62-21.17,1.65-7.88,1.98-15.18-.99-22.82-1.4-3.63-1.44-6.64-.08-8.66v-.04c.21-.33.41-.62.74-.87t.04-.04c.29-.29.58-.54.95-.78h.04c.37-.25.74-.45,1.2-.58.87-.37,1.86-.58,2.97-.7,1.9-.16,3.71-.5,5.49-.87.45-.08.91-.16,1.36-.33.74-.17,1.44-.37,2.15-.58.91-.29,1.82-.62,2.72-.95h.04c.91-.37,1.77-.74,2.64-1.11h.04c.87-.41,1.69-.83,2.56-1.24t.04,0c1.69-.91,3.34-1.86,4.95-2.89.78-.54,1.57-1.03,2.35-1.57,0-.04.04,0,.04,0,1.32-.95,2.64-1.9,3.92-2.89.99-.78,1.98-1.57,2.93-2.35h.04c1.16-.95,2.31-1.9,3.42-2.85.66-.58,1.36-1.16,2.02-1.77.41-.33.78-.66,1.2-1.03.7-.62,1.44-1.24,2.19-1.9h.04c.5-.45.99-.87,1.49-1.24h.04c.54-.41,1.03-.74,1.53-1.03,0,0,0-.04.04,0,.5-.33.99-.62,1.49-.87h.04c.54-.25,1.03-.45,1.57-.66,3.3-1.2,6.81-1.28,11.02-.78,8.99,1.11,16.96,2.35,23.35,8.13h.04c.54.5,1.03.99,1.53,1.49.04.04,0,.04,0,.04,1.57,1.65,3.01,3.55,4.33,5.86,1.24,2.15,2.68,4,4.33,5.61h.04c7.14,7.1,17.66,9.61,28.22,10.4,2.1.16,4.04.5,5.32,1.65v.04c.74.7,1.24,1.65,1.36,3.05.08.74.17,1.53.29,2.23,1.36,8.87,6.19,15.64,12.05,21.7,1.49,1.49,2.97,2.93,4.54,4.37.45.41.87.83,1.24,1.2v.04c4.17,4.41,4.83,8.66,2.81,14.77-.17.52-.24,1.03-.38,1.55-.22.81-.45,1.61-.6,2.42-.15.77-.24,1.53-.32,2.29-.07.62-.12,1.24-.15,1.86-.04.78-.07,1.56-.04,2.34.02.57.09,1.13.14,1.7.15,1.58.42,3.13.82,4.67.09.35.16.71.26,1.06.09.31.13.62.23.93.29.78.54,1.53.87,2.31.95,2.27,2.15,4.5,3.63,6.64,3.84,5.65,5.32,8.99,4.25,12.62-.12.37-.25.74-.41,1.16v.04c-.21.37-.37.74-.62,1.16v.04c-.25.41-.5.78-.74,1.24v.04c-.33.41-.62.83-.95,1.28v.04c-.37.45-.74.91-1.11,1.4v.04c-.45.5-.87.99-1.32,1.53v.04c-4.13,4.79-8.33,9.32-12.54,13.99-2.97,3.3-5.36,6.81-7.22,10.52-.37.74-.74,1.49-1.07,2.27Z"/>
    <path class="cls-2" d="m233.74,312.39c.22-.5.8-1.15.91-1.66l-.23.3c-.29.36-.3.4-.05.11l.18-.17c.39-.33.24-.22-.45.35.18-.13.86-.38.02-.07-.91.33-.1.04.07,0,.25-.06.49-.13.73-.18.88-.17.23.08-.24.02,1.27.16,3.14-.28,4.38-.47,1.03-.15,2.04-.38,3.04-.68,5.17-1.52,10.04-4.15,14.69-6.84,4.21-2.44,8.28-5.11,12.47-7.58,2.38-1.4,4.64-2.88,6.78-4.63.62-.5,1.22-1.04,1.83-1.55.27-.23.62-.44.85-.7-.79.9-.75.56-.34.27.26-.18.51-.37.77-.54,1.02-.7,2.09-1.33,3.17-1.92.62-.34,1.24-.68,1.88-.98.03-.01.52-.29.6-.27-.68.28-.77.32-.26.12.21-.08.42-.16.64-.24,1.16-.42,2.35-.75,3.56-1.01.65-.14,1.31-.26,1.97-.37.91-.16-.1,0-.23.02.48-.1,1-.12,1.48-.16,1.25-.11,2.5-.15,3.75-.14.75,0,1.5.04,2.24.1.25.02.5.04.74.06.25.02.49.05.74.08.57.07.49.06-.23-.03,1.08-.08,2.5.45,3.53.74.67.18,1.34.39,1.99.63.21.08.42.16.64.24.51.21.42.17-.27-.11.2.09.4.18.6.28.35.17,3.09,1.6,2.99,1.83l-.43-.33c.19.15.38.31.56.47.28.24.55.48.82.73.54.5,1.05,1.03,1.55,1.57.75.82,1.94,1.82,2.39,2.84-.44-1-.1-.12.13.18.19.25.38.5.56.75.49.66.97,1.31,1.46,1.97,3.78,5.08,7.78,9.68,13.42,12.75s11.95,4.59,18.35,5.12c1.4.12,2.8.17,4.2.18.58,0,1.16,0,1.75.02.1,0,.99,0,1.03.08-.77-.11-.88-.12-.33-.02l.32.08c1.02.14-.86-.57-.01-.04.92.58-.8-.81-.05-.02.1.11-.7-.77-.58-.91-.05.05.25,1.14.27,1.26.22,1.23.46,2.45.81,3.65,2.92,9.99,10.02,17.75,15.63,26.26,1.34,2.03,2.59,4.12,3.65,6.31.05.11.68,1.48.68,1.48-.03.01-.44-1.11-.01,0,.12.3.23.6.34.91.39,1.11.72,2.25.97,3.4.07.33.07,1.36.29,1.59l-.09-.69c.03.22.05.43.07.65.03.33.06.65.08.98.09,1.52,0,3.03-.13,4.54-.3,3.23-.93,6.46-.8,9.72.14,3.58,1.07,7.09,3.08,10.09.88,1.31,1.87,2.54,2.89,3.73.85.99,2.09,2.04,2.72,3.19-.53-.98-.22-.29-.02,0,.17.24.35.49.51.74.33.5.59,1.02.89,1.54.59,1.01-.27-1.01.06.12.1.35.23.69.32,1.05.03.14.09.64.15.71-.08-.74-.1-.84-.04-.28.02.23.03.46.03.69,0,.29,0,.57-.02.86-.06,1.02.17-.03.05-.14.15.13-.33,1.45-.4,1.68s-.17.83-.34.99l.23-.54c-.1.22-.2.43-.3.65-.32.66-.68,1.29-1.07,1.91-.34.53-.7,1.04-1.06,1.55-.74,1.06.68-.79-.16.21-.17.2-.33.4-.5.6-1.02,1.21-2.11,2.36-3.23,3.47-2.03,2.01-4.16,3.91-6.26,5.83-3.52,3.22-6.98,6.47-9.87,10.28-5.29,6.97-6.35,15.59-7.35,24.02-.23,1.95-.47,3.9-.72,5.85-.08.6-.16,1.2-.23,1.8-.04.31-.15.97.06-.42-.04.3-.08.6-.12.91-.15,1.08-.3,2.16-.47,3.23-.51,3.35-1.45,6.59-1.99,9.92-.19,1.16-.37,2.32-.63,3.46-.11.47-.26.93-.39,1.4-.26.95.59-1.05.12-.26-.32.54-.55.39.32-.3-.36.28-.64.69-.98,1-.2.18-.46.35-.64.55.83-.92.5-.39.1-.11-.88.59-1.96.92-2.82,1.52.99-.69.55-.23.08-.05-.19.07-.38.14-.58.21-.59.21-1.19.39-1.79.57-1.14.33-2.29.6-3.45.85-2.4.51-4.82.9-7.24,1.34-4.75.86-9.78,1.91-13.89,4.59-2.92,1.9-5.5,4.3-8.14,6.55-.57.48-1.14.95-1.72,1.42.84-.68-.31.23-.4.3-.23.16-.45.33-.68.48-1.38.95-2.82,1.8-4.32,2.54-.25.12-.5.24-.75.36-.16.07-1.44.6-.34.16-.65.26-1.3.51-1.96.73-1.58.54-3.21.97-4.85,1.28-.27.05-.55.09-.82.15-1.37.27,1.06-.09-.33.05-.69.07-1.39.14-2.08.18-1.65.09-3.28.03-4.93-.08-.78-.05.25.1.3.04-.08.08-.91-.19-1.02-.22l-.33-.09c-.52-.18-.44-.13.24.14-.05.03-.6-.32-.59-.31-.94-.45.68.74,0-.03l.38.5c-.2-.36-.22-.39-.07-.07l.1.22c-.13-.57-.13-.52,0,.15,0-.27,0-.54.02-.82-.1.64-.1.66,0,.08.81-3.58,1.25-6.92.44-10.55-.67-3.01-2.15-5.9-3.81-8.48-.78-1.21-1.63-2.37-2.49-3.52-.41-.55-.83-1.09-1.25-1.63s-.85-1.11-1.28-1.66c-.34-.45-.33-.43.04.05-.12-.16-.25-.32-.37-.48-1.61-2.11-3.23-4.21-4.92-6.26-.44-.53-.87-1.08-1.31-1.61-.39-.47.86,1.23.28.35-.12-.19-.25-.37-.37-.56-.4-.62.05-.8.21.59-.02-.14-.1-.29-.13-.43-.24-.93.1,1.36.09.76,0-.22-.03-.44-.04-.67-.04-1.35.03-2.71.01-4.06-.05-4.5-.56-8.83-1.59-13.21s-2.28-8.87-3.81-13.17c-.65-1.84-1.34-3.71-2.31-5.4-1.15-2.01-2.52-3.91-3.88-5.79-1.27-1.77-2.6-3.5-3.82-5.3-.22-.32-.42-.64-.61-.97-.12-.22-.21-.45-.33-.66-.45-.81.33.98.15.36-.3-1.05-.68-2.06-.92-3.14-.11-.5-.21-1.01-.3-1.52-.08-.47-.05-1.16-.25-1.59l.09.68c-.03-.22-.05-.44-.08-.66-.04-.33-.08-.67-.11-1-.07-.68-.13-1.36-.19-2.04-.2-2.49-.32-4.99-.48-7.49s-.38-5.05-.76-7.56c-.42-2.71-1.55-5.2-3.02-7.5s-3.36-4.61-4.78-7.08c-.21-.37-.81-1.13-.79-1.55l.26.58c-.08-.22-.16-.43-.25-.65-.14-.36-.28-.71-.43-1.07-.77-1.89-1.6-3.76-2.49-5.6-.7-1.45-1.43-2.9-2.14-4.34-.34-.69-.68-1.38-1.01-2.07-.2-.42-.4-.83-.59-1.25-.07-.16-.69-1.53-.49-1.08.28.66-.28-.71-.26-.66-.16-.42-.31-.84-.46-1.26-.24-.7-.46-1.4-.67-2.11-.47-1.61-.84-3.25-1.14-4.9-.14-.79-.26-1.58-.38-2.37.15,1.01.03.24,0,.03-.05-.43-.1-.87-.15-1.3-.17-1.61-.28-3.22-.38-4.83-.19-3.29-.22-6.59-.38-9.89s-.57-6.42-.79-9.63c-.11-1.68-.18-3.36-.13-5.05.02-.75.08-1.5.14-2.26.12-1.46-.23.98.06-.45.09-.44.17-.88.26-1.32.56-2.55-.77-5.53-3.49-6.15-2.53-.58-5.55.76-6.15,3.49-1.58,7.15-.26,14.17.1,21.36s.37,13.91,1.6,20.8,4.47,13.4,7.61,19.86c.37.76.73,1.52,1.08,2.29.19.42.38.84.56,1.26.07.15.36.89.04.08.69,1.71,1.3,3.46,2.21,5.07,1.45,2.53,3.33,4.78,4.88,7.25.37.58.72,1.18,1.04,1.79l.16.32c.23.5.21.43-.07-.22.1.13.2.52.24.64.18.54.3,1.1.41,1.66.03.16.06.33.08.49.22,1.34-.1-.94,0-.01.26,2.33.41,4.66.55,6.99.31,5.24.48,10.67,1.88,15.76,1.27,4.63,4.3,8.1,7.01,11.94,1.24,1.76,2.55,3.54,3.51,5.48.11.22.62,1.39.21.42s.14.37.23.61c.38.99.72,2,1.05,3,1.47,4.47,2.73,9.02,3.69,13.63.17.83.32,1.67.47,2.51.07.42.07,1.25-.05-.47.01.19.05.39.07.58.06.58.08,1.16.11,1.74.11,2.1.14,4.21.12,6.31-.03,2.59.18,5.03,1.75,7.2,1.06,1.47,2.26,2.84,3.4,4.26.39.49.78.97,1.17,1.46.15.19.29.37.44.56.79,1-.65-.87.17.22.41.54.82,1.07,1.23,1.61s.85,1.1,1.28,1.65c.34.44.33.43-.03-.04.17.22.33.43.5.65,1.8,2.36,3.58,4.79,4.87,7.48.11.23.77,1.27.13.23.19.3.28.75.39,1.09.2.61.32,1.23.48,1.84.31,1.22-.04-1.09.03.17.01.25.04.51.04.76,0,.39-.02.77-.02,1.15-.05.57-.04.52.04-.16-.05.28-.1.55-.16.83-.36,1.74-.85,3.5-.84,5.29.02,2.38.85,4.75,2.53,6.48,2.63,2.71,6.45,3.36,10.06,3.51,6.87.28,13.79-1.38,19.9-4.49,3.07-1.56,5.81-3.61,8.43-5.82,1.25-1.05,2.47-2.14,3.72-3.19.34-.29.69-.57,1.03-.85.74-.61.2-.16.04-.04.7-.53,1.41-1.05,2.16-1.5.41-.25.84-.48,1.27-.69.24-.12.59-.21.8-.37-.92.69-.59.24-.09.05,1.07-.41,2.16-.74,3.26-1.03,2.45-.65,4.94-1.09,7.43-1.53,5.06-.89,10.15-1.79,14.78-4.14,2.34-1.19,4.75-2.95,6.21-5.18s1.79-4.77,2.19-7.24c.56-3.44,1.52-6.78,2.04-10.24.7-4.59,1.27-9.2,1.82-13.8.08-.71.17-1.41.25-2.12.03-.23.05-.46.08-.68.05-.39.08-.79.15-1.18-.21,1.29-.02.13.03-.17.36-2.43.81-4.86,1.49-7.22.28-.95.61-1.87.96-2.8.28-.74-.19.45-.21.49.11-.22.2-.46.31-.69.21-.45.43-.89.67-1.33.43-.79.9-1.56,1.41-2.3.24-.35,1.37-1.73.25-.4.33-.39.64-.8.98-1.2,3.17-3.71,6.92-6.92,10.51-10.21,4.39-4.02,9.11-8.39,11.59-13.91,1.44-3.2,2.11-6.46,1.64-9.96s-2.22-6.51-4.4-9.28c-.83-1.05-1.71-2.05-2.59-3.06-.4-.46-.78-.93-1.17-1.4-.79-.95.59.88-.1-.14-.23-.35-.48-.69-.71-1.04-.35-.56-.67-1.14-.94-1.74.52,1.14-.01-.17-.07-.37-.08-.27-.15-.55-.22-.83-.04-.19-.23-1.58-.1-.36-.04-.43-.08-.86-.09-1.29-.03-.87-.01-1.74.04-2.61.21-3.34.89-6.64.93-9.99.03-2.82-.37-5.7-1.13-8.41-2.86-10.15-10.25-17.97-15.85-26.63-1.4-2.16-2.7-4.39-3.77-6.73-.09-.2-.18-.4-.27-.6-.48-1.06.4,1.07,0-.03-.19-.52-.39-1.03-.57-1.55-.42-1.25-.77-2.53-1.02-3.83-.4-2.09-.82-3.9-2.26-5.59-1.22-1.44-3.04-2.43-4.87-2.84-2.98-.67-6.08-.36-9.1-.6-.73-.06-1.47-.14-2.2-.22-.82-.09,1.23.21-.06-.02-.4-.07-.79-.13-1.19-.2-1.57-.29-3.13-.66-4.67-1.12-.63-.19-1.26-.4-1.89-.63-.37-.13-.74-.28-1.11-.42-.88-.34-.06,0,.1.05-1.45-.45-2.9-1.4-4.18-2.21-.61-.39-1.19-.81-1.79-1.22-.65-.45.88.77-.08-.07-.3-.26-.61-.51-.9-.77-1.13-1.01-2.16-2.11-3.14-3.26-.4-.48-.79-.97-1.19-1.46-.8-1,.63.85-.14-.18-.15-.2-.3-.4-.45-.6-.9-1.21-1.79-2.43-2.7-3.63-1.9-2.49-3.83-5-6.22-7.05s-5.12-3.66-8.19-4.82c-5.37-2.04-11.55-2.45-17.22-1.75-6.02.74-11.6,2.7-16.6,6.18-1.72,1.2-3.29,2.59-4.9,3.93-.97.81.9-.65-.22.17-.47.35-.95.68-1.44,1-1.16.77-2.37,1.46-3.56,2.17-4.34,2.59-8.58,5.35-12.97,7.86-2.4,1.37-4.85,2.68-7.37,3.82-.26.12-.52.23-.78.35-.68.3,1.16-.46.11-.05-.61.24-1.21.47-1.82.69-1.04.36-2.09.68-3.17.91-.27.06-.54.1-.82.16-1.01.2,1.28-.1.28-.03-.54.04-1.08.09-1.62.14-1.35.12-2.77.21-4.07.6-2.93.88-5.17,2.95-6.41,5.73-1.06,2.38-.77,5.49,1.79,6.84,2.18,1.15,5.7.76,6.84-1.79h0Z"/>
  </g>
</svg>