<?xml version="1.0" encoding="UTF-8"?>
<svg id="Layer_1" data-name="Layer 1" xmlns="http://www.w3.org/2000/svg" viewBox="0 0 1000 330">
  <defs>
    <style>
      .cls-1 {
        fill: #bedc42;
      }

      .cls-1, .cls-2, .cls-3, .cls-4, .cls-5, .cls-6 {
        stroke-width: 0px;
      }

      .cls-2 {
        fill: #aab658;
      }

      .cls-3 {
        fill: #bedd42;
      }

      .cls-4 {
        fill: #b2bd68;
      }

      .cls-5 {
        fill: #193840;
      }

      .cls-6 {
        fill: #42b3c9;
      }
    </style>
  </defs>
  <path class="cls-3" d="m902.96,144.6c-1.69-2.93-5.53-4.63-8.93-4-2.69.51-4.82,2.3-7.34,3.18-4.23,1.48-8.01,3.65-11.04,7.04-1.38,1.55-3.19,2.55-5.05,3.44-1.91.9-3.7,2-5.25,3.44-1.07.99-2.29,1.59-3.72,1.91-2.1.48-4.19,1.14-6.02,2.28-1.97,1.23-4.18,1.65-6.34,2.3-.7.21-1.35.21-1.74-.59-1.17-2.42-3.41-4.3-3.64-7.22-.04-.53-.42-1.1-.79-1.52-1.01-1.17-1.16-2.51-1.07-3.98.24-4.25.21-8.49-.23-12.74-.41-3.96-1.55-7.49-4.8-10.07-.36-.29-.74-.65-.9-1.06-1.27-3.22-2.99-6.37-3.58-9.72-.79-4.5-2.23-8.72-3.71-12.97-1.59-4.58-3.62-8.96-6.24-13.02-1.72-2.67-4.45-3.5-7.46-2.9-2.81.56-4.59,2.44-5.41,5.18-.57,1.89-.59,3.83-.27,5.77.45,2.64.86,5.29.73,7.98-.07,1.47-.22,2.89-1.33,4.08-.95,1.01-1.47,2.33-1.65,3.69-.37,2.76-.74,5.56-.21,8.31.86,4.48,1.75,8.95,1.41,13.55-.03.47.02.94.01,1.42-.03,6.25.71,12.31,3.49,18.06,1.53,3.17,1.23,6.72,1.18,10.37-.34-.21-.52-.29-.67-.4-2.54-1.98-5.37-3.27-8.56-3.76-.68-.1-1.26-.46-1.81-.9-2.59-2.09-5.56-3.11-8.89-3.14-.69,0-1.44.1-1.96-.4-1.89-1.82-4.26-2.34-6.82-2.46.43-1.54.78-2.97,1.23-4.35,1.78-5.47,2.02-11.29,4.17-16.72,1.37-3.46,1.03-7.29-1.14-10.59-.86-1.3-.76-2.29.04-3.57,1.88-2.97,3.62-6.03,4.37-9.54,1.4-6.52-3.77-11.88-10.38-10.72-4.9.86-7.8,4.01-9.58,8.42-1.14,2.83-2.61,5.5-4.13,8.12-1.42,2.45-2.43,4.96-2.97,7.73-.5,2.61-.32,5.34-1.53,7.84-1.54,3.17-2.17,6.55-2,10.09.05,1.05-.12,2.1-.6,3.06-1.13,2.27-2.19,4.55-1.85,7.2.06.45-.07.86-.63.9-.56.04-1.11-.07-1.23-.7-.09-.51-.09-1.06.02-1.56.37-1.74.04-3.46-.2-5.16-.43-2.98-1.65-5.6-3.78-7.8-1.69-1.76-2.63-3.77-1.7-6.29.19-.52.21-1.14.16-1.71-.51-6.27-7-11.24-13.22-10.07-1.74.33-3.23.15-4.81-.76-3.99-2.3-8.15-1.65-11.38,1.57q-2.13,2.12-3.08-.75c-1.56-4.7-5.79-7.07-10.39-5.81-4.01,1.1-6.86,4.77-6.92,8.95-.03,2.45.41,4.9-.3,7.34-.62,2.1,0,4.32-.35,6.42-.49,2.89-.43,5.7.02,8.57.22,1.43.39,3-.49,4.54-.17-.42-.35-.7-.38-.99-.34-3.81-1.87-7.29-2.99-10.88-.48-1.55-1.42-2.9-2.48-4.17-3.02-3.63-6.66-6.34-11.11-8.02-5.06-1.92-10.07-2.42-15.13-.03-3.48,1.64-6.05,4.31-8.48,7.17-1.93,2.28-3.39,4.98-5.91,6.72-4.94,3.42-8.45,7.68-8.68,14.01-.02.52-.02,1.5-.88,1.4-.64-.08-.58-.89-.6-1.46-.1-2.5-.83-4.75-2.69-6.52-.59-.57-.71-1.18-.57-1.99.42-2.4.46-4.79-.32-7.16-.19-.57-.2-1.25-.15-1.86.28-3.92-.59-7.63-2.09-11.19-1.07-2.53-1.54-5.09-1.45-7.82.25-7.18-.51-14.28-2.56-21.16-1.46-4.9-2.05-9.79-1.56-14.89.46-4.78,1.09-9.44,3.06-13.9,2.31-5.23,4.66-10.45,6.48-15.87,1.22-3.63.9-7.16-1.31-10.37-2.51-3.65-6.96-4.51-10.7-2.15-2.53,1.59-4.41,3.78-5.58,6.48-1.05,2.45-2.5,4.59-4.22,6.6-2.11,2.47-4.49,4.8-5.16,8.16-.38,1.9-.65,3.83-.84,5.75-.36,3.56-1.26,6.88-3.55,9.76-1.47,1.85-2.89,3.75-4.17,5.73-2.82,4.35-3.89,9.38-5.2,14.28-.79,2.98-1.06,6.09-1.9,9.06-.78,2.77-1.9,5.45-2.35,8.31-.27,1.67-1.02,3.05-2.16,4.28-2.16,2.33-3.95,4.9-5.03,7.92-.21.58-.56,1.13-.88,1.66-.45.73-.96.83-1.64.19-1.15-1.09-2.04-2.25-1.87-3.96.34-3.39-.31-6.55-2.04-9.53-.86-1.49-.81-3.2-.65-4.91.48-5.17.96-10.35-3.42-14.4-.74-.69-.9-1.72-.88-2.78.05-2.55.66-4.98,1.48-7.37,1.63-4.76,3.55-9.42,4.43-14.41.76-4.36-1.33-8.49-5.25-10.27-3.87-1.76-7.4-.72-10.35,3.09-1.35,1.75-2.68,3.51-3.92,5.34-2.13,3.16-3.93,6.48-4.12,10.4-.15,3.12-1.75,5.53-3.61,7.86-.91,1.14-1.71,1.17-2.72.15-.77-.78-1.58-1.52-2.73-1.78-3.33-.75-5.9.45-7.83,3.09-2.45,3.35-3.92,7.16-4.8,11.2-.57,2.63-.19,5.41-.78,7.96-1.44,6.22-2.74,12.49-4.78,18.57-1.35,4.02-2.9,7.99-3.61,12.2-1.12,6.68-.19,13.27.81,19.87.98,6.56.72,12.9-4.19,18.17-1.03,1.1-1.81,2.45-2.64,3.73-1.12,1.72-2.09,3.53-2.49,5.57-1.25,6.36-1.18,12.63,1.4,18.69,1.5,3.51,1.79,7.11.88,10.78-1.09,4.41-1.64,8.77.49,13.06.19.39.1.93.07,1.4-.33,4.72-.51,9.44-.3,14.17.11,2.48.51,4.91,1.77,7.11,2.8,4.91,9.04,5.85,12.61,1.77,1.98-2.27,3.35-4.96,3.93-7.96.84-4.27,1.64-8.53,3.56-12.5,1.05-2.19,1.47-4.58,1.52-7.03.09-3.91-.49-7.75-1.37-11.54-.92-3.97.42-7.41,3.26-9.8,4.8-4.04,6.03-8.95,5.18-14.8-.44-3.08-.41-6.17.3-9.23.54-2.35,1-4.72,1.43-7.09.72-3.92.75-7.93,1.45-11.86.91-5.09,2.54-10.1,2.06-15.39-.13-1.45.87-.88,1.44-.54,2.39,1.44,4.05,3.29,4.24,6.34.31,5.16,1.38,10.17,3.86,14.81.83,1.56,1.5,3.27,1.46,5.1-.05,2.14.37,4.18,1.13,6.15.47,1.22.61,2.45.37,3.71-.38,2.04-.43,4.09-.2,6.12.49,4.25,2.21,7.88,6.45,9.5,1.84.7,2.31,1.71,2.38,3.47.16,3.95,1.17,7.68,3.59,10.89,2.48,3.28,5.8,4.96,9.91,4.09,3.97-.84,6.19-3.65,6.85-7.56.3-1.74.27-3.57.18-5.34-.28-5.17.69-10,3.3-14.52,1.1-1.91,1.86-3.98,2.1-6.22.42-3.82.44-7.65.54-11.48.07-2.59,1.71-4.09,3.24-5.89.44.75.56,1.36.53,1.98-.14,3.43.74,6.65,1.94,9.81.47,1.24.7,2.5.67,3.84-.08,3.31-.22,6.63-.06,9.93.34,7.11,2.71,13.52,7.22,19.08.69.85,1,1.74.67,2.77-.79,2.46-1.15,5.01-1.41,7.56-.39,3.77.07,7.39,3.05,10.16,1.22,1.13,1.73,2.37,1.66,4.03-.05,1.13.21,2.3.44,3.42.76,3.72,3.19,6.18,6.31,8.06.92.55,1.36,1.11,1.13,2.27-.27,1.38-.45,2.79-.39,4.23.18,4.13,2.78,7.29,6.51,7.7,1.32.14,2.43.52,3.46,1.33.4.31.91.54,1.4.69,5.46,1.65,10.81-3.29,9.62-8.91-.44-2.05-1.05-4.09-1.1-6.18-.11-4.77-1.4-9.12-4.27-12.94-1.59-2.12-1.88-4.33-1.16-6.82,1.78-6.15,1.5-11.94-3.2-16.9-.76-.81-.84-1.83-.67-2.95.69-4.58.88-9.1-1.67-13.29-.54-.89-.9-1.89-1.31-2.86-.6-1.42-.63-2.79.15-4.21.88-1.6,1.64-3.29,2.16-5.06.36-1.22.69-2.45,1.12-3.97.99,1.42.97,2.72.97,4,0,3.94-.47,7.86-.33,11.81.26,7.24,3.74,10.83,10.96,11.15.57.03,1,.23,1.43.55.8.61,1.67,1.08,2.62,1.42.92.33,1.6.93,2.19,1.71,3.24,4.26,7.4,5.37,12.43,3.34.63-.26,1.28-.65,1.95-.53,4.9.93,8.78-1.3,12.21-4.27,6.54-5.68,12.31-12.02,15.54-20.26.05-.13.08-.27.15-.51.78,1.11.57,1.97.34,2.85-.88,3.27-1.53,6.57-.66,9.93.43,1.67.44,3.32.14,4.97-.29,1.57-.3,3.14-.27,4.71.14,6.3,5.93,10.32,11.9,8.21,4.34-1.53,5.9-5.11,6.43-9.28.45-3.55.02-7.25,1.83-10.58.27-.49.18-1.34.78-1.43.7-.11.94.71,1.27,1.22,1.68,2.66,2.96,5.6,5.36,7.74,1.58,1.4,2.04,3.07,1.83,5.08-.32,3.05.21,5.95,1.6,8.7.71,1.41,1.07,2.95,1.28,4.52.47,3.67,1.69,7.02,4.18,9.84,3.76,4.26,9.61,4.83,13.64,1.31,1.06-.93,1.75-2.15,2.61-3.71.03,2.52.11,4.6.36,6.67.38,3.12,1.23,6.06,3.27,8.55,1.71,2.09,3.99,2.88,6.67,2.81-1.02,2.44-1.19,2.84-3.27,3.79-7.9,3.62-14.05,9.52-20.33,15.28-1.81,1.66-2.99,3.78-3.99,5.99-1.94,4.29-1.03,9.36,4.72,12.13h6c1.55-.86,3.2-1.57,4.47-2.84,2.61-2.6,5.61-4.76,8.13-7.45,1.83-1.95,4.1-3.07,6.72-3.51,1.29-.22,2.58-.47,3.87-.74,3.51-.75,6.98-1.54,9.86-3.89,2.86-2.33,5.59-4.77,8.05-7.53,2.44-2.74,4.72-5.63,7.84-7.71,1.76-1.17,3.14-2.85,3.96-4.82,1.98-4.78,4.88-8.92,8.48-12.6,2.58-2.63,4.72-5.48,5.31-9.26.19-1.18.97-2.08,1.94-2.78,4.35-3.13,8.67-6.3,13.08-9.35,3.27-2.26,5.99-4.94,7.5-8.69.28-.7.78-1.23,1.27-1.78,2.55-2.89,6.05-3.99,9.47-5.38,5.81-2.35,10.68-6,13.37-11.82,1.02-2.2,2.44-3.52,4.55-4.42,3.45-1.48,6.64-3.43,9.37-6.02,1.08-1.03,2.2-1.94,3.51-2.63,8.09-4.28,14.19-10.96,20.69-17.14,2.67-2.54,2.97-6.23,1.29-9.13Zm-175.73,8.5c-1.49-1.61-1.48-1.63-.05-3.13.31-.32.55-.94,1.07-.7.27.12.35.71.44,1.11.14.66.21,1.34.33,2.06-.09.51-.1,1.22-.63,1.47-.61.29-.83-.46-1.15-.81Zm87.18,23.23c.32-.7,1.21-.57,1.84-.25.7.36.65.99.38,1.64-1.15,2.71-2.08,5.49-2.99,8.28-.7,2.16-1.24,4.33-.66,6.63.28,1.13-.21,1.9-1.38,2.27-2.9.92-5.81,1.8-8.66,2.87-3.01,1.13-5.44,2.97-6.38,6.26-.03.1-.1.2-.09.3.33,2.91-1.58,4.35-3.63,5.86-2.46,1.81-4.58,4.02-6.19,6.66-1.73,2.84-2.02,5.84-.73,8.88.58,1.37.28,2.25-.81,3.14-2.2,1.79-4.34,3.65-6.52,5.47-1.55,1.29-2.9,2.73-3.78,4.58-.27.57-.6,1.11-1.44,1.32.2-1.77.58-3.35,1.18-4.85,2.01-5.03,2.85-10.26,3.15-15.64.21-3.77.79-7.51.95-11.29.04-.95.42-1.84.93-2.65,2.27-3.62,2.49-7.63,2.06-11.7-.18-1.71-.21-3.33.31-4.97.51-1.6.97-3.21.82-4.93-.09-1.14.56-1.67,1.67-1.52,2.39.34,4.77.76,7.2.25.96-.2,1.68.43,2.45.89,3.6,2.14,7.45,3.18,11.6,2.2,2.71-.64,4.71-2.27,5.63-5,.62-1.84,2.29-2.97,3.08-4.71Zm-141.13-8.13c-.93,2.45-1.96,4.85-1.98,7.54,0,.54-.34.57-.75.32-.4-.25-.78-.57-1.22-.7-2.49-.73-3.4-2.41-3.07-4.44-.09-2.33,2.22-5.57,3.93-6,.97-.24,3.45,2.32,3.09,3.28Zm32.01,3.18c-.66,1.23-1.18,2.54-1.85,3.98-.98-1.53-1.88-2.91-2.76-4.31-.67-1.07-1.34-2.13-2.33-2.95-.91-.75-1.04-1.59-.43-2.63.87-1.48,1.66-3,2.65-4.8.29,1.29.45,2.27.74,3.21.63,2.05,1.64,3.88,3.45,5.12.99.68,1.08,1.36.53,2.37Zm53.94,8.4c-.36,2.01-.7,4-1.46,5.93-1.04,2.65-.96,5.35.24,7.96.82,1.8.93,3.55.28,5.48-.88,2.64-.89,5.45-.04,8.07,1.51,4.64,1.08,9.2-.04,13.78-.25,1.03-.44,2.09-1.1,3.05-.19-4.1-2.37-7.44-3.93-11-.77-1.77-.51-3.64-.31-5.44.81-7.21-.29-13.91-4.82-19.81-.65-.85-1.12-1.8-.94-2.92.85-5.31-1.36-9.56-4.84-13.24-2.5-2.65-2.3-2.66.58-4.77.25-.18.52-.32.95-.57.67,5.6,3.92,8.73,9.55,9.3,1.59.16,3.1.53,4.51,1.29,1.13.62,1.62,1.52,1.38,2.87Z"/>
  <path class="cls-3" d="m372.88,110.4c-2.46-.02-4.77.64-6.98,1.71-8.06,3.92-14.46,10.01-20.87,16.07-.86.81-1.62,1.45-2.91,1.59-2.41.28-4.45,1.51-6.23,3.15-.62.57-1.23,1.14-1.89,1.66-.7.55-1.41.56-1.24-.55.75-4.99-1.71-9.52-2.04-14.39-.16-2.43-.2-4.57.73-6.83,1.94-4.72,2.09-9.61.68-14.5-1.32-4.56-5.98-7.58-10.2-6.29-2.72.83-5.33,1.66-8.21,2.01-3.98.48-6.53,4.26-6.82,8.72-.15,2.34.36,4.59.65,6.87.7,5.48.23,10.88-.94,16.26-.58,2.66-1.04,5.34-1.6,8-.11.53-.27,1.23-.96,1.32-.61.08-.89-.52-1.16-.94-1.1-1.74-2.75-2.69-4.62-3.37-3.04-1.11-6.09-.84-9.16-.12-.92.22-1.84.53-2.71-.16-2.9-2.34-6.21-2.33-9.6-1.61-4.97,1.06-9.81,2.91-12.2,7.54-1.58,3.06-3.74,4.37-6.54,5.78-4.79,2.41-7.76,6.36-7.68,12.05.02,1.53-.52,2.9-1.23,4.18-1.61,2.91-2.56,5.96-2.47,9.32.02.55,0,1.39-.68,1.38-.69,0-.55-.87-.63-1.41-.4-2.85-1.67-5.25-4.05-6.83-1.62-1.08-1.82-2.46-1.51-4.07.35-1.8.84-3.57,1.29-5.35.94-3.68,1.26-7.37-.21-10.97-.56-1.38-.69-2.68-.44-4.13.59-3.47-1.34-7.16-4.43-8.67-1.71-.83-1.78-.92-.62-2.48,1.46-1.97,2.18-4.17,2.39-6.56.26-2.87.65-5.68,1.36-8.5,1.14-4.53.3-8.68-3.95-11.5-.7-.46-1.07-1.11-1.19-1.95-.77-5.44-5.9-8.15-10.84-7.37-4.37.7-7.27,3.29-9.01,7.28-.59,1.36-1.14,1.43-2.06.25-.48-.62-.93-1.28-1.47-1.85-.62-.63-.78-1.35-.61-2.17.47-2.24.35-4.5.28-6.75-.18-6.13-3.51-10.14-8.79-12.75-1.78-.88-3.69-1.23-5.67-.77-1.01.23-1.41-.21-1.72-1.09-1.65-4.61-5.53-6.85-10.4-6.08-1.46.23-2.9.32-4.23-.64-4.84-3.49-10.33-5.92-15.69-8.32-7.75-3.48-15.64-3.2-22.74,2.36-3.1,2.43-6.27,4.77-9.42,7.14-1.39,1.05-2.87,1.35-4.58.76-1.43-.5-2.9-.93-4.45-.94-5.6-.06-9.86,2.9-13.89,6.26-.86.72-1.62,1.16-2.79,1.08-3.47-.23-6.04,1.34-7.95,4.18-1.08,1.6-1.41,3.47-1.98,5.25v4.73c.84,3.71,2.35,7.08,5.4,9.5,1.22.97,1.48,2.08,1.21,3.46-.13.67-.33,1.32-.5,1.98-.85,3.47-1.67,6.93-1.24,10.56.61,5.14,3.36,9.16,7,12.52,2.51,2.32,3.2,4.7,1.97,7.85-1.26,3.23-1.36,6.54-.16,9.85.17.48.2,1.03.18,1.55-.05,1.46.28,2.84.98,4.09.63,1.13.79,2.28.57,3.49-.9,5.08.85,9.3,4.23,12.96.76.82,1.07,1.68.82,2.72-.6,2.5-.13,4.9.68,7.26.88,2.58,1.81,5.14,2.64,7.74,1.34,4.16,1.57,8.24-.29,12.42-1.58,3.53-.84,7,1.4,10.12,1.04,1.45,2.16,2.83,2.89,4.49.53,1.21.54,2.3-.09,3.45-2.6,4.73-2.57,9.86-.98,14.67,1.38,4.17,3.28,8.27,5.42,12.13,1.45,2.62,1.78,5.14,1.42,7.93-.49,3.75-.19,7.35,3.01,9.9,1.59,1.27,2.03,2.65,1.98,4.6-.12,4.89,1.63,9.06,5.52,12.14,4.24,3.36,10.01,2.21,12.8-2.42,1.61-2.67,1.86-5.61,1.38-8.53-.4-2.45.14-4.28,1.8-6.14,3.64-4.08,4.32-9.14,1.65-13.36-1.47-2.32-1.52-4.34-.58-6.8,1.8-4.69,1.25-9.17-1.78-13.27-.5-.68-.85-1.47-1.4-2.09-1.15-1.3-1.02-2.49-.19-3.95,2.8-4.98,3.05-10.17.82-15.43-.31-.73-.37-1.41-.13-2.12.42-1.25.7-2.53.8-3.84.06-.81.31-.97,1.08-.71,1.31.44,2.7.59,4.05.36,1.5-.26,2.41.4,3.1,1.56.57.94,1.12,1.9,1.62,2.88.71,1.42,1.56,2.74,2.66,3.89,2.31,2.42,5.05,3.82,8.47,3.04,1.77-.4,3.43-.93,4.97.51.16.15.5.14.76.15,2.62.05,3.82,1.65,4.32,3.98.38,1.75.93,3.44,1.84,5,2.23,3.78,5.87,5.5,10.14,4.55,1.59-.36,2.2.08,2.72,1.55,1.62,4.68,4.53,8.35,9.3,10.06,2.09.75,3.31,1.97,4.17,3.91,1.66,3.74,4.17,6.86,7.8,8.82,2.56,1.38,4.65,2.85,4.26,6.16,0,.09.07.2.09.3.84,3.37,2.55,6.3,4.55,9.09,1.56,2.17,3.22,4.28,4.46,6.67.78,1.51,1.84,2.99,3.39,3.64,3.63,1.53,6,4.14,8.12,7.4,2.19,3.37,6.08,4.28,9.47,2.99,3.48-1.32,5.73-4.67,5.38-8.57-.24-2.76-.5-5.55-1.07-8.24-1.85-8.84-5.4-16.87-12.21-23.13-.95-.87-1.36-1.92-1.46-3.19-.52-6.56-4.06-10.95-9.96-13.58-.77-.34-1.56-.66-2.21-1.18-1.32-1.06-1.46-2.59-.26-3.24,2.91-1.56,4.16-4.16,4.85-7.19.66-2.86.47-5.77.22-8.63-.26-3.01.58-5.69,1.7-8.36.39-.93.89-1.09,1.35-.15,1.49,3.03,4.05,4.44,7.25,4.88.93.13,1.35.57,1.52,1.47.24,1.23.42,2.58,1.41,3.45,2.12,1.83,2.69,4.23,3.01,6.85.52,4.2,2.85,6.95,6.32,7.79,3.43.84,6.96-.72,9.34-4.14.93-1.34,1.65-2.8,2.31-4.29.62-1.39,1.25-2.78,1.87-4.16.35-.79.87-1.26,1.82-1.21,2.49.14,4.72-.72,6.57-2.25,2.13-1.75,4.38-2.35,7.1-2.13,4.65.39,8.24-1.6,10.81-5.48.47-.72.9-1.51,2-2.22-.72,3.12-.79,6.02-1.81,8.72-1.24,3.3-2.15,6.68-2.74,10.15-.65,3.85.89,7.18,2.36,10.55,1.14,2.62,3.01,4.31,5.84,4.72,3,.43,5.6-.55,7.27-3.12,1.59-2.45,3.08-5,3.81-7.89.24-.96.33-2.02.8-2.86,2.64-4.83,3.68-10.12,4.51-15.47.35-2.22.78-4.44,1.26-6.64.09-.42.29-1.51,1.01-.89,1.07.91,2.55,1.45,3.2,2.75,1.46,2.9,3.04,5.74,3.39,9.08.39,3.71,1.7,7.09,4.63,9.54,1.95,1.63,3.25,3.58,3.84,5.98,1.05,4.26,3.16,7.98,5.67,11.51.37.52.79,1.03.87,1.66.47,4.01,2.43,7.7,2.42,11.82,0,1.24.35,2.49.85,3.66,1.33,3.1,3.76,4.82,7.04,5.05,2.87.2,5.41-.74,7.01-3.37.71-1.18,1.73-1.95,2.95-2.5,3.15-1.42,4.44-3.98,4.54-7.3.11-3.95-.8-7.69-2.19-11.36-2.4-6.34-4.57-12.74-5.22-19.54-.5-5.32-1.84-10.31-5.23-14.6-.77-.97-.95-2.19-1.02-3.42-.35-6.48-3.85-10.57-10.15-11.81-1.5-.29-2.62-.99-3.43-2.26-1.25-1.95-2.62-3.81-4.13-5.57-1.72-2.02-2.71-4.48-4.02-6.75-.57-.97-.46-1.84.82-2.18,2.84-.75,5.23-2.4,7.75-3.81,4.29-2.39,7.18-5.94,8.45-10.7.85-3.21,2.49-5.53,5.66-7.02,3.44-1.61,6.5-3.94,8.45-7.34,2.03-3.53,4.73-6.38,8.2-8.54,1.31-.81,2.31-1.98,3.06-3.34,3.13-5.63-.66-12.16-7.1-12.2Zm-224.79,31.87c-.03-3.78-.77-7.04-3.37-9.63-.87-.87-1.32-1.92-1.08-3.14.89-4.47-1.07-8.04-3.77-11.22-1.39-1.65-1.49-3.35-1.12-5.13.4-1.91.48-3.68-.24-5.53-.62-1.6-.15-2.67,1.42-2.82,4.08-.39,6.87-2.94,9.72-5.41,1.28-1.11,2.51-1.31,4.18-1.11,2.9.36,5.37.78,7.09,3.75,1.6,2.78,4.74,3.65,7.9,3.89.81.06,1.54.24,1.62,1.14.25,2.97,2.08,5.01,4.09,6.87,1.27,1.17,1.52,2.25.98,3.87-.78,2.36-.33,4.66,1.08,6.73,1.52,2.24,1.51,2.98-.22,5-.99,1.16-2.02,2.27-3.04,3.4-2.3,2.54-3.12,5.64-3.38,8.95-.03.42-.04.84-.06,1.26-.13,2.75-.43,3.14-3.09,3.62-3.67.65-6.81,2.38-9.71,4.63-.92.71-1.87,1.21-3.04.92-1.27-.31-2.31-.84-2.6-2.35-.38-2-1.31-3.76-2.83-5.15-.91-.83-.46-1.86-.53-2.55Zm65.22-17.3c.56-2.45.88-2.5,2.73-.89,1.19,1.04,2.45,1.97,3.77,2.84,1.17.77,1.27,1.72.14,2.33-3.8,2.03-4.56,5.48-3.87,9.15.57,3.05.36,5.87-.43,8.78-.69,2.6-.08,5.02,1.58,7.1.94,1.18.81,2.11.16,3.39-1.84,3.67-3.01,7.5-1.69,11.66.44,1.37,1.04,2.71,2.05,3.68,1.54,1.48,1.62,3.24,1.29,5.08-.65,3.7-1,7.36.32,11.02.25.7.16,1.57.08,2.34-.28,2.51.32,4.8,1.61,6.92.7,1.15.7,2.39.63,3.66-.05,1-.58,1.29-1.27.56-1.38-1.47-3.09-2.52-4.58-3.85-.96-.87-1.57-1.94-2.07-3.12-1.76-4.15-3.93-8.02-7.64-10.78-2.19-1.63-4.54-2.82-7.34-2.93-1.11-.04-2.12-.41-2.61-1.47-1.15-2.45-3.24-3.67-5.68-4.36-1.32-.38-2.19-1.06-2.78-2.3-.47-.99-1.08-1.94-1.8-2.76-.69-.78-.6-1.42-.21-2.27.76-1.62,1.76-2.48,3.74-2.74,5.41-.71,8.84-4.26,11.41-8.78,1.43-2.53,2.36-5.25,2.86-8.12.19-1.1.51-2.1,1.28-2.98,2.9-3.31,3.15-3.97,3.51-8.55.15-.58.07-1.26-.02-1.94-.11-.81.01-1.55.59-2.19,2.2-2.43,3.51-5.3,4.23-8.49Zm90.6,54.95c-.12.98-.11,1.98-.16,2.96-.57.14-.78-.32-1.08-.56-3.17-2.6-6.98-2.91-10.32-.48-1.53,1.11-2.59,1.07-3.99-.03-1.28-1-2.75-1.74-4.28-2.32-1.94-.74-3.87-.86-5.83-.03-.68.29-1.35.57-2.12.57-2.37-.02-3.05-.96-2.19-3.12,1.27-3.15.72-6.06-1.05-8.84-1.12-1.77-1.12-2.11.56-3.36,3.47-2.58,6.45-5.71,9.8-8.43.99-.81,1.78-1.79,2.11-3.07.42-1.68,1.55-2.24,3.18-2.13,1.8.12,3.57-.13,5.32-.47,2.35-.45,4.33-1.57,6.04-3.2.41-.39.84-.75,1.45-1.28.35,1.47.02,2.47-.5,3.48-1.79,3.53-3.1,7.22-3.56,11.18-.44,3.84,2.12,8.21,5.7,9.68.53.22,1.1.38,1.67.44,2.12.22,2.64,1.15,1.47,3.03-1.16,1.86-1.96,3.83-2.23,6Z"/>
  <path class="cls-3" d="m468.91,154.28c-.11,4.34-1.45,8.45-2.3,12.66-.13.64-.63,1.45.18,1.83.67.31,1.3-.28,1.72-.83.55-.73,1.2-1.32,1.96-1.8,1.36-.86,1.35-2.33,1.5-3.64.29-2.49,1-4.81,2.22-6.99.56-1.01.94-2.1,1.09-3.26.29-2.35.83-4.64,1.69-6.85.26-.67.42-1.43.42-2.15-.04-4.95,2.25-9.03,4.99-12.84,2.45-3.4,6.01-4.8,10.14-3.8,3.72.9,5.88,3.51,6.58,7.27.45,2.46-.24,4.78-1.01,7.08-.44,1.29-.89,2.58-1.27,3.89-.69,2.34-.94,4.53.43,6.91,1.62,2.83,1.09,5.99.24,9.04-1.1,3.94-2.28,7.85-3.11,11.86-.21,1-.3,2-.17,2.97.51,3.77.21,7.55.23,11.33,0,1.24.25,2.38.76,3.5,1.89,4.18,3.21,8.52,3.93,13.06.92,5.8-3,11.68-8.76,12.65-4.11.69-7.27-1.28-9.74-4.31-1.09-1.33-2.11-1.78-3.77-1.36-2.82.72-5.7.57-8.35-.58-2.88-1.24-5.98-2.03-8.6-3.87-.55-.39-1.15-.44-1.78-.13-4.8,2.36-9.67-.4-11.43-4.84-.35-.88-.69-1.76-1.07-2.62-.22-.49-.55-.95-1.16-.91-.56.04-.95.42-1.16.94-.2.49-.42.97-.55,1.47-.71,2.79-2.78,4.01-5.37,4.36-1.92.26-3.02.93-3.7,2.93-.99,2.92-3.37,4.69-6.41,5.24-3.08.55-5.7-.52-7.73-2.91-.51-.6-1.03-1.25-1.3-1.96-1.43-3.77-3.74-7.17-4.76-11.12-.19-.75-.25-1.79-1.35-1.86-.79-.05-2.08,1.78-1.99,2.72.07.73.32,1.44.36,2.16.11,2.09-.79,3.88-1.87,5.58-.81,1.29-1.56,2.59-2.12,4.03-1.29,3.31-4.21,5.15-7.77,5.07-3.36-.07-6.27-2.17-7.45-5.37-.14-.39-.35-.8-.34-1.2.06-3.93-1.27-7.57-2.24-11.3-.72-2.76-.18-5.47,1.22-7.9,2.37-4.13,4-8.53,5.22-13.12.34-1.27.43-2.43-.03-3.68-1.58-4.22-1.24-8.31.74-12.34,1.08-2.21,1.64-4.65,2.84-6.82,1.23-2.23,2.87-4.01,5.32-4.91,1.12-.41,1.64-1.22,1.77-2.37.39-3.44,1.78-6.45,4.07-9.04,2.48-2.81,5.5-4.27,9.27-3.18,3.77,1.09,5.47,3.99,6.22,7.61.6,2.85.2,5.77.58,8.63.05.42.06.84.17,1.25.24.9.72.94,1.32.29.14-.15.25-.34.36-.52,3.38-5.31,10.16-5.66,14.28-.75,1.74,2.07,2.59,4.53,3.18,7.11.06.25.04.53.1.78.24.89.24,2.04,1.44,2.19,1.32.17,1.25-1.16,1.47-1.86,1.07-3.43,2.69-6.6,4.39-9.74,1.73-3.19,4.19-5.33,8.02-5.06,3.78.27,6.07,2.57,7.37,5.98.66,1.74.98,3.53.91,5.4Z"/>
  <path class="cls-2" d="m802.64,261.3c-.84-.91-.4-1.61-.75-2.28-.33.71-.64,1.34-.98,2.06-.86-.55-.67-1.57-1.35-2.28-.04.76-.07,1.43-.11,2.1-.13.01-.26.02-.4.03-.24-1.04-.15-2.12-.07-3.19.01-.19.18-.43.43-.33.17.06.34.23.42.4.31.7.59,1.42.98,2.36.36-.96.62-1.67.9-2.38.1-.25.28-.47.59-.42.34.06.33.37.33.62,0,.97,0,1.94,0,3.31Z"/>
  <path class="cls-4" d="m798.47,257.49c-1.8.72-.41,2.48-1.22,3.56-1-1,.72-3.01-1.75-3.39,1.14-.55,2.02-.33,2.97-.16Z"/>
  <path class="cls-5" d="m559.44,117.37c-.84.34-1.17,1.07-1.43,1.8-1.61,4.66-3.03,9.38-3.82,14.26-.4,2.47.01,4.94.69,7.32,1.19,4.18,1.3,8.33.23,12.58-1.41,5.61-1.94,11.36-2.58,17.1-.29,2.59-.95,5.15-1.54,7.71-.96,4.17-.79,8.35-.2,12.52.48,3.42-.48,6.21-3.21,8.37-3.41,2.71-4.78,6.55-5.75,10.57-.65,2.68.63,5.17,1.08,7.73.92,5.24.88,10.25-1.64,15.17-1.57,3.08-2,6.61-2.57,10.02-.4,2.36-1.48,4.38-2.85,6.23-1.25,1.68-3.62,1.17-4.79-.9-.97-1.7-1.07-3.62-1.17-5.49-.24-4.31.08-8.61.43-12.9.08-1.01.21-2.06-.24-2.95-1.78-3.46-1.4-6.94-.53-10.55,1.12-4.65.91-9.26-1-13.73-2.17-5.1-2.41-10.38-1.28-15.74.59-2.81,2.19-5.17,4.03-7.22,6.07-6.76,6.48-14.76,5.26-23.09-.91-6.26-1.74-12.49-.42-18.77.34-1.64.76-3.28,1.36-4.84,2.98-7.82,4.68-15.99,6.68-24.08.65-2.64.23-5.44.78-8.13.66-3.23,1.89-6.21,3.62-9,.39-.63.92-1.11,1.63-1.42,1.61-.69,3.01.13,3.01,1.91,0,1.13-.21,2.25-.37,3.77,1.2-1.53,2.06-3.26,4.08-2.12,1.62.92,1.05,2.85,1.75,4.3.75-.39.78-1.09.85-1.72.39-3.7,1.96-6.81,4.57-9.44,1.89-1.91,2.41-4.43,2.59-6.94.22-2.89,1.25-5.41,2.81-7.75,1.43-2.14,2.97-4.21,4.52-6.26,1.21-1.59,2.42-2,3.95-1.48,1.63.55,2.75,2.04,2.76,3.83.01,2.84-1.02,5.45-1.88,8.08-1.39,4.23-3.19,8.33-3.73,12.81-.14,1.15-.28,2.29-.4,3.44-.24,2.37.2,4.34,2.34,5.92,2.62,1.93,2.46,4.92,2.23,7.79-.13,1.67-.3,3.35-.46,5.02-.21,2.16.06,4.14,1.62,5.86,1.1,1.21,1.38,2.82,1.4,4.42.01,1.31-.06,2.62-.17,3.93-.12,1.47-.04,2.7,1.49,3.6,1.45.85,2,2.39,1.98,4.06-.03,2.21.06,4.43-.17,6.61-.57,5.39.44,10.68.85,16.01.12,1.57.3,3.13.5,4.7.1.78.1,1.65.48,2.29,1.31,2.21,1.81,4.54,1.49,7.11,1.35-2.55,1.7-5.32,2.15-8.08,1.08-6.57.04-13.24.93-19.8.71-5.2,2-10.28,4.05-15.14.93-2.22,2.63-3.91,4.24-5.64,1.84-1.98,3.05-4.24,3.4-6.95.12-.93.31-1.88.65-2.75,2.79-7.17,3.02-15,5.84-22.16.89-2.27,1.83-4.46,3.35-6.37.56-.7,1.02-1.47,1.61-2.14,3.89-4.47,5.64-9.76,5.91-15.59.15-3.12,1.26-5.75,3.42-8.06,2.55-2.72,4.83-5.66,6.22-9.22.65-1.67,1.85-3.05,3.36-4.09,2-1.38,3.88-.86,4.9,1.36.94,2.04.74,4.08-.1,6.11-2.18,5.28-4.34,10.58-6.56,15.85-1.67,3.97-2.47,8.11-2.73,12.38-.08,1.26-.15,2.52-.28,3.77-.48,4.78.29,9.38,1.65,13.96,1.83,6.17,2.69,12.5,2.52,18.96-.11,4.12.25,8.12,2.07,11.96,1.53,3.23,1.89,6.75,1.47,10.32-.03.26-.13.57-.03.78,1.26,2.47.56,5.03.46,7.57-.05,1.24.12,2.57,1.07,3.36,2.5,2.06,2.39,4.72,2.03,7.49-.1.78-.25,1.56-.46,2.31-.75,2.79-.69,5.48-.03,8.35,1.03,4.47.33,9.04-1.89,12.99-2.73,4.87-2.28,9.3.46,13.79,1.58,2.59,1.52,5.4,1.28,8.24-.09,1.1-.18,2.2-.31,3.29-.21,1.83.23,3.49,1.5,4.8,3.43,3.54,4.1,7.63,2.72,12.23-.3,1-.44,2.05-.59,3.09-.32,2.34-.28,4.7,1.17,6.67,3.13,4.25,4.67,8.95,4.77,14.21.03,1.39.48,2.78.8,4.16.45,1.92-.04,3.25-1.5,3.81-1.63.63-2.78.08-3.78-1.81-.22-.42-.42-.84-.63-1.25-.37-.1-.46.21-.6.37-.81.92-1.84,1.03-2.89.66-1.05-.36-1.47-1.27-1.59-2.34-.22-1.96.15-3.89.42-5.8.29-2.05-.31-3.46-2.19-4.35-4.72-2.23-6.48-6.03-5.84-11.07.22-1.67-.11-2.81-1.9-3.55-1.89-.78-2.74-2.54-2.83-4.58-.15-3.55.54-7,1.51-10.38.55-1.92.32-3.43-.94-4.96-4.91-5.93-7.41-12.72-7.14-20.46.04-1.15-.02-2.31.05-3.47.22-3.76-.2-7.35-1.53-10.95-1.5-4.08-1.48-8.44-1.08-12.76.03-.31.05-.65.18-.92,1.76-3.84,2.19-8.11,3.84-11.96,1.48-3.47.9-6.32-1.99-8.72-.32-.27-.57-.63-.9-.88-2.27-1.73-2.91-4.13-2.89-6.82.01-1.73,0-3.46-.13-5.21-.93,1.72-1.06,3.64-1.44,5.48-.47,2.26-.76,4.55-1.14,6.82-.32,1.89-.38,3.78.13,5.63,1.65,6.02-.34,11.26-3.43,16.26-.85,1.38-1.88,2.67-2.95,3.89-1.9,2.16-2.71,4.67-2.78,7.5-.06,2.78-.24,5.56-.27,8.34-.02,2.37-.57,4.6-1.74,6.63-2.97,5.16-4.23,10.68-3.81,16.62.1,1.46-.05,2.94-.15,4.4-.12,1.7-.87,3.08-2.52,3.68-1.73.63-3.33.19-4.66-1.07-2.04-1.94-2.86-4.49-3.28-7.16-.31-1.97-.56-3.96-.6-5.95-.03-1.75-.9-2.8-2.44-2.94-4.49-.41-6.44-4.05-6.07-8.26.33-3.77-.02-7.32-.76-11.08-.9-4.63-1.99-9.04-3.97-13.3-1.45-3.13-1.41-6.65-1.94-10.01-.14-.88-.3-1.76-.42-2.64-.29-2.05-1.24-3.62-3.09-4.66-1.48-.84-2.47-2.07-2.79-3.81-.23-1.28-.94-2.26-1.96-3.12-2.37-1.99-3.76-4.46-3.5-7.7.21-2.67.31-5.35.4-8.02.03-.81.16-1.68-.4-2.44Z"/>
  <path class="cls-5" d="m803.28,209.33c-2.96-2.21-2.78-4.62.33-6.32,1.3-.71,2.7-1.14,4.12-1.53,3-.8,5.88-1.92,8.76-3.07,1.18-.47,1.88-1.16,1.56-2.49-1.17-4.83.42-9.2,2.13-13.58,1.34-3.43,2.03-7.05,2.8-10.63.16-.72.1-1.02-.74-1.14-2.39-.33-4.08-2.28-4.14-4.75-.05-1.79-.11-3.56-.27-5.35-.22-2.43-.65-4.81-1.73-6.98-2.03-4.11-2.66-8.47-2.69-12.98,0-1.1-.07-2.21-.04-3.31.13-4.58-.14-9.09-1.33-13.56-.66-2.49-.35-5.11.04-7.67.16-1.07.76-1.9,1.76-2.24.86-.29,1.12-.72,1.1-1.59-.09-4.61.44-9.24-.61-13.81-.22-.97-.19-1.99.05-2.98.23-.97.72-1.78,1.78-2,1.04-.21,1.85.23,2.45,1.06.19.25.37.51.52.79,3.24,5.97,6.12,12.17,7.46,18.78,1.08,5.31,3.39,10.12,4.88,15.23.18.61.5,1.21,1.03,1.56,3.88,2.57,4.27,6.58,4.55,10.68.26,3.84,0,7.66-.06,11.49-.02,1.27.25,2.37,1.07,3.35.97,1.16,1.55,2.49,1.48,4.04-.03.61.22,1.11.62,1.57.65.75,1.29,1.52,1.89,2.32,2,2.66,2.69,5.53,1.4,8.73-.16.39-.24.8-.35,1.21-.02.09.02.2.04.43.73-.46,1.01-1.2,1.39-1.81,1.1-1.81,2.67-2.98,4.71-3.44,3.39-.77,6.56-2.03,9.77-3.37,4.25-1.77,8.37-3.48,12.23-6.16,3.48-2.41,7.24-4.39,10.22-7.51,1.1-1.15,2.5-1.89,3.97-2.51,2.65-1.13,5.37-2.14,7.88-3.59.99-.57,2.06-.79,3.19-.52,2.23.53,3.03,2.5,1.58,4.26-2.34,2.85-5.26,5.14-7.94,7.65-3.8,3.57-7.77,6.9-12.48,9.27-1.41.71-2.58,1.78-3.72,2.89-2.21,2.14-4.82,3.71-7.63,4.96-1.79.79-3.44,1.8-5.02,2.94-.55.4-1.05.83-1.28,1.54-2.2,6.77-7.33,10.45-13.74,12.55-3.62,1.19-6.57,3.21-9.21,5.83-.98.97-1.79,2.05-2.32,3.34-1.01,2.45-2.7,4.34-4.87,5.85-3.97,2.76-7.91,5.56-11.88,8.31-3.35,2.32-5.98,5.1-6.57,9.36-.18,1.29-1.06,2.25-1.93,3.19-3.46,3.75-6.89,7.52-9.24,12.11-.45.89-.98,1.75-1.32,2.68-.59,1.64-1.55,3.07-2.97,3.98-3.29,2.12-5.66,5.15-8.2,8.01-1.82,2.05-3.86,3.86-5.84,5.75-2.62,2.5-5.81,3.68-9.29,4.31-1.34.24-2.67.6-4.02.79-3.97.58-7.13,2.59-9.95,5.34-2.48,2.42-5.1,4.7-7.66,7.03-.91.83-1.99,1.37-3.2,1.6-2.76.54-4.95-1.84-4.05-4.5.74-2.21,1.95-4.18,3.72-5.76,5.92-5.28,11.65-10.79,19.06-14.08,1.92-.85,3.35-2.29,4.27-4.24,1.48-3.16,3.84-5.48,7.01-6.97.54-.25,1.03-.58,1.14-1.22.38-2.27,2.02-3.61,3.65-4.95,3.08-2.54,6.14-5.1,8.7-8.21,1.01-1.23,1.14-2.25.28-3.66-2.14-3.49-1.93-5.08.78-8.15,2.46-2.79,5.42-4.96,8.61-6.83.72-.42,1.44-.85,2.32-1.37Z"/>
  <path class="cls-5" d="m747.89,211.05c.1-2.31.1-4.62.25-6.93.26-4.16-.52-8.04-2.81-11.57-.8-1.23-1.57-2.49-2.37-3.72-.76-1.15-1.01-2.32-.74-3.73.34-1.81.48-3.72-.41-5.41-2.03-3.84-4.53-7.32-8.49-9.44-.8-.42-1.4-.93-1.45-1.89-.06-1.05.78-1.28,1.49-1.57,2.01-.82,4-1.68,5.61-3.14,1.65-1.5,3.6-2.18,5.66-2.9,6.41-2.25,11.33-8.86,7.51-16.73-1.31-2.69-3.4-4.99-4.97-7.6-.75-1.25-.85-2.02-.22-3.19,1.28-2.38.97-4.03-.91-5.98-1.85-1.92-4.09-2.46-6.64-1.93-2.2.46-4.25.2-6.23-.93-3.41-1.94-5.62-1.54-8.08,1.57-2.43,3.07-5.52,5.66-6.92,9.49-.03.07-.17.09-.33.18-.14-.27-.31-.52-.42-.79-1.12-2.65-.84-5.47-.95-8.23-.07-1.64-.18-3.26-.83-4.77-.99-2.33-2.68-3.1-5.09-2.39-1.95.58-3.11,2.5-2.8,4.87.2,1.52.5,3.11.12,4.54-1.06,4.01-.15,8.19-1.21,12.19-.24.92-.15,1.9.11,2.81.86,3.04.58,6.01-.33,8.98-.86,2.78-1.37,5.6-1.06,8.53.23,2.13,1.22,3.75,3.09,4.84,2.02,1.18,2.58,2.79,1.81,5.08-.18.54-.41,1.09-.71,1.57-2.15,3.43-2.36,6.85-.15,10.35.82,1.3.87,2.75.5,4.26-.44,1.78-1.11,3.62-1.01,5.38.29,4.81.53,9.58.09,14.4-.18,1.97,1.34,3.37,3.22,3.68,2.02.33,3.71-.59,4.58-2.54.85-1.92,1.07-3.96.93-6.02-.18-2.71.45-5.18,1.69-7.57.72-1.4,1.33-2.86,1.51-4.45.52-4.51.31-9.01-.15-13.51-.17-1.66.22-3.17,1.12-4.61.74.57.57,1.25.58,1.84.04,2.47,0,4.94.07,7.41.04,1.77.34,3.51,1.9,4.63,2.44,1.77,4.08,4.2,5.79,6.6,1.55,2.18,2.56,4.76,4.61,6.55,2.86,2.5,3.93,5.58,3.45,9.3-.27,2.08.19,4.05,1.11,5.95,1.1,2.29,1.64,4.75,2,7.25.42,2.92,1.65,5.41,4.04,7.22,1.42,1.08,3.02,1.26,4.6.43,1.54-.8,2.13-2.14,2.17-3.89.05-3.02-1.14-5.61-2.42-8.21-.97-1.97-1.98-3.94-1.88-6.26Zm-18.87-58.62c-.09.51-.1,1.22-.63,1.47-.61.29-.83-.46-1.15-.81-1.49-1.61-1.48-1.63-.05-3.13.31-.32.55-.94,1.07-.7.27.12.35.71.44,1.11.14.66.21,1.34.33,2.06Z"/>
  <path class="cls-5" d="m761.9,231c-.25-3.8.92-7.53,1.65-11.34.84-4.4,1.1-8.82-.51-13.17-.98-2.65-.58-5.33.55-7.82.64-1.39.56-2.49-.05-3.83-.97-2.13-2.31-4.37-1.31-6.75,1.03-2.45,1.58-4.89,1.66-7.54.05-1.57,1.18-2.89,1.8-4.33.76-1.73.68-1.86-1.1-1.8-.71.03-1.35-.16-1.97-.48-1.07-.55-2.18-1.05-3.2-1.69-1.83-1.14-3.74-1.86-5.94-1.66-.8.07-1.55-.25-2.26-.59-1.73-.84-2.56-2.26-2.32-3.89.24-1.57,1.72-3.03,3.53-3.07,2.03-.04,3.75-.53,5.35-1.83,1.17-.95,2.71-1.03,4.21-1.05,2.22-.03,2.76-.54,2.97-2.75.05-.57-.03-1.15-.09-1.72-.31-2.66-.15-5.26,1.17-7.65.97-1.76,1.35-3.58,1.24-5.59-.16-2.82.29-5.57,1.64-8.08,1.47-2.75,1.35-5.79,1.82-8.72.24-1.51.46-3.06,1.29-4.34,1.65-2.56,2.7-5.44,4.37-7.99.61-.93.88-2.01,1.3-3.03,1.05-2.55,2.67-4.53,5.52-5.15,3.31-.72,5.62,1.57,4.97,4.88-.51,2.57-1.88,4.76-3.15,7-.96,1.69-1.96,3.35-2.9,5.05-.59,1.06-.41,2.05.58,2.79,2.93,2.19,3.51,5.36,2.33,8.34-1.85,4.64-2.4,9.52-3.53,14.29-.99,4.14-2.49,8.11-3.87,12.12-.55,1.59-.17,2.03,1.5,1.78,1.92-.28,3.83-.64,5.79-.57,2.36.08,3.17.62,3.82,2.88.21.71.5.59,1.02.44,3.96-1.16,7.47-.58,10.28,2.68.5.58,1.16.64,1.86.64,2.34,0,4.44.82,6.33,2.12,3.08,2.12,2.9,5.04-.43,6.72-.94.47-1.7.7-1.16,2.12.49,1.29-.9,2.72-2.61,2.91-2.71.3-5.21-.36-7.52-1.78-.72-.44-1.4-.93-2.1-1.4-.79-.53-1.56-.5-2.52-.33-3.84.65-7.66.9-10.77-2.19-.37-.36-.82-.67-1.29-.9-1.3-.64-2.21-.12-2.17,1.32.05,1.78.23,3.56.36,5.34.2,2.77-.12,5.46-1.38,7.97-.6,1.19-.39,2.34-.17,3.53.73,4.07.78,8.01-1.81,11.61-.97,1.35-.86,3.12-1,4.73-.47,5.28-.87,10.56-1.32,15.84-.2,2.32-1,4.5-1.72,6.69-.75,2.29-1.57,4.56-2.02,6.94-.12.61-.3,1.23-.58,1.79-.85,1.68-2.63,1.89-3.84.44-1.66-1.99-2.07-4.43-2.28-6.91-.08-.94-.01-1.89-.01-2.98Z"/>
  <path class="cls-5" d="m699.12,177.16c-1.12-2.26-2.47-4.42-4.15-6.3-1.79-2.01-2.13-4.13-1.12-6.54.42-1.02.83-2.05,1.34-3.02,1.27-2.44,1.79-5.02,1.58-7.8.13-3.12-.34-6.14-2.03-8.88-.34-.55-.36-1.19-.47-1.81-.3-1.7-.52-3.41-1.72-4.82-2.61-3.1-5.65-5.56-9.5-7.05-5.22-2.02-10.1-1.89-14.47,1.87-2.64,2.27-4.88,4.95-6.64,7.96-.78,1.32-1.72,2.31-3.07,3.03-4.6,2.46-7.24,6.27-7.78,11.48-.23,2.19-.95,4.11-2.45,5.82-2.82,3.21-3.74,7.95-.5,12.27,2.1,2.79,2.52,6.16,2.15,9.61-.39,3.61-.55,7.23-.13,10.84.34,3.01,2.55,4.87,5.4,4.44,1.67-.25,3,.22,4.24,1.19,1.17.92,2.45,1.64,3.91,1.97,1.12.26,1.76.85,2.22,1.93,1.05,2.47,3.2,3.43,5.81,2.72,1.01-.27,1.97-.71,2.96-1.08.54-.2,1.09-.47,1.68-.29,3.1.92,5.66-.3,8.09-2.03,5.99-4.26,10.11-10.14,14.08-16.15.32-.47.52-1.03.72-1.57.98-2.61,1.11-5.25-.15-7.79Zm-25.83-8.96c-.93,2.45-1.96,4.85-1.98,7.54,0,.54-.34.57-.75.32-.4-.25-.78-.57-1.22-.7-2.49-.73-3.4-2.41-3.07-4.44-.09-2.33,2.22-5.57,3.93-6,.97-.24,3.45,2.32,3.09,3.28Z"/>
  <path class="cls-5" d="m256.39,274.19c-.14-1.35-.63-2.68-.63-4.03,0-4.09-1.41-7.81-2.79-11.54-1.76-4.71-4.57-8.72-8.27-12.12-1.81-1.66-2.87-3.55-2.95-6.16-.15-4.66-2.67-7.8-7.02-9.5-2.6-1.01-4.59-2.69-5.74-5.3-.48-1.1-1.11-2.14-1.75-3.17-.68-1.11-1.65-1.89-2.91-2.28-2.3-.72-3.73-2.23-4.26-4.61-.28-1.28-.72-2.52-1.06-3.78-.88-3.29-2.65-5.98-5.6-7.7-2.37-1.38-3.78-3.33-4.68-5.85-.85-2.37-1.99-4.65-3.67-6.56-2.64-3.01-5.63-5.13-9.92-3.45-.92.36-1.22-.27-1.51-.91-.67-1.49-1.34-2.98-2.34-4.27-1.06-1.36-2.8-1.95-4.03-1.07-1.3.93-1.54.14-1.98-.76-1.17-2.41-2.26-4.86-3.96-6.97-1.13-1.41-2.52-2.39-4.45-2.24-.81.07-1.34-.29-1.56-1.02-.28-.87.49-1.07,1.03-1.31,2.78-1.24,4.73-3.25,5.83-6.09.54-1.4,1.59-2.19,3.05-2.44,1.34-.24,2.72-.34,4.03-.68,3.85-.97,5.83-3.92,7.4-7.22,1.26-2.63,1.78-5.48,2.24-8.33.08-.47.08-.98.55-1.24,3.31-1.87,3.86-5,3.5-8.3-.24-2.23.49-3.81,1.9-5.37,2.93-3.24,3.93-7.09,3.37-11.39-.45-3.44-.64-6.81.42-10.28,1.21-3.96.38-7.59-3.16-10.26-.9-.68-1.27-1.61-1.16-2.77.19-2.04.31-4.08.46-6.12-.04,0-.08,0-.12,0,0-1.15.07-2.31-.01-3.46-.34-5.1-5.66-8.6-10.46-6.92-.84.29-1.67.65-2.54.81-1.06.2-1.82-.11-1.92-1.43-.1-1.41-.28-2.83-.62-4.19-.5-1.97-1.77-2.87-3.8-2.87-.78,0-1.57.15-2.35.2-1.61.09-3.29.55-4.74-.54-4.88-3.64-10.55-5.87-15.9-8.62-5.93-3.03-12.15-3.07-17.8,1.3-2.58,2-5.21,3.92-7.74,5.97-3.81,3.09-7.86,4.56-12.69,2.52-1.67-.7-3.4-.43-5.06.3-3.37,1.48-6.36,3.46-8.65,6.4-.93,1.19-1.9,1.57-3.38.73-1.79-1.02-3.35-.44-4.4,1.34-.51.87-.8,1.81-.9,2.83-.39,3.82.61,7.11,3.77,9.48,2.72,2.04,3.27,4.74,2.67,7.84-.36,1.85-.77,3.69-1.23,5.53-1.29,5.19-.29,9.77,3.51,13.66,1.21,1.24,2.38,2.52,3.51,3.84,1.76,2.06,2.55,4.38,2.07,7.15-.31,1.82-.74,3.59-1.25,5.36-.51,1.74-.51,3.42.49,5,.37.57.48,1.18.3,1.81-.43,1.43,0,2.7.71,3.91,1.03,1.72,1.25,3.56.82,5.47-.65,2.92-.06,5.51,1.83,7.82.7.85,1.35,1.74,2.08,2.57,1.23,1.4,1.71,2.93,1.17,4.79-.55,1.92-.39,3.83.31,5.72.87,2.36,1.73,4.73,2.48,7.13,1.62,5.25,2.5,10.55.11,15.83-1.07,2.37-.82,4.47.87,6.43,1.79,2.06,2.89,4.47,3.72,7.05.6,1.88.31,3.5-.61,5.26-2.42,4.65-2.28,9.39.26,13.96.95,1.71,1.87,3.4,2.33,5.3.39,1.61,1.12,3.04,2.29,4.24.71.73,1.16,1.57,1.2,2.65.14,3.09.47,6.16-.09,9.25-.26,1.39.32,2.59,1.41,3.48.61.5,1.26.95,1.91,1.39,1.37.92,2.09,2.08,1.92,3.83-.15,1.51-.08,3.04-.03,4.57.06,2.01.79,3.79,2.08,5.32,1.35,1.59,2.95,2.29,4.24,1.7,1.68-.76,2.27-2.25,2.26-4,0-2.15,0-4.31-.39-6.44-.26-1.38.18-2.45,1.12-3.42,1.09-1.13,2.17-2.29,3.03-3.63,1.55-2.42,1.6-4.74-.13-7.16-1.78-2.49-2.4-5.45-1.21-8.22,2.02-4.68,1.5-8.74-1.78-12.56-2.68-3.12-2.66-6.29-.55-9.81,2.23-3.72,2.2-7.72.12-11.57-.76-1.41-.92-2.68-.14-4.12,1.17-2.16.99-4.31-.17-6.46-.87-1.61-1.59-3.3-2.01-5.11-.33-1.41.01-2.58.98-3.62,1.08-1.16,1.79-1.21,2.92-.11,1.21,1.17,2.37,2.39,3.55,3.59,2.23,2.27,4.82,3.29,8,2.41,1.67-.46,2.9.14,3.96,1.49,1.66,2.12,3.02,4.41,4.3,6.76,2.19,4.02,4.11,4.41,7.69,1.61.88-.69,1.6-.65,2.37.04.66.6,1.32,1.2,1.96,1.82.67.64,1.47,1.21,2.37,1.1,2.66-.35,3.86,1.22,4.91,3.28,1.05,2.07,1.89,4.19,2.59,6.39,1.03,3.25,3.02,4.14,6.22,3.03.74-.26,1.5-.5,2.19-.87,1.33-.71,2.12-.27,2.8.96,1.23,2.21,2.22,4.52,3.31,6.79,1.54,3.23,3.88,5.48,7.64,5.77,1.37.1,2.19.82,2.77,2,.76,1.56,1.57,3.09,2.37,4.63,1.41,2.72,3.37,4.91,6.05,6.47,1.68.98,3.27,2.11,4.85,3.24.83.59,1.66,1.41,1.46,2.46-.76,3.88,1.03,6.95,3.02,9.95,1.42,2.14,3.25,4.07,4.38,6.34,1.37,2.76,3.39,4.45,6.21,5.39,1.52.51,2.58,1.53,3.37,2.92.78,1.37,1.6,2.72,2.53,3.98.76,1.02,1.82,1.61,3.17,1.11,1.39-.52,1.9-1.62,1.76-3Zm-108.3-131.92c-.03-3.78-.77-7.04-3.37-9.63-.87-.87-1.32-1.92-1.08-3.14.89-4.47-1.07-8.04-3.77-11.22-1.39-1.65-1.49-3.35-1.12-5.13.4-1.91.48-3.68-.24-5.53-.62-1.6-.15-2.67,1.42-2.82,4.08-.39,6.87-2.94,9.72-5.41,1.28-1.11,2.51-1.31,4.18-1.11,2.9.36,5.37.78,7.09,3.75,1.6,2.78,4.74,3.65,7.9,3.89.81.06,1.54.24,1.62,1.14.25,2.97,2.08,5.01,4.09,6.87,1.27,1.17,1.52,2.25.98,3.87-.78,2.36-.33,4.66,1.08,6.73,1.52,2.24,1.51,2.98-.22,5-.99,1.16-2.02,2.27-3.04,3.4-2.3,2.54-3.12,5.64-3.38,8.95-.03.42-.04.84-.06,1.26-.13,2.75-.43,3.14-3.09,3.62-3.67.65-6.81,2.38-9.71,4.63-.92.71-1.87,1.21-3.04.92-1.27-.31-2.31-.84-2.6-2.35-.38-2-1.31-3.76-2.83-5.15-.91-.83-.46-1.86-.53-2.55Z"/>
  <path class="cls-5" d="m326.33,145.06c1.24-1.24,2.67-1.83,4.18-2.34,2.5-.85,4.47-2.49,6.3-4.34,1.57-1.58,3.26-3.39,5.53-3.37,3.42.04,5.01-2.31,7.15-4.19,5.78-5.09,11.27-10.58,18.34-14,1.34-.65,2.74-1.08,4.2-1.29,1.75-.25,3.15.4,3.76,1.67.62,1.3.21,2.96-1.15,4.08-.76.63-1.74,1.01-2.47,1.67-2.7,2.44-5.78,4.54-7.3,8.09-.92,2.14-2.68,3.6-4.6,4.86-.88.58-1.73,1.25-2.69,1.63-4.37,1.75-6.56,5.22-7.68,9.53-.95,3.69-3.15,6.32-6.44,8.15-3.03,1.69-5.99,3.45-9.44,4.26-2.25.53-3.55,3.6-2.61,5.71.02.05.04.1.07.14,2.77,3.12,3.75,7.35,6.53,10.49,1.35,1.53,2.54,3.22,3.63,4.95,1.41,2.22,3.26,3.53,5.89,4.02,4.79.89,6.37,2.8,6.79,7.64.17,1.96.52,3.9,1.73,5.49,2.66,3.49,4.04,7.38,4.42,11.75.7,7.86,3.18,15.27,6,22.58.95,2.47,1.41,5.05,1.56,7.68.16,2.82-1.52,4.49-3.78,3.78-.52-.16-.99-.51-1.64-.86-.04.95-.05,1.77-.13,2.59-.18,1.99-1.48,3.33-3.27,3.4-1.83.08-2.97-.95-3.44-2.97-.31-1.3,0-2.64-.31-3.92-.87-3.65-1.76-7.31-2.78-10.92-.41-1.47-1.52-2.63-2.38-3.88-1.65-2.41-2.89-4.98-3.66-7.79-.95-3.45-2.48-6.53-5.43-8.82-1.92-1.49-2.76-3.7-2.98-6.06-.45-4.75-2.7-8.78-4.98-12.8-.2-.35-.5-.76-.85-.89-1.93-.69-2.66-2.25-3.12-4.04-.09-.35-.23-.7-.4-1.02-.49-.95-1.12-1.11-1.76-.16-1.17,1.73-2.51,2.93-4.85,2.23-.87-.26-.94.69-1.04,1.26-.78,4.39-1.53,8.78-2.29,13.17-.69,3.99-1.62,7.91-3.67,11.48-.38.66-.6,1.47-.71,2.23-.38,2.73-1.96,4.95-3.1,7.35-.5,1.04-1.47,1.7-2.72,1.46-1.25-.25-2.01-1.05-2.18-2.37-.11-.89-.48-1.67-1.04-2.42-1.2-1.62-.9-3.51-.66-5.32.27-2.03.7-4.06,1.47-5.95,2.32-5.66,2.46-11.77,3.75-17.64.25-1.12.23-2.3.44-3.43.31-1.66.22-3.09-.94-4.55-1.5-1.89-.6-3.95.48-5.72.76-1.26,1.16-2.53,1.35-3.96.35-2.54,1.08-5.02.86-7.63-.08-.97.41-1.82.75-2.71.32-.83.62-1.67.84-2.53.09-.37.21-.91-.24-1.14-.5-.26-.73.23-1,.53-1.2,1.39-2.4,2.79-3.59,4.19-1.52,1.79-2.73,2.27-4.18,1.66-1.6-.68-2.79-2.95-2.51-4.87.33-2.24.91-4.44,1.9-6.47,1.44-2.96,2.4-5.95,2.59-9.29.22-4.07,2.13-7.76,3.15-11.66,1.69-6.51,3.22-13.05,2.91-19.85-.12-2.51-.29-5.02-.78-7.51-.3-1.55-.33-3.13.21-4.67.85-2.42,2.79-3.3,4.96-1.97,1.33.82,1.95.54,2.91-.54,2.41-2.72,5.29-2.67,6.78-.05.47.83.67,1.75.82,2.69.59,3.57.09,7-1.28,10.33-.36.87-.62,1.79-1,2.65-.6,1.36-.66,2.62-.04,4.07.8,1.85.76,3.89.74,5.9,0,.73-.07,1.48.31,2.16,2.22,3.91,1.53,7.86-.23,11.61-1.09,2.32-.97,4.29.07,6.81Z"/>
  <path class="cls-5" d="m291.01,198.32c-.68-.05-1.37-.07-2.04-.17-1.82-.28-3.42.17-4.88,1.29-1.04.8-2.13,1.54-3.24,2.24-1.33.84-2.7,1.32-4.3.58-1.32-.61-2.31.11-3.11,1.16-1.35,1.77-2.22,3.8-3.14,5.8-.82,1.76-1.48,3.59-2.6,5.2-.95,1.36-2.16,2.4-3.93,2.11-1.78-.29-2.37-1.74-2.74-3.28-.11-.46-.23-.92-.25-1.39-.14-2.88-.57-5.52-3.17-7.46-1.43-1.07-1.47-2.92-1.08-4.67.53-2.4-.42-3.42-2.93-3.2-.99.09-1.99.25-2.98.21-2.14-.09-3.34-1.4-3.38-3.55-.04-2.15.7-4.13,1.35-6.11.29-.9.31-1.31-.84-1.38-1.53-.09-2.31-1.13-2.43-2.62-.17-2.3.61-4.34,1.89-6.2.65-.95,1.34-1.88,2.01-2.82,1.62-2.26,2.82-4.62,2.56-7.57-.13-1.52.48-2.98,1.22-4.34,1.49-2.76,2.39-5.62,2.49-8.83.09-3.12,2.22-5.12,4.81-6.55,1.75-.97,3.7-1.48,5.61-2.07.77-.23,1.53-.5,1.6-1.49.37-6.05,5.21-7.51,9.68-9.11,2.65-.95,5.38-.79,7.58,1.54.72.76,1.79.98,2.93.64,1.25-.37,2.55-.63,3.84-.86,1.61-.29,3.23-.37,4.83.15,3.18,1.04,4.04,3.7,2.03,6.41-2.15,2.92-5.25,3.74-8.68,4.07-2.75.26-5.58-.14-8.27.9-1.18.46-1.89.8-.78,2.16.85,1.03.27,2.45-.91,3.58-3.37,3.25-7.07,6.1-10.68,9.08-1.47,1.21-2.68,2.65-3.29,4.53-.35,1.1-.16,1.86.8,2.59,3.39,2.54,3.82,4.45,1.86,8.25-.94,1.82-2.02,3.56-3.04,5.33-.52.91-1.01,1.84-1.28,2.87-.27,1.01,0,1.87.8,2.54.81.68,1.67.56,2.49.05,1.11-.7,2.23-1.4,3.27-2.19,1.58-1.19,3.28-1.37,5.05-.63,1.19.49,2.25.43,3.26-.34,1.35-1.03,2.72-.94,4.11-.12,1.54.91,3.07,1.82,4.61,2.74,2.39,1.43,4.09,1.29,6.15-.51.28-.24.56-.48.87-.68,1.25-.82,2.59-1.26,4-.46,1.45.83,1.83,2.28,1.76,3.8-.23,4.85-4.63,8.89-9.47,8.8Z"/>
  <path class="cls-5" d="m226.33,207.54c.1-1.57.18-3.14.3-4.71.19-2.65.13-5.21-1.5-7.54-.82-1.17-1.03-2.58-.71-4.07.3-1.39.22-2.79-.37-4.16-.91-2.11-.58-4.33-.33-6.53.22-1.98.42-3.96.48-5.96.03-1.25-.33-2.25-1.2-3.12-.41-.41-.76-.87-1.14-1.31-1.63-1.91-2.09-4.05-1.34-6.46.54-1.71,1.24-3.34,2.02-4.95.5-1.04.89-2.12,1.03-3.29.17-1.47.14-2.69-1.52-3.5-1.4-.68-1.8-2.13-1.55-3.66.13-.77.34-1.54.57-2.29.7-2.33,1.18-4.63.12-7.03-.43-.98-.34-2.17-.18-3.27.29-2.09,1.92-3.16,3.86-2.36,1.33.55,2.28.47,3.37-.59,1.4-1.35,4.05-1.49,5.61-.57,1.42.84,1.94,2.31,1.47,4.58-.33,1.6-.25,3.08.48,4.58,1.56,3.17,1.16,6.41.27,9.68-.84,3.08-1.79,6.14-1.16,9.43.33,1.75.93,3.18,2.61,4.03,2.69,1.35,4.41,5.42,1.9,8.64-.16.21-.28.45-.45.65-2.64,3.09-3.49,6.25-1.05,9.99,1.32,2.03,1.33,4.49.59,6.85-.42,1.35-.65,2.8-1.3,4.03-2.49,4.67-2.62,9.63-2.15,14.71.17,1.86-.14,3.67-.73,5.42-.93,2.78-3.59,3.4-5.68,1.32-1.4-1.38-2.11-3.13-2.23-5.07-.07-1.15-.01-2.31-.01-3.46-.02,0-.04,0-.06,0Z"/>
  <path class="cls-5" d="m229.25,102.74c3.61-.7,6.09,1.6,5.2,5.35-.88,3.69-1.34,7.39-1.83,11.13-.46,3.56-2.95,5.46-6.28,5.35-1.66-.05-2.89-.87-3.86-2.13-.69-.9-1.49-1.53-2.57-1.97-2.57-1.05-4.02-4.08-3.47-6.9.42-2.2,1.51-4.14,2.6-6.04.89-1.55,1.05-2.92.11-4.53-1.25-2.15-.82-4.27.71-6.14,1.62-1.97,3.69-2.9,6.29-2.29,1.92.45,2.95,1.67,3.08,3.83.08,1.4.02,2.81.02,4.34Z"/>
  <path class="cls-5" d="m428.2,179.31c2.97-3.51,3.7-7.5,3.03-11.84-.3-1.93-.34-3.85.06-5.79.46-2.28.38-4.6.32-6.91-.03-1.37.19-2.67,1.55-3.37,1.42-.72,2.76-.31,4.01.51,1.5.98,2.22,2.51,2.67,4.14.59,2.12,1.04,4.28,1.57,6.41.33,1.33.84,2.21,2.59,1.9,1.81-.32,3.21.87,4.04,2.84.35.84.38,1.82.93,2.44,2.64-6.64,4.8-13.47,8.29-19.76.65-1.17,1.6-1.99,3.02-1.93,1.43.06,2.26,1.01,2.83,2.21,1.27,2.68.93,5.48.28,8.18-1.24,5.22-1.83,10.51-2.52,15.82-.49,3.71-1.57,7.41-2.19,11.15-.15.88-.67,2.13.12,2.41.88.31.97-1.09,1.29-1.78.28-.6.37-1.31.47-1.98.25-1.76,1.03-3.17,2.51-4.19.39-.27.82-.55,1.06-.93,2.63-4.16,6.68-6.71,10.61-9.4.6-.41.96-.95,1.11-1.65.21-.97.45-1.94.63-2.92.5-2.63,1.1-5.21,2.38-7.62.83-1.56,1.53-3.23,1.52-5.08,0-.36.05-.75.18-1.08,1.93-5.07,1.43-10.8,4.38-15.61,1.23-2.01,2.42-3.83,5.02-4.02,2.46-.18,4.13,1.36,4.21,3.81.05,1.35-.36,2.59-.8,3.83-1.18,3.32-2.22,6.67-2.4,10.22-.05.98.15,1.88.74,2.67,1.6,2.16,1.74,4.51,1.02,7.03-1.23,4.34-2.55,8.65-3.4,13.08-.24,1.26-.35,2.52-.19,3.76.48,3.62.22,7.24.22,10.86,0,2.08.41,4.04,1.28,5.94,1.63,3.54,2.8,7.23,3.4,11.09.23,1.5.13,2.93-.55,4.29-1.69,3.37-5.08,4.02-7.99,1.66-2.07-1.68-2.86-3.94-3.31-6.41-.18-.97-.39-1.94-.64-3.17-.53.79-.95,1.35-1.3,1.95-2.48,4.31-6.74,4.34-10.76,2.79-1.65-.63-3.23-1.47-4.93-2.03-3-.99-4.75-3.15-5.42-6.21-.15-.68-.3-1.36-.53-2.36-.86,1.51-.7,2.85-.96,4.09-.48,2.22-1.21,3.16-2.78,3.31-1.52.14-2.97-.77-3.62-2.73-1.21-3.67-3.03-7.04-4.98-10.32-1.7-2.87-3.23-5.91-6.03-7.96-.31-.23-.61-.77-1.05-.45-.36.26-.21.78-.05,1.17.83,2.11,1.53,4.25,1.37,6.57-.03.47,0,.96-.12,1.41-.37,1.32-.44,2.6-.26,4,.28,2.21-.71,4.14-2.41,5.55-2.2,1.83-5.48.41-6.36-2.67-.42-1.49-.38-3.04-.25-4.54.17-1.89-.92-3.09-2.05-4.4-.38,2.27-.27,4.53-.12,6.8.19,2.83.86,5.6.87,8.45,0,1.54-.5,2.89-1.63,3.96-1.53,1.45-3.51,1.37-4.84-.24-.49-.6-.89-1.3-1.22-2.01-2.27-4.78-4.29-9.65-5.44-14.85-.64-2.88-1.92-5.39-4.54-7.09-.82-.53-1.26-.62-1.72.24-.96,1.8-2.05,3.55-2.18,5.68-.11,1.9-.75,3.56-2.12,4.95-1.44,1.46-2.08,3.08-.93,5.1.63,1.1.26,2.25-.36,3.29-1.13,1.89-2.38,3.69-3.1,5.81-.42,1.24-1.51,1.83-2.89,1.73-1.4-.1-2.36-.82-2.87-2.1-.59-1.47-.31-3.01-.27-4.52.02-1.03-.14-1.94-.65-2.85-1.98-3.52-2.14-6.98.13-10.54,2.86-4.49,3.93-9.7,5.43-14.71.39-1.31-.2-2.73-.67-3.99-1.19-3.2-.95-6.23.55-9.28.92-1.87,1.53-3.9,2.37-5.82.87-1.97,2.26-3.29,4.62-3.1,1.2.1,1.71-.64,1.96-1.63.48-1.88.93-3.76,1.38-5.65.56-2.36,1.64-4.43,3.44-6.07,2.17-1.98,4.76-1.34,5.73,1.43.29.83.6,1.74.57,2.6-.2,4.67,1.35,9.12,1.68,13.68.37,5.04,2.21,9.69,2.93,14.59.44,2.99,1.37,5.65,3.05,8.17Z"/>
  <path class="cls-6" d="m640.76,251.56c-.34-2.62.15-4.69.39-6.75.25-2.16-.35-3.81-2.17-5.01-1.14-.75-2.27-1.53-3.41-2.28-1.72-1.14-2.53-2.74-2.5-4.79.02-1.63-.06-3.26.02-4.88.06-1.29-.48-2.26-1.59-2.63-3.5-1.17-3.51-3.41-3.02-6.67.39-2.57.75-5.17,1.57-7.69.71-2.17-.14-4.15-1.61-5.81-3.66-4.15-5.59-9.09-6.51-14.44-.48-2.75-.23-5.56-.05-8.33.21-3.38.14-6.7-1.21-9.9-1.78-4.24-1.62-8.72-1.48-13.19.01-.41.15-.83.31-1.21,1.88-4.24,2.49-8.88,4.16-13.18,1.17-3,.26-5.54-1.77-7.82-.42-.47-.81-.99-1.32-1.35-2.65-1.88-3.26-4.59-3.23-7.6.02-2.15,0-4.31-.03-6.46-.01-.84-.04-1.77-1.11-2-.99-.22-1.58.46-2.04,1.18-1.23,1.94-1.76,4.14-2.23,6.35-.55,2.56-1.04,5.14-1.46,7.72-.46,2.86-.63,5.71.12,8.58,1.28,4.89-.55,9.2-2.91,13.31-.83,1.45-1.89,2.79-3.01,4.04-2.49,2.78-3.41,6.06-3.48,9.69-.05,2.73-.02,5.46-.25,8.19-.15,1.76-.48,3.43-1.36,4.95-3.3,5.72-4.64,11.87-4.16,18.45.09,1.2-.01,2.41-.13,3.61-.08.79-.32,1.6-1.23,1.84-.89.24-1.67-.1-2.29-.74-1.68-1.7-2.24-3.88-2.58-6.13-.28-1.87-.41-3.75-.6-5.63-.29-2.84-1.35-4.36-4.13-4.76-3.42-.49-4.26-2.37-4.38-5.8-.02-.57.08-1.15.18-1.72.55-3.1.65-6.14-.85-9.06-.3-.58-.38-1.32-.37-1.99.03-2.95-.52-5.81-1.9-8.36-2.45-4.51-3.18-9.39-3.77-14.35-.15-1.24-.45-2.47-.7-3.7-.43-2.12-1.85-3.49-3.6-4.56-1.1-.67-1.75-1.56-2.02-2.84-.3-1.41-.94-2.7-2.14-3.58-2.94-2.16-3.58-5.08-3.11-8.51.37-2.7.53-5.43.23-8.16-.06-.57-.16-1.15-.36-1.68-.75-1.96-2.5-2.29-3.95-.76-.92.98-1.45,2.19-1.86,3.44-1.53,4.74-3.01,9.49-3.82,14.42-.4,2.47-.2,4.95.53,7.32,1.47,4.82,1.29,9.57.03,14.41-1.35,5.19-1.58,10.56-2.29,15.86-.38,2.85-1.01,5.68-1.65,8.48-.87,3.76-.65,7.53-.07,11.27.46,2.99-.33,5.21-2.63,7.25-4.34,3.86-6.46,8.87-6.34,14.68.05,2.39,1.04,4.68,1.41,7.07.62,4,.39,7.78-1.43,11.49-1.8,3.66-2.32,7.71-3.13,11.66-.33,1.63-1.16,3.02-1.95,4.44-.42.75-.91.57-1.33-.01-.58-.79-.72-1.74-.83-2.67-.52-4.41-.15-8.81.16-13.2.16-2.22.26-4.39-.73-6.48-1-2.09-.88-4.25-.32-6.45,1.57-6.19.99-12.13-1.23-18.19-2.39-6.53-2.19-13.07,2.52-18.87,2.41-2.97,4.81-5.94,5.61-9.89,1.19-5.83,1.29-11.61.17-17.48-1.34-7.05-1.34-14.07,1.31-20.92,2.99-7.75,4.56-15.91,6.64-23.93.66-2.56.15-5.23.66-7.83.61-3.13,1.87-5.96,3.66-8.95.22.79.12,1.25-.01,1.73-.12.45-.18.93-.3,1.38-.3,1.19-.32,2.41-.14,3.6.21,1.35,1.32,1.73,2.25.73,1.1-1.18,2.03-2.51,3.18-3.97.3,1.32.51,2.41.81,3.49.26.94.73,1.81,1.85,1.89,1.1.07,1.71-.7,2.16-1.57.71-1.36,1.05-2.86,1.33-4.35.45-2.34,1.43-4.45,3.11-6.08,2.51-2.43,3.53-5.46,3.82-8.74.21-2.38.88-4.54,2.17-6.48,1.48-2.23,3.09-4.37,4.66-6.54.36-.5.68-1.09,1.51-.69.72.34,1.25.74,1.26,1.62.03,1.61-.49,3.1-.91,4.61-1.18,4.24-3.13,8.25-4.04,12.57-.72,3.44-1.4,6.88-.91,10.44.18,1.28.69,2.41,1.71,3.08,2.88,1.91,2.99,4.62,2.68,7.66-.29,2.8-.84,5.62-.21,8.46.16.74.36,1.46.87,1.99,2.17,2.25,2.15,5.01,1.88,7.83-.06.63-.08,1.26-.16,1.88-.23,1.69.21,2.95,1.91,3.7,1.14.51,1.67,1.53,1.61,2.83-.13,3.09-.25,6.19-.33,9.29-.14,5.64.98,11.17,1.35,16.77.15,2.32.57,4.57,1.9,6.57.41.62.19,1.44.18,2.17-.01.89-.09,1.79-.08,2.68.02,1.02.41,1.91,1.47,2.18,1.07.27,1.96-.16,2.55-1.12,1.33-2.2,1.91-4.66,2.31-7.14.73-4.56,1.21-9.16.96-13.79-.38-7.24,1.15-14.18,3.32-21.01.74-2.35,2.09-4.34,3.81-6.09,2.64-2.69,4.58-5.71,4.98-9.58.11-1.08.46-2.17.86-3.18,2.54-6.37,2.66-13.35,5.07-19.76,1.04-2.77,2.05-5.52,4.06-7.75,5.04-5.61,7.23-12.31,7.57-19.72.09-1.99,1.17-3.44,2.4-4.83,2.72-3.08,5.35-6.21,6.82-10.13.43-1.15,1.3-2.03,2.22-2.83,1-.87,1.61-.72,2.12.5.57,1.37.23,2.69-.29,3.97-2.35,5.72-4.74,11.43-7.07,17.17-1.41,3.48-2,7.16-2.33,10.88-.16,1.72-.17,3.46-.35,5.18-.52,5.11.53,10,1.93,14.87,1.65,5.73,2.44,11.59,2.24,17.57-.15,4.5.35,8.85,2.34,13.01,1.4,2.93,1.65,6.16,1.26,9.41-.06.46-.15,1.02.04,1.39.98,1.85.64,3.74.43,5.68-.29,2.74.41,5.14,2.51,7.14,1.39,1.33.63,3.19.52,4.8-.09,1.29-.48,2.57-.77,3.85-.48,2.08-.42,4.1.15,6.2,1.12,4.1.38,8.11-1.07,12.02-.15.39-.29.8-.51,1.15-3.18,4.97-2.55,9.92.26,14.72,1.57,2.69,1.73,5.47,1.25,8.36-.64,3.89-.14,7.41,2.76,10.34,2.01,2.03,2.19,4.56,1.7,7.2-.39,2.11-.95,4.18-1.14,6.34-.25,2.85.56,5.37,2.06,7.76,1.47,2.34,3.31,4.58,3.47,7.48.19,3.26.65,6.46,1.42,9.63.08.33.22.8-.24.95-.45.14-.6-.31-.78-.62-.46-.77-.74-1.61-.96-2.48-.18-.7-.4-1.49-1.26-1.66-.9-.17-1.46.46-1.96,1.08-.39.47-.7,1-1.3,1.86Z"/>
  <path class="cls-6" d="m816.66,95.64c1.46,2.07,2.21,3.98,3.05,5.82,2.15,4.72,4.29,9.51,5.1,14.65.81,5.12,3.43,9.55,4.8,14.44.32,1.14,1.23,1.98,2.17,2.65,1.93,1.39,2.5,3.33,2.77,5.56.54,4.41.35,8.81.22,13.22-.07,2.28.16,4.38,1.81,6.15.34.36.69.95.65,1.39-.21,2.38,1.27,3.88,2.6,5.52,1.27,1.57,2.4,3.29,1.96,5.45-.4,1.95-.9,3.88-1.9,5.64-.34.59-.68,1.19-.92,1.82-.18.49-.21,1.06.25,1.46.49.44,1.05.41,1.61.12,1.96-1.01,3.7-2.39,4.73-4.29,1.43-2.64,3.63-3.81,6.4-4.27,2.46-.41,4.76-1.24,6.91-2.53,1.58-.96,3.37-1.47,5.16-1.89,1.94-.45,3.72-1.18,5.16-2.56,1.82-1.73,4-2.86,6.2-3.99,2.07-1.06,3.96-2.41,5.54-4.12,1.97-2.12,4.25-3.69,6.98-4.71,2.16-.8,4.31-1.68,6.28-2.92.34-.22.78-.33,1.18-.39.34-.05.77-.14.96.31.14.34-.09.62-.3.84-.43.46-.88.9-1.34,1.33-4.16,3.86-8.2,7.85-12.75,11.28-1,.76-2.11,1.38-3.2,2.01-2.37,1.36-4.65,2.8-6.62,4.77-1.94,1.94-4.38,3.24-6.9,4.36-2.13.94-4.1,2.13-5.87,3.64-.58.49-1.04,1.04-1.27,1.76-2.01,6.33-6.81,9.67-12.77,11.57-4.6,1.47-8.14,4.27-11.17,7.85-.37.44-.73.93-.92,1.45-1.13,3.05-3.33,5.12-5.98,6.89-3.93,2.63-7.77,5.39-11.61,8.16-3.16,2.29-5.54,5.14-6.13,9.16-.26,1.75-1.55,2.84-2.65,4-4.26,4.5-7.92,9.38-10.31,15.15-.43,1.04-1.24,1.87-2.17,2.46-3.36,2.12-5.72,5.25-8.3,8.14-2.25,2.52-4.73,4.77-7.36,6.88-1.94,1.55-4.31,1.84-6.6,2.4-1.68.41-3.39.69-5.09,1.03-3.63.72-6.68,2.53-9.22,5.14-2.53,2.61-5.5,4.74-8.02,7.35-.14.15-.31.29-.49.39-.94.55-1.94,1.44-3,.56-1.13-.93-.09-1.93.32-2.81.58-1.24,1.36-2.36,2.41-3.28,5.81-5.07,11.31-10.55,18.55-13.71,2.44-1.07,4.21-2.93,5.34-5.36,1.23-2.63,3.15-4.55,5.8-5.76,1.36-.62,2.29-1.53,2.49-3.15.18-1.41,1.4-2.17,2.4-3.01,2.65-2.24,5.39-4.37,7.73-6.95.84-.93,1.61-1.94,2.4-2.92,1.17-1.45,1.1-2.9.22-4.51-2.1-3.83-1.99-4.12,1.08-7.28,2.6-2.67,5.76-4.54,8.92-6.44.54-.32,1.11-.61,1.61-1,1.25-.97,1.13-2.25-.25-3.01-.23-.13-.47-.23-.72-.33-.47-.2-1.06-.31-1.02-1.01.03-.61.52-.88.98-1.14,1.44-.8,3.01-1.26,4.58-1.67,3.11-.81,6.06-2.06,9.04-3.24,1.62-.64,2.4-1.76,2.2-3.55-.13-1.2-.09-2.4-.31-3.6-.45-2.37.3-4.57,1.13-6.74,1.8-4.72,3.21-9.54,4.04-14.52.42-2.52-.1-3.24-2.58-3.42-1.39-.1-2.28-1.23-2.29-3.05,0-3.16-.2-6.29-.98-9.37-.23-.91-.48-1.84-.91-2.67-2.29-4.42-2.79-9.18-2.81-14.05,0-.32,0-.63-.01-.95-.09-5.02.26-10.07-1.36-14.97-.57-1.71-.27-3.55-.16-5.33.07-1.11.11-2.24,1.72-2.5.95-.16,1.29-1.2,1.28-2.14-.06-5.03.59-10.08-.52-15.08-.1-.45-.07-.94-.07-1.41,0-.25.06-.49.16-1.23Z"/>
  <path class="cls-6" d="m746.86,216.43c-.89-1.99-1.47-4.04-1.24-6.25.75-7.15.66-14.1-4.46-19.94-.14-.15-.21-.36-.32-.54-.83-1.46-1.21-2.95-.85-4.67.3-1.43.51-3-.19-4.34-1.77-3.38-3.95-6.48-7.4-8.35-1.75-.95-2.75-2.19-2.76-4.2-.02-2.02,1.4-2.81,2.94-3.46,1.7-.72,3.46-1.39,4.81-2.64,1.95-1.82,4.32-2.59,6.75-3.51,6.13-2.31,9.75-9.02,4.75-15.29-1.05-1.32-2.11-2.61-2.7-4.23-.24-.65-.63-1.2-1.09-1.71-1.59-1.8-1.64-2.47-.4-4.63,1.17-2.03.93-2.96-.92-4.4-1.2-.93-2.49-1-3.88-.73-2.9.57-5.62.19-8.18-1.38-1.8-1.11-2.93-1.03-4.31.61-2.82,3.36-6.17,6.35-7.74,10.63-.27.73-.69,1.41-1.06,2.11-.38.72-.82,1.38-1.81,1.19-1.09-.21-1.17-1.1-1.24-1.94-.09-.99.22-2.13-.16-2.97-1.36-2.95-1.07-6.05-1.16-9.12-.03-1.17-.24-2.29-.48-3.42-.31-1.47-1.33-1.81-2.6-1.55-1.21.24-1.35,1.3-1.22,2.24.68,5.06-.77,10-.75,15.02,0,1.55-.65,3.09-.2,4.68.88,3.07.67,6.13-.21,9.15-.77,2.63-1.42,5.26-1.21,8.04.12,1.59.73,2.92,2.23,3.52,2.26.9,2.96,2.55,2.95,4.84,0,1.75-.33,3.36-1.24,4.8-1.76,2.76-1.84,5.45-.1,8.26,1.11,1.79,1.16,3.76.68,5.78-.69,2.96-1.56,5.89-.7,8.99.54,1.95.39,3.93.1,5.93-.2,1.34-.47,2.69-.34,4.07.09.89.52,1.51,1.41,1.66.83.14,1.59-.13,2.02-.89.28-.49.46-1.05.61-1.61.4-1.49.41-3.02.33-4.54-.15-2.54.49-4.88,1.59-7.13.69-1.41,1.39-2.83,1.61-4.41.51-3.72.41-7.45.01-11.15-.29-2.63-.28-5.12.99-7.48.56-1.04,1.4-1.68,2.69-1.52,1.25.16,1.81.97,2.04,2.08.13.61.23,1.24.24,1.86.04,2.2.07,4.41.05,6.62-.01,2,.45,3.71,2.29,4.85,1.27.79,2.09,2.04,3.02,3.19,2.67,3.31,4.33,7.35,7.49,10.3,2.19,2.03,3.06,4.59,3.12,7.47.02.99-.1,1.99-.17,3.23-.08.87.11,1.97.57,2.98,1.34,2.99,2.19,6.09,2.66,9.34.3,2.07,1.26,3.9,2.97,5.21.7.54,1.47.81,2.34.33.81-.44.95-1.16.94-2.01-.03-1.54-.27-3.02-.94-4.42-.73-1.51-1.45-3.03-2.14-4.56Zm-19.62-63.33c-1.49-1.61-1.48-1.63-.05-3.13.31-.32.55-.94,1.07-.7.27.12.35.71.44,1.11.14.66.21,1.34.33,2.06-.09.51-.1,1.22-.63,1.47-.61.29-.83-.46-1.15-.81Z"/>
  <path class="cls-6" d="m804.36,178.69c-2.43.99-4.51-.02-6.57-1.06-.7-.35-1.31-.87-1.96-1.31-1.38-.95-2.8-1.05-4.48-.73-3.17.6-6.38.8-8.95-1.88-.65-.68-1.52-1.11-2.45-1.37-2.55-.72-4.49.62-4.48,3.26.01,2.36.24,4.71.35,7.07.09,1.76-.15,3.47-.95,5.05-.97,1.93-1,3.87-.54,5.96.48,2.21.48,4.48-.1,6.71-.12.45-.21.97-.49,1.32-2.16,2.69-2.1,5.91-2.41,9.11-.78,7.95-.67,16.07-3.95,23.62-.48,1.09-.73,2.3-.79,3.52-.02.46-.04,1.12-.51,1.21-.62.12-.79-.59-.98-1.04-.64-1.51-.88-3.12-.99-4.75-.3-4.56.73-8.95,1.63-13.38.96-4.69,1.21-9.45-.54-14.1-.87-2.31-.45-4.6.6-6.71.83-1.66.89-3.15,0-4.77-.48-.86-.74-1.85-1.13-2.76-.7-1.62-.55-3.15.36-4.65.57-.94,1.08-1.93.94-3.1-.25-2.17.34-4.12,1.39-6.02.81-1.46,1.51-3.02.94-4.8-.46-1.45-1.23-1.96-2.59-1.32-1.12.53-1.99.31-2.95-.25-1.09-.63-2.26-1.14-3.32-1.81-1.52-.97-3.12-1.45-4.93-1.3-.95.08-1.91-.03-2.63-.78-.31-.32-.81-.59-.66-1.16.16-.6.55-1.05,1.17-1.15.62-.1,1.25-.1,1.88-.13,1.29-.04,2.47-.3,3.47-1.24,1.2-1.13,2.68-1.64,4.34-1.53,3.34.24,4.68-1.34,5.13-4.96.08-.61,0-1.26-.09-1.88-.36-2.35-.17-4.61,1.01-6.72,1.08-1.94,1.49-3.99,1.36-6.2-.15-2.55.23-5.04,1.45-7.33,1.53-2.88,1.59-6.05,1.98-9.16.19-1.47.51-2.91,1.25-4.19,2.22-3.8,4.33-7.66,6.03-11.73.56-1.33,1.58-2.34,3.05-2.77,1.9-.56,3.13.56,2.66,2.46-.54,2.17-1.73,4.04-2.82,5.95-.99,1.73-2.09,3.41-2.96,5.2-1.07,2.21-.81,3.81,1.09,5.34,2.29,1.86,2.08,4.15,1.68,6.59,0,.05-.03.1-.05.15-1.69,3.49-2.26,7.24-2.89,11.03-.84,5.02-2.72,9.78-4.38,14.59-1.25,3.63.5,5.46,4.33,4.77,1.66-.3,3.31-.54,5.01-.49,1.17.03,1.81.44,1.62,1.7-.02.1,0,.21-.01.31-.31,2.96.83,2.96,2.93,1.75,3.12-1.8,6.42-1.18,8.95,1.51.88.93,1.96,1.35,3.24,1.36,2.06.02,3.94.65,5.58,1.89,1.31.99,1.22,1.83-.22,2.62-.46.25-.95.44-1.44.64-2.41.99-2.62,1.6-1.21,3.88Z"/>
  <path class="cls-6" d="m696.44,176.88c-1.25-1.81-2.31-3.75-3.83-5.38-.84-.89-1.2-2.07-1.47-3.26-.61-2.74.68-5.04,1.77-7.34,2.43-5.14,2.35-10.21-.17-15.27-.35-.71-.53-1.46-.66-2.25-.2-1.23-.19-2.56-.99-3.6-3.14-4.05-7.17-6.68-12.25-7.68-3.49-.69-6.46.36-9.02,2.63-2.25,1.99-4.25,4.27-5.73,6.88-1.11,1.96-2.57,3.36-4.52,4.43-3.36,1.85-5.55,4.61-6.04,8.53-.41,3.29-1.48,6.2-3.72,8.81-2.21,2.57-2.02,5.53-.06,8.28,2.41,3.38,3.16,7.19,2.82,11.2-.17,1.99-.21,3.98-.22,5.97v4.1c0,.16,0,.32.02.47.2,1.83,1.4,3.02,2.98,2.67,2.23-.5,4.03.26,5.73,1.52.94.7,1.89,1.37,3.04,1.59,1.93.37,3.15,1.4,3.87,3.25.61,1.55,1.71,1.93,3.35,1.43.9-.27,1.78-.63,2.65-1,.95-.4,1.98-.64,2.93-.35,2.16.67,3.9-.15,5.63-1.25,1.74-1.1,3.28-2.44,4.79-3.84,2.42-2.23,3.91-5.21,6.23-7.51,1.55-1.53,2.62-3.41,3.48-5.4,1.15-2.64,1.07-5.22-.59-7.63Zm-23.15-8.68c-.93,2.45-1.96,4.85-1.98,7.54,0,.54-.34.57-.75.32-.4-.25-.78-.57-1.22-.7-2.49-.73-3.4-2.41-3.07-4.44-.09-2.33,2.22-5.57,3.93-6,.97-.24,3.45,2.32,3.09,3.28Z"/>
  <path class="cls-6" d="m254.16,273.88c-.67-2.18-.41-4.49-.87-6.68-1.59-7.5-4.64-14.24-10.49-19.49-2.08-1.87-3.24-4.14-3.22-7.06.02-3.27-1.55-5.91-4.53-7.16-4.05-1.7-7.08-4.18-8.71-8.32-.65-1.66-1.87-2.77-3.68-3.4-2.29-.8-3.84-2.5-4.47-4.93-.32-1.22-.68-2.42-1.02-3.63-.81-2.9-1.96-5.65-4.72-7.17-3.1-1.71-4.83-4.32-5.99-7.55-.87-2.43-2.13-4.7-4.05-6.5-1.95-1.83-4.05-2.9-6.85-1.66-1.89.84-2.69.38-3.64-1.51-.71-1.41-1.27-2.89-2.25-4.15-.65-.84-1.16-1.24-2.09-.2-1.34,1.5-2.12,1.37-3.11-.35-.81-1.41-1.55-2.86-2.31-4.3-.78-1.49-1.55-2.98-2.61-4.3-.54-.67-1.26-1.53-2.03-1.31-2.32.65-3.33-.86-4.53-2.26-.86-1.01-.77-1.87.08-2.78.84-.9,1.91-1.47,3-2.01,1.72-.85,3.01-2.1,3.69-3.91,1.15-3.07,3.45-4.51,6.64-4.66,3.42-.17,5.78-1.9,7.41-4.83,1.35-2.42,2.1-5.01,2.58-7.71.26-1.47.12-3.16,1.64-4.09,2.46-1.51,3.02-3.83,2.7-6.4-.37-2.96.56-5.26,2.6-7.39,2.31-2.41,3.18-5.49,2.72-8.74-.6-4.26-.65-8.41.57-12.6.73-2.51.14-4.96-2.09-6.66-2.3-1.75-2.74-4-2.36-6.71.33-2.33.47-4.69.27-7.06-.38-4.59-4-6.92-8.32-5.32-.45.16-.88.36-1.33.5-2.93.89-5-.48-5.32-3.51-.05-.52-.16-1.04-.21-1.56-.33-3.14-.93-3.58-4.02-3.12-2.37.35-4.7.41-6.8-1.14-4.84-3.6-10.46-5.84-15.79-8.48-4.81-2.38-10.08-2.33-14.72,1.27-2.9,2.26-5.84,4.47-8.76,6.72-3.91,3.01-8.13,4.31-12.96,2.41-1.96-.77-3.8-.34-5.6.59-2.65,1.37-4.97,3.14-6.9,5.41-1.31,1.55-2.74,2.48-4.93,1.46-1.87-.88-2.63-.34-2.91,1.73-.45,3.26.36,6.03,3.13,8.06,3.13,2.29,3.84,5.51,3.32,9.1-.29,1.97-.75,3.92-1.26,5.84-1.23,4.69-.47,8.84,3.11,12.3.91.87,1.71,1.86,2.58,2.77,3.11,3.2,4.2,6.93,3.09,11.28-.37,1.47-.67,2.97-1.1,4.42-.33,1.14-.25,2.17.36,3.17.54.88.86,1.84.55,2.85-.32,1.06-.05,1.94.48,2.84,1.15,1.93,1.61,4.06,1.09,6.22-.71,2.94-.02,5.38,1.96,7.56.5.55.93,1.14,1.42,1.69,1.72,1.91,2.22,4.1,1.6,6.58-.4,1.62-.28,3.21.3,4.8.89,2.41,1.77,4.83,2.52,7.29,1.72,5.63,2.46,11.31,0,16.93-.75,1.72-.58,3.1.65,4.48,2.08,2.32,3.26,5.12,4.07,8.09.61,2.21.4,4.28-.8,6.35-2.25,3.91-2.05,7.94.09,11.83,1.04,1.9,2.08,3.75,2.56,5.88.32,1.41.99,2.64,2.08,3.64.7.65,1.29,1.38,1.36,2.41.22,3.18.88,6.38.18,9.55-.39,1.74.2,2.86,1.58,3.69,2.95,1.79,4.21,4.32,3.56,7.16-.1,3.11-.29,5.68,1.79,7.65.43.41.79,1.13,1.55.79.65-.29.8-.95.79-1.6-.03-1.94.09-3.89-.27-5.81-.44-2.37-.06-4.42,1.9-6.11,1.19-1.02,2.17-2.29,2.9-3.71.57-1.11.69-2.21-.07-3.27-2.89-4.02-3.16-8.31-1.32-12.82.99-2.42.87-4.69-.86-6.8-.6-.73-1-1.61-1.58-2.35-2.7-3.52-2.94-7.14-.62-10.96,2.1-3.46,2.25-7.04.21-10.6-1.06-1.85-1.11-3.64-.04-5.5.88-1.53.8-3.07-.06-4.64-.81-1.47-1.46-3.02-1.96-4.63-.88-2.82-.47-5.28,1.89-7.25,1.82-1.52,3.11-1.54,4.89.04,1.41,1.26,2.76,2.59,4.08,3.94,1.72,1.76,3.68,2.46,6.14,1.83,2.28-.58,4.16.07,5.73,1.96,1.96,2.37,3.45,5,4.96,7.65,1.4,2.46,2.04,2.51,4.2.74,1.77-1.46,3.29-1.48,5.11-.02.65.52,1.29,1.08,1.88,1.68.59.61,1.27.89,2.11.83,2.39-.17,3.93.99,5.06,3.03,1.38,2.49,2.63,5.01,3.41,7.76.67,2.37,1.47,2.72,3.81,1.86.59-.22,1.17-.47,1.76-.69,2.94-1.11,4.15-.72,5.66,2.09,1.19,2.22,2.2,4.53,3.31,6.79,1.2,2.45,2.93,4.27,5.82,4.46,2.34.15,3.74,1.44,4.68,3.44.45.95.98,1.86,1.41,2.82,1.56,3.47,3.93,6.14,7.33,7.95,1.8.96,3.53,2.1,4.91,3.66.79.9,1.51,1.94,1.23,3.12-.74,3.15.63,5.66,2.22,8.1,1.58,2.42,3.57,4.6,4.89,7.14,1.2,2.3,2.86,3.63,5.2,4.43,1.91.65,3.31,1.96,4.28,3.75.65,1.2,1.41,2.34,2.17,3.47.21.32.53.78,1.02.53.39-.2.29-.69.2-1Zm-84.28-130.73c-.13,2.75-.43,3.14-3.09,3.62-3.67.65-6.81,2.38-9.71,4.63-.92.71-1.87,1.21-3.04.92-1.27-.31-2.31-.84-2.6-2.35-.38-2-1.31-3.76-2.83-5.15-.91-.83-.46-1.86-.53-2.55-.03-3.78-.77-7.04-3.37-9.63-.87-.87-1.32-1.92-1.08-3.14.89-4.47-1.07-8.04-3.77-11.22-1.39-1.65-1.49-3.35-1.12-5.13.4-1.91.48-3.68-.24-5.53-.62-1.6-.15-2.67,1.42-2.82,4.08-.39,6.87-2.94,9.72-5.41,1.28-1.11,2.51-1.31,4.18-1.11,2.9.36,5.37.78,7.09,3.75,1.6,2.78,4.74,3.65,7.9,3.89.81.06,1.54.24,1.62,1.14.25,2.97,2.08,5.01,4.09,6.87,1.27,1.17,1.52,2.25.98,3.87-.78,2.36-.33,4.66,1.08,6.73,1.52,2.24,1.51,2.98-.22,5-.99,1.16-2.02,2.27-3.04,3.4-2.3,2.54-3.12,5.64-3.38,8.95-.03.42-.04.84-.06,1.26Z"/>
  <path class="cls-6" d="m309.46,222.34c-3.76-4.06-2.67-8.51-1.07-12.84,1.33-3.58,2.01-7.24,2.6-10.97.6-3.78,1.4-7.52,1.8-11.33.19-1.78.2-3.43-1.07-4.89-1.1-1.27-.65-2.63.16-3.76,1.09-1.52,1.32-3.24,1.74-4.98.96-3.91.46-8.05,1.97-11.87.41-1.03.26-2.18.17-3.28-.07-.82-.37-1.57-1.19-1.9-.88-.35-1.67-.08-2.29.59-1.6,1.74-3.16,3.52-4.77,5.25-.52.56-.84,1.7-1.94,1.1-.98-.54-1.24-1.52-1.04-2.59.55-2.85,1.46-5.58,2.84-8.14.77-1.42,1.32-2.91,1.32-4.48-.01-3.97,1.34-7.61,2.48-11.32,2.35-7.65,4.17-15.4,3.88-23.47-.09-2.51-.24-5.03-.78-7.5-.24-1.13-.29-2.31-.01-3.44.33-1.37,1.11-1.65,2.33-.9,2.62,1.61,2.6,1.58,4.66-.66.74-.8,1.35-2.13,2.75-1.72,1.5.44,1.4,1.89,1.62,3.13.48,2.72.06,5.32-.9,7.87-.63,1.67-1.2,3.36-1.8,5.03-.31.87-.43,1.77-.05,2.61,1.04,2.32,1.16,4.77,1.1,7.25-.02.74-.05,1.54.38,2.14,1.85,2.6,1.7,5.58.59,8.13-1.53,3.49-1.94,6.87-1.23,10.51.18.93-.41,2.23.71,2.7,1.03.43,1.81-.63,2.53-1.26,1.37-1.19,2.86-2.07,4.59-2.66,2.58-.88,4.7-2.55,6.58-4.5,1.92-1.99,4.01-3.51,7.01-3.29,1.29.1,2.3-.82,3.1-1.7,3.34-3.74,7.43-6.64,11.06-10.06,3.04-2.85,6.71-4.86,10.44-6.71.69-.34,1.49-.53,2.26-.67.65-.12,1.49-.27,1.79.54.25.67-.29,1.23-.85,1.53-2.5,1.33-4.37,3.42-6.46,5.25-1.09.96-2.09,1.95-2.64,3.27-1.25,3.01-3.45,5.09-6.24,6.65-.41.23-.8.52-1.23.7-4.54,1.89-7.15,5.43-8.3,10.05-.95,3.81-3.23,6.36-6.63,8.13-2.61,1.36-5.16,2.76-8.06,3.5-3.51.89-5.79,5.68-3.84,8.71,2.37,3.69,3.94,7.87,6.87,11.23,1.31,1.5,2.45,3.16,3.52,4.84,1.71,2.69,4.04,4.27,7.21,4.83,3.79.68,4.65,1.72,5.01,5.51.24,2.49.72,4.94,2.28,6.94,2.46,3.14,3.56,6.71,3.92,10.61.71,7.7,3.03,14.99,5.79,22.15.95,2.47,1.5,5.02,1.74,7.64.06.63.15,1.38-.53,1.67-.66.28-1-.42-1.38-.82-.9-.93-1.23-2.18-1.72-3.34-.26-.6-.53-1.25-1.32-1.08-.82.17-1.01.88-.92,1.61.28,2.29.54,4.58.34,6.9-.08.87-.09,1.82-1.26,1.79-1.15-.03-1.26-1.03-1.23-1.86.19-5.05-2.14-9.56-3.05-14.37-.29-1.55-1.48-2.77-2.38-4.05-1.68-2.39-2.95-4.95-3.72-7.77-1.02-3.72-2.68-7.05-5.84-9.48-1.55-1.19-2.22-2.93-2.4-4.8-.47-5.07-2.83-9.39-5.28-13.68-.35-.62-.88-1.34-1.49-1.57-1.49-.58-1.97-1.75-2.37-3.08-.17-.55-.38-1.1-.68-1.59-1.27-2.12-3.79-2.27-5.17-.23-.85,1.26-1.63,2-3.33,1.38-1.41-.51-2.44.34-2.83,2.16-.51,2.41-.87,4.85-1.34,7.27-.75,3.91-1.17,7.88-2.22,11.73-.3,1.11-.61,2.24-1.11,3.27-1.17,2.41-2.1,4.88-2.79,7.48-.47,1.77-1.58,3.38-2.36,4.96Z"/>
  <path class="cls-6" d="m290.75,196.08c-.13-.01-.71-.02-1.28-.11-2.47-.4-4.69.13-6.67,1.67-.83.64-1.7,1.24-2.56,1.83-1.07.74-2.11,1.13-3.51.57-1.55-.63-2.98,0-4.13,1.19-1.78,1.85-2.88,4.12-3.98,6.38-.87,1.79-1.49,3.71-2.62,5.37-.44.65-.93,1.47-1.81,1.31-.92-.17-.98-1.17-1.11-1.92-.24-1.39-.41-2.8-.5-4.21-.12-1.82-.99-3.17-2.41-4.22-1.44-1.06-1.83-2.39-1.39-4.14.76-2.99-1.21-5.45-4.33-5.5-1.05-.02-2.09.13-3.14.23-1.48.14-2.04-.57-1.86-1.97.31-2.41,1.05-4.7,2.11-6.88.46-.94.96-1.87,1.31-2.86.22-.62.28-1.33-.47-1.81-.77-.5-1.29-.08-1.82.37-.68.58-1.3,1.23-2.01,1.77-.66.51-1.07.29-1.08-.56-.03-1.53.49-2.89,1.32-4.13.78-1.18,1.62-2.33,2.44-3.48,1.78-2.5,2.99-5.15,2.7-8.34-.12-1.33.53-2.54,1.14-3.72,1.51-2.92,2.59-5.92,2.58-9.3,0-2.28,1.62-3.68,3.44-4.74,1.83-1.06,3.88-1.58,5.89-2.21,1.37-.43,2.54-1.29,2.58-2.67.14-5.21,4.3-6.23,7.93-7.69,2.14-.86,4.27-.64,6.05,1.28,1.05,1.13,2.52,1.36,4.09,1.02,2.05-.44,4.04-1.19,6.18-1.14,1.26.03,2.75-.03,3.25,1.37.49,1.35-.75,2.16-1.6,3-1.44,1.44-3.34,1.7-5.23,1.9-1.83.19-3.67.3-5.5.34-2.39.05-4.54.82-6.49,2.12-1.95,1.3-1.94,2.63.05,3.88.87.54.13.78-.12,1.01-2.89,2.67-5.79,5.32-8.97,7.67-1.86,1.37-3.57,2.96-4.73,5.01-1.45,2.56-1.83,5.6,1.33,7.35,1.78.99,1.91,2.11,1.12,4.05-.8,1.95-2,3.69-3.04,5.51-.78,1.36-1.58,2.72-1.93,4.29-.46,2.03.2,3.64,1.81,4.84,1.51,1.13,3.15,1.05,4.73.1,1.08-.65,2.14-1.34,3.13-2.11,1.16-.91,2.36-1.12,3.67-.46,1.46.74,2.84.62,4.15-.31,1.31-.93,2.57-.71,3.81.1,1.23.8,2.42,1.68,3.7,2.4,2.9,1.65,5.54,1.34,8.11-.77.74-.6,1.58-1.65,2.59-.93,1.01.73.72,1.98.35,3.06-1.23,3.53-3.5,5.26-7.26,5.21Z"/>
  <path class="cls-6" d="m228.57,207.43c.11-2.2.19-4.4.33-6.6.13-2.05-.27-3.95-1.39-5.7-.81-1.27-1.2-2.59-.86-4.17.32-1.48.17-3.01-.48-4.47-.85-1.91-.46-3.93-.27-5.9.2-1.98.45-3.95.49-5.95.03-1.87-.43-3.53-1.88-4.81-2.28-2.02-2.67-4.37-1.35-7.08.51-1.04.88-2.14,1.39-3.17.93-1.88,1.31-3.85,1.27-5.93-.03-1.33-.46-2.37-1.7-2.95-1.41-.65-1.75-1.64-1.23-3.08.37-1.03.53-2.14.84-3.19.5-1.66.6-3.28-.15-4.9-.19-.42-.27-.9-.33-1.37-.34-2.67-.26-2.73,2.33-2.24,1.36.26,2.63.09,3.58-1.07.63-.76,1.5-.99,2.4-.99,1.17,0,2.02.6,1.69,1.88-.69,2.63-.24,5.05.87,7.47.74,1.62.63,3.38.28,5.1-.56,2.77-1.52,5.45-1.83,8.28-.23,2.17.02,4.29.69,6.35.46,1.4,1.36,2.44,2.64,3.21,2.87,1.74,3.19,3.39,1.34,6.21-.75,1.14-1.51,2.27-2.19,3.46-1.13,1.98-1.57,4.13-.31,6.13,2.59,4.14,2.3,8.29.2,12.4-2.46,4.81-2.62,9.85-2.03,15.03.18,1.6-.22,3.14-.67,4.64-.35,1.17-1.09,1.35-2,.53-1.06-.96-1.55-2.24-1.63-3.64-.06-1.15-.01-2.31-.01-3.46-.01,0-.02,0-.03,0Z"/>
  <path class="cls-6" d="m227.1,99.96c-.1.78-.22,1.56-.29,2.34-.19,2.16.98,3.18,3.07,2.71,1.65-.37,2.29.08,2.46,1.76.04.36.09.77-.03,1.09-1.29,3.54-1.48,7.26-1.84,10.96-.13,1.28-.68,2.43-1.9,3.1-1.62.88-3.34.53-4.46-1-.83-1.14-1.79-1.96-3.16-2.44-1.9-.66-2.81-2.87-2.23-4.97.48-1.73,1.33-3.32,2.23-4.85,1.3-2.21,1.59-4.33.19-6.64-1.65-2.71,1.56-5.55,3.71-5.45,1.8.09,2.29.81,2.25,3.38Z"/>
  <path class="cls-6" d="m460.71,191.52c-.09-1.03.3-1.96.71-2.86.61-1.34,1.16-2.7,1.33-4.18.15-1.34.79-2.36,1.92-3.09.39-.26.84-.55,1.05-.93,1.62-2.95,4.43-4.68,6.86-6.79.67-.58,1.39-1.15,2.18-1.53,2.08-1,3.2-2.65,3.55-4.86.57-3.64,1.46-7.18,3.2-10.46.83-1.56.99-3.29,1.22-5.01.09-.67.16-1.38.43-1.99,1.04-2.4,1.21-4.94,1.57-7.49.4-2.81,1.81-5.34,3.49-7.64.73-1,1.88-1.28,2.96-.76,1.14.55.9,1.73.64,2.67-.83,2.97-2.04,5.84-2.6,8.89-.54,2.98-.97,5.89,1.13,8.57.76.97.77,2.24.44,3.48-1.14,4.3-2.26,8.61-3.36,12.92-.63,2.47-.66,4.96-.33,7.49.34,2.56.1,5.14.03,7.71-.08,2.99.44,5.82,1.72,8.54,1.46,3.09,2.43,6.36,2.97,9.74.08.51.14,1.05.1,1.56-.09,1.42-.81,2.55-2.06,3.14-1.27.6-2.28-.18-3.25-.99-1.5-1.25-1.83-3.01-2.2-4.75-.37-1.74-.65-3.5-1.03-5.24-.18-.81-.39-1.72-1.41-1.88-1.11-.17-1.35.78-1.72,1.51-.49.98-.99,1.97-1.47,2.96-1.42,2.91-3.97,3.96-6.8,3.01-3.04-1.02-6.14-2.08-8.89-3.83-1.48-.94-2.03-2.31-2.08-3.99-.04-1.31-.19-2.61-.28-3.91Z"/>
  <path class="cls-6" d="m426.62,188.37c-.23,3.95.21,7.85.78,11.75.19,1.34.45,2.73-.23,4.02-.7,1.33-1.63,1.38-2.5.15-.21-.3-.38-.63-.54-.96-2.23-4.74-4.3-9.57-5.33-14.72-.82-4.07-3.36-6.77-6.48-9.11-1.14-.86-2.05-.01-2.73.75-1.84,2.08-3.19,4.46-3.51,7.25-.2,1.74-.73,3.2-1.92,4.52-1.73,1.92-2.55,4.11-1.2,6.63.37.69.23,1.28-.15,1.92-1.02,1.71-2.26,3.29-2.89,5.22-.16.48-.55,1.13-1.26.93-.64-.18-.81-.76-.81-1.39,0-.53-.04-1.05,0-1.57.2-2.14-.14-4.1-1.23-6.03-1.32-2.34-1.25-4.74.27-7.13,3.09-4.85,4.3-10.44,5.92-15.86.4-1.33-.02-2.75-.51-4.01-1.31-3.35-1.07-6.51.61-9.68.85-1.61,1.38-3.39,2.11-5.08.46-1.05,1.25-1.54,2.48-1.54,2.28,0,3.24-.72,3.91-2.92.63-2.05,1.07-4.16,1.6-6.24.47-1.82,1.29-3.44,2.71-4.71,1.03-.92,1.6-.78,2.07.5.25.68.58,1.42.54,2.11-.25,4.62.93,9.04,1.74,13.52.48,2.68.27,5.47,1.15,8.08,1.1,3.24,1.91,6.52,2.29,9.92.09.81.39,1.69.86,2.34,1.97,2.71,2.38,5.76,2.25,8.98-.03.79,0,1.58,0,2.36Z"/>
  <path class="cls-6" d="m436.92,179.24c0,1.7.21,3.31.81,4.94.63,1.73.78,3.57.27,5.41-.34,1.21-.45,2.42-.14,3.72.36,1.5-.45,2.76-1.52,3.77-.56.54-1.22.47-1.85-.04-.85-.69-1.12-1.63-1.2-2.65-.06-.89-.08-1.79-.01-2.68.13-1.71-.4-3.13-1.38-4.54-2.03-2.94-2.34-6.06-.23-9.09,2.35-3.39,2.15-7.14,1.76-10.92-.18-1.79-.31-3.53.06-5.32.48-2.33.35-4.7.35-7.06,0-1.52.66-1.86,1.96-1.07,1.33.81,1.72,2.22,2.1,3.57.57,2.07.92,4.2,1.56,6.24.89,2.8,1.55,3.18,4.43,3.02,1.35-.08,1.87.83,2.2,1.86.64,1.95,1.21,3.92,2.29,5.68.59.96,1.15,2.53,2.29,2.28,1.03-.23.53-1.84.53-2.82,0-3.16.64-6.1,2.1-8.93.93-1.81,1.69-3.75,2.22-5.71.76-2.78,2.37-5.13,3.58-7.68.59-1.24,1.14-1.23,1.86-.05,1,1.64.73,3.45.48,5.21-.54,3.68-1.8,7.22-2.17,10.94-.19,1.93-.36,3.87-.44,5.8-.06,1.34-.29,2.65-.92,3.79-.86,1.55-1.07,3.13-.96,4.84.08,1.21-.07,2.41-.68,3.51-.34.62-.43,1.29-.28,1.99.87,3.81-.12,7.5-.67,11.23-.06.39-.2.72-.63.8-.48.1-.86-.15-1.06-.52-.35-.64-.65-1.31-.89-2-1.97-5.6-5.28-10.46-8.42-15.42-.17-.26-.4-.5-.65-.68-1.82-1.26-3.1-2.95-3.99-4.96-.25-.56-.6-1.24-1.36-1.08-.72.15-1.14.74-1.2,1.49-.09,1.04-.14,2.09-.21,3.14Z"/>
  <path class="cls-5" d="m737.88,137.48c-1.38-.52-2.81-.22-4-.32-4.34-.03-4.9.1-6.64,1.44-1.69,1.29-2.67,3.07-3.42,5-.55,1.41-1.29,2.46-2.94,2.97-2.67.82-3.66,5.1-1.67,7.14,2.07,2.12,3.97,4.28,5.3,6.97,1,2.01,2.9,2.27,4.82,1.05,4.67-2.98,6.39-6.92,5.46-12.46-.12-.72-.22-1.45-.35-2.17-.22-1.31.15-2.35,1.24-3.16,1.06-.77,2.13-1.55,3.09-2.44,1.6-1.51,1.18-3.23-.89-4.02Zm-9.49,16.43c-.61.29-.83-.46-1.15-.81-1.49-1.61-1.48-1.63-.05-3.13.31-.32.55-.94,1.07-.7.27.12.35.71.44,1.11.14.66.21,1.34.33,2.06-.09.51-.1,1.22-.63,1.47Z"/>
  <path class="cls-3" d="m680.59,184.68c-.3-2.22-1.13-4.24-1.96-6.28-.84-2.05-.94-4.01.07-6.06,1.01-2.02,1.68-4.17,1.74-6.47.03-1.32-.48-2.32-1.59-3.05-1.05-.69-2.14-1.35-3.1-2.15-2.97-2.47-3.44-5.24-1.46-8.58.65-1.09.84-2.23.82-3.46-.03-1.23-.65-1.95-1.82-2.23-1.73-.41-3.09.42-4.31,1.45-2.7,2.26-3.85,5.17-3.37,8.68.31,2.21-.39,3.93-2.13,5.4-2.65,2.23-3.95,5.12-3.56,8.43-.12,2.37.23,4.5.66,6.6.51,2.5,1.8,3.58,4.36,3.69.74.03,1.42.21,1.8.8,1.23,1.92,2.95,3.54,3.33,5.97.29,1.88,1.59,2.5,3.37,1.8,1.04-.41,2.02-.66,3.2-.45,2.78.51,4.34-1.23,3.95-4.08Zm-7.3-16.49c-.93,2.45-1.96,4.85-1.98,7.54,0,.54-.34.57-.75.32-.4-.25-.78-.57-1.22-.7-2.49-.73-3.4-2.41-3.07-4.44-.09-2.33,2.22-5.57,3.93-6,.97-.24,3.45,2.32,3.09,3.28Z"/>
  <path class="cls-5" d="m183.64,121.15c-.97-1.04-.91-2.25.17-3.02,2.45-1.75,1.83-3.76-.02-5.72-1.63-1.72-3.24-3.45-4.87-5.16-.87-.92-1.29-1.87-.58-3.1.28-.48.48-1.07.35-1.67-.48-2.25-1.63-4.14-3.45-5.48-1.5-1.1-2.89.12-4.27.65-.1.04-.2.08-.3.11-1.79.65-3.14.25-4.28-1.31-.79-1.07-1.28-2.28-1.79-3.5-.97-2.32-1.7-2.76-4.1-2.33-2,.35-3.98.42-5.95-.06-3.8-.93-7.04-.08-9.8,2.73-.95.97-2.09,1.76-3.18,2.58-1.86,1.41-3.92,1.92-6.24,1.38-.92-.21-1.86-.36-2.8-.41-1.97-.11-2.95.51-3.6,2.36-1.2,3.42-1.31,6.7,1.53,9.49.53.52,1.13,1.14.84,1.92-.98,2.69-.26,5.42-.23,8.12,0,1.1.04,2.44.95,3.06,1.32.9,1.97,2.22,2.93,3.35,1.46,1.73,1.31,3.46.66,5.3-1,2.83-.44,5.18,2.08,6.67,2.01,1.18,2.73,2.77,2.53,4.96-.09.99-.05,2-.19,2.98-.29,2.02.33,3.56,2.06,4.74,2.01,1.36,2.05,1.62.9,3.83-.83,1.6-1.53,3.22-1.58,5.56-.06.74.23,1.89,1.41,2.45,1.24.58,2.31,0,3.3-.84,2.86-2.43,3.93-2.42,6.68-.06,2.67,2.29,3.96,2.37,6.19-.34,3.16-3.84,7.17-5.82,12-6.52,2.95-.43,4.76-2.25,5.56-5.12.65-2.34.91-4.73,1.23-7.12.23-1.73.92-3.11,2.28-4.32,1.92-1.7,2.91-4.25,4.98-5.88.11-.09.16-.28.17-.43.36-3.43,1.17-6.92-1.58-9.87Zm-7.28,8.4c-.99,1.16-2.02,2.27-3.04,3.4-2.3,2.54-3.12,5.64-3.38,8.95-.03.42-.04.84-.06,1.26-.13,2.75-.43,3.14-3.09,3.62-3.67.65-6.81,2.38-9.71,4.63-.92.71-1.87,1.21-3.04.92-1.27-.31-2.31-.84-2.6-2.35-.38-2-1.31-3.76-2.83-5.15-.91-.83-.46-1.86-.53-2.55-.03-3.78-.77-7.04-3.37-9.63-.87-.87-1.32-1.92-1.08-3.14.89-4.47-1.07-8.04-3.77-11.22-1.39-1.65-1.49-3.35-1.12-5.13.4-1.91.48-3.68-.24-5.53-.62-1.6-.15-2.67,1.42-2.82,4.08-.39,6.87-2.94,9.72-5.41,1.28-1.11,2.51-1.31,4.18-1.11,2.9.36,5.37.78,7.09,3.75,1.6,2.78,4.74,3.65,7.9,3.89.81.06,1.54.24,1.62,1.14.25,2.97,2.08,5.01,4.09,6.87,1.27,1.17,1.52,2.25.98,3.87-.78,2.36-.33,4.66,1.08,6.73,1.52,2.24,1.51,2.98-.22,5Z"/>
  <path class="cls-5" d="m481.94,184.27c.08,2.83-.75,5.26-2.84,7.24-.71.68-1.26,1.54-1.87,2.32-1.83,2.32-3.89,3.02-5.99,2.03-2.57-1.21-4.1-3.98-3.48-6.57.39-1.66,1.11-3.23,1.53-4.9.31-1.24,1.33-2.15,2.57-2.59,1.28-.46,2.27-1.27,3.22-2.2,1.12-1.1,2.31-2.02,4.04-1.46,1.7.54,2.24,1.94,2.54,3.48.17.87.19,1.76.28,2.65Z"/>
  <path class="cls-5" d="m406.66,170.61c.05-1.22.49-2.9,1.29-4.45,1.24-2.39,2.19-4.87,2.9-7.46.28-1.03.58-2.21,2.02-2.3,1.5-.09,2.51.67,3.14,1.94.55,1.1.81,2.27.59,3.5-.37,2.14-.42,4.24.38,6.35.5,1.33.61,2.77.3,4.19-.51,2.31-2.02,3.07-3.89,1.67-1.34-1.01-2.53-.91-3.94-.57-2.01.48-2.82-.24-2.79-2.88Z"/>
  <path class="cls-3" d="m737.04,139.72c-.15-.4-.63-.29-.99-.3-1.26-.03-2.53.05-3.78-.06-2.55-.24-4.21,1.04-5.41,3.06-.56.94-.91,2-1.38,2.99-.7,1.47-1.68,2.67-3.35,3.09-1.24.32-1.59,1.24-1.68,2.62-.16.62.44,1.12.96,1.63,1.94,1.87,3.7,3.87,4.76,6.39.49,1.16,1.24,1.29,2.22.51,3.24-2.56,5.51-5.51,4.21-9.99-.26-.9-.26-1.86-.41-2.79-.31-1.98.51-3.46,2.03-4.64.71-.54,1.44-1.06,2.14-1.61.3-.24.87-.39.68-.91Zm-8.66,14.19c-.61.29-.83-.46-1.15-.81-1.49-1.61-1.48-1.63-.05-3.13.31-.32.55-.94,1.07-.7.27.12.35.71.44,1.11.14.66.21,1.34.33,2.06-.09.51-.1,1.22-.63,1.47Z"/>
  <path class="cls-3" d="m181.93,122.52c-1.99-2.39-1.77-3.9.53-6.16.84-.83.85-1.4.02-2.21-1.44-1.38-2.76-2.89-4.2-4.28-1.95-1.87-3.2-3.91-2.08-6.71.09-.24.06-.52.08-.66,0-2.73-1.94-4-4.24-2.91-2.97,1.4-5.36.83-7.37-1.78-.91-1.17-1.54-2.5-2.02-3.9-.24-.7-.53-1.29-1.43-1.1-3,.61-5.96.22-8.93-.3-1.63-.28-3.11.04-4.42,1.14-1.77,1.48-3.58,2.92-5.43,4.31-2.19,1.65-4.68,2.03-7.34,1.53-.72-.13-1.45-.26-2.16-.41-1.21-.25-1.92.25-2.2,1.42-.61,2.51-.68,4.88,1.47,6.82,1.07.97,1.73,2.27,1.27,3.69-.87,2.72-.23,5.42-.17,8.13,0,.47.07,1.05.49,1.29,1.51.84,2.12,2.39,3.11,3.65,1.73,2.19,1.61,4.47.88,6.85-.76,2.48-.58,3.34,1.64,4.7,2.11,1.3,3.02,3.15,2.99,5.52,0,1.36-.11,2.73-.2,4.09-.08,1.25.27,2.22,1.42,2.9,2.37,1.4,2.87,3.21,1.7,5.73-.51,1.09-1.05,2.17-1.49,3.29-.29.73-.61,1.74,0,2.21.55.42,1.12-.51,1.64-.9,3.12-2.33,5.34-2.27,8.35.27.2.17.44.31.6.5,1.02,1.2,1.89.87,2.83-.15,1.28-1.39,2.51-2.82,4.06-3.95,2.8-2.06,6.03-2.88,9.37-3.45,1.97-.34,3.23-1.5,3.7-3.41.36-1.47.63-2.97.86-4.47.45-2.84.46-5.85,3.03-7.84,1.92-1.49,2.41-4.2,4.68-5.37.1-.05.16-.27.18-.42.22-2.64.79-5.25-1.2-7.64Zm-5.57,7.03c-.99,1.16-2.02,2.27-3.04,3.4-2.3,2.54-3.12,5.64-3.38,8.95-.03.42-.04.84-.06,1.26-.13,2.75-.43,3.14-3.09,3.62-3.67.65-6.81,2.38-9.71,4.63-.92.71-1.87,1.21-3.04.92-1.27-.31-2.31-.84-2.6-2.35-.38-2-1.31-3.76-2.83-5.15-.91-.83-.46-1.86-.53-2.55-.03-3.78-.77-7.04-3.37-9.63-.87-.87-1.32-1.92-1.08-3.14.89-4.47-1.07-8.04-3.77-11.22-1.39-1.65-1.49-3.35-1.12-5.13.4-1.91.48-3.68-.24-5.53-.62-1.6-.15-2.67,1.42-2.82,4.08-.39,6.87-2.94,9.72-5.41,1.28-1.11,2.51-1.31,4.18-1.11,2.9.36,5.37.78,7.09,3.75,1.6,2.78,4.74,3.65,7.9,3.89.81.06,1.54.24,1.62,1.14.25,2.97,2.08,5.01,4.09,6.87,1.27,1.17,1.52,2.25.98,3.87-.78,2.36-.33,4.66,1.08,6.73,1.52,2.24,1.51,2.98-.22,5Z"/>
  <path class="cls-3" d="m479.7,184.33c.13,2.12-.58,3.89-2.04,5.42-.79.83-1.46,1.77-2.19,2.67-.89,1.1-1.82,2.1-3.44,1.32-1.51-.73-2.52-2.48-2.08-4.01.42-1.49,1.23-2.85,1.39-4.45.07-.69.75-1.12,1.41-1.37,1.56-.58,2.79-1.61,3.95-2.77,1.43-1.42,2.32-1.14,2.76.85.17.76.17,1.55.24,2.33Z"/>
  <path class="cls-1" d="m408.89,171.25c.53-4.54,3.54-7.97,4.22-12.35.9.36,1.11.85,1.18,1.49.11.95.06,1.89-.11,2.82-.29,1.65-.02,3.23.42,4.81.2.7.46,1.41.53,2.13.07.64.37,1.51-.24,1.91-.66.44-1.07-.43-1.55-.76-1.38-.95-2.78-.56-4.47-.04Z"/>
</svg>